<svg width="1310" height="1310" viewBox="0 0 1310 1310" fill="none" xmlns="http://www.w3.org/2000/svg">
<path fill-rule="evenodd" clip-rule="evenodd" d="M655.551 0C699.378 0.353961 858.815 2.25489 1022.06 110.865C1216.01 239.905 1331.37 464.614 1306.7 706.734C1272.82 1039.31 978.743 1297 628.174 1283.2C265.488 1268.91 -20.5464 965.592 1.15848 604.144C21.1961 270.226 302.735 3.86003 649.165 0.0392963C652.35 0.00433717 652.336 0.0203928 655.521 0C655.536 0 655.536 0 655.551 0ZM655.521 28.9797C612.811 29.102 453.731 30.1493 293.088 140.869C113.941 264.327 8.75082 472.785 28.0441 696.494C56.5225 1026.58 351.117 1281.39 698.068 1259.1C1036.91 1237.34 1301.65 953.662 1285.68 615.506C1270.29 289.76 996.16 30.9038 661.64 28.9854C658.588 28.968 658.588 28.9826 655.536 28.9797H655.521ZM930.808 791.51L911.857 810.898C911.35 811.422 908.537 814.306 903.818 815.02C847.174 823.629 790.515 832.194 733.856 840.701C733.067 840.832 728.496 841.516 724.149 838.268C722.944 837.365 723.003 837.292 709.739 823.76C694.555 808.232 679.325 792.748 664.156 777.206C663.605 776.653 660.508 773.462 660.598 768.219L664.617 566.607C665.019 543.956 666.582 462.778 667.267 340.887C667.669 268.959 667.669 172.742 667.669 158.12C667.669 157.1 667.55 156.072 667.654 155.083C667.669 153.969 667.743 150.205 668.145 146.703C671.733 115.905 691.8 96.5759 713.863 85.0583C735.687 73.6588 759.416 69.9721 770.492 70.1993C789.279 70.5853 789.621 68.2984 827.315 76.5123C862.686 84.2179 888.291 105.772 900.96 117.069C907.927 123.267 917.945 130.612 934.038 161.333C934.291 161.81 942.925 176.233 942.211 197.36C954.269 200.12 969.856 206.235 987.869 220.831C1007.94 237.091 1041.12 281.399 1057.14 316.97C1069.89 345.33 1066.71 369 1063.36 381.338C1074.57 391.214 1091.63 411.33 1103.39 455.786C1104.64 460.506 1116.89 503.549 1116.67 578.609C1116.53 618.04 1107.3 638.753 1100.52 648.819C1100.52 648.862 1100.5 648.892 1100.5 648.935C1110.88 667.391 1129.04 720.092 1092.89 837.54C1048.49 981.848 924.987 1101.16 879.85 1139.03C828.535 1182.11 759.252 1211.82 724.164 1213.47C693.795 1214.89 669.485 1196.48 659.035 1186.64C657.903 1185.57 656.921 1184.6 656.117 1183.77C655.73 1183.37 655.402 1183.05 655 1183.05C654.584 1183.05 654.256 1183.37 653.869 1183.77C653.065 1184.6 652.098 1185.57 650.951 1186.64C640.501 1196.48 616.206 1214.89 585.822 1213.47C550.734 1211.82 481.465 1182.11 430.136 1139.03C384.999 1101.16 261.513 981.848 217.106 837.54C180.946 720.092 199.108 667.391 209.484 648.935C209.484 648.892 209.484 648.848 209.484 648.819C202.696 638.753 193.451 618.04 193.332 578.609C193.094 503.549 205.345 460.506 206.596 455.786C218.356 411.33 235.417 391.214 246.626 381.338C243.277 369 240.091 345.33 252.864 316.97C268.867 281.399 302.05 237.091 322.132 220.831C340.13 206.235 355.717 200.12 367.775 197.36C367.06 176.233 375.71 161.81 375.948 161.333C392.055 130.612 402.074 123.267 409.026 117.069C421.71 105.772 447.315 84.2179 482.671 76.5123C520.379 68.2984 520.707 70.5853 539.509 70.1993C550.584 69.9721 574.299 73.6588 596.123 85.0583C618.185 96.5759 638.268 115.905 641.841 146.703C642.242 150.199 642.332 153.958 642.332 155.068C642.436 156.079 642.332 157.103 642.332 158.12C642.332 172.742 642.317 268.959 642.719 340.887C643.418 462.778 644.967 543.956 645.369 566.607L649.388 768.219C649.492 773.462 646.381 776.653 645.845 777.206C630.675 792.748 615.446 808.232 600.247 823.76C586.998 837.292 587.057 837.365 585.836 838.268C581.504 841.516 576.919 840.832 576.13 840.701C519.471 832.194 462.827 823.629 406.183 815.02C401.464 814.306 398.635 811.422 398.144 810.898L379.178 791.51C353.499 798.953 324.618 787.199 312.396 761.256C299.087 733.012 311.042 698.577 340.071 684.797C351.474 679.393 361.374 679.277 363.994 679.19C364.083 679.19 364.157 679.19 364.232 679.19C364.485 679.204 393.842 678.884 411.215 706.166C425.536 728.657 422.156 757.731 404.129 776.405C405.647 778.532 407.061 780.848 408.624 782.916C410.277 785.086 412.063 786.98 414.609 787.592C458.525 798.094 540.655 809.543 566.722 813.054C571.039 813.636 575.371 812.165 578.467 809.092C588.858 798.735 617.903 774.235 627.653 764.519C630.318 761.868 631.792 758.241 631.762 754.483C631.494 723.704 622.949 603.314 622.473 561.246C621.669 490.92 620.21 377.653 613.541 157.387C613.407 156.339 613.526 155.386 613.451 153.288C613.139 143.948 610.146 121.261 575.073 106.35C565.605 102.325 550.599 97.951 539.107 98.0923C523.208 98.2874 523.014 96.5876 499.136 101.204C486.944 103.563 473.516 105.775 454.877 116.561C443.727 123.012 434.974 129.908 422.186 141.232C421.129 142.168 412.152 149.336 398.903 174.558C398.01 176.28 393.857 184.213 393.991 195.889C394.02 198.515 394.765 201.085 396.149 203.319C396.194 203.392 396.239 203.466 396.283 203.543C396.536 204.074 396.849 204.57 397.161 205.069C411.408 227.633 418.852 236.169 429.138 248.077C429.496 248.499 430.046 249.389 430.299 249.806C436.254 250.769 442.358 250.499 448.387 250.824C454.952 251.178 461.517 251.484 468.082 251.797C473.352 237.243 486.035 225.546 502.858 222.568C506.475 221.929 509.348 221.894 509.765 221.875C509.869 221.871 509.959 221.872 510.063 221.878C510.375 221.898 533.569 221.958 546.848 243.757C559.398 264.371 553.1 291.391 532.631 304.384C509.021 319.359 477.163 308.434 467.859 281.646C467.68 281.122 467.516 280.612 467.353 280.102C458.346 278.66 449.34 277.204 440.318 275.791C434.572 274.888 428.811 274.101 423.064 273.198C422.335 273.081 418.36 272.47 415.294 268.42C405.781 255.832 400.02 247.467 382.022 228.593C382.007 228.583 382.007 228.573 381.992 228.564C378.136 224.397 372.197 222.864 366.807 224.644C359.141 227.187 349.464 231.911 338.24 240.868C320.182 255.267 288.071 298.762 274.956 328.783C274.48 329.875 266.113 347.267 269.016 368.024C269.582 371.899 271.696 375.366 274.867 377.653C315.82 407.368 333.014 417.9 362.565 435.7C363.413 436.224 364.232 436.879 365.051 437.52C365.721 438.059 366.361 438.656 367.194 438.744C369.055 438.948 418.301 439.924 440.943 440.361C445.261 424.964 456.694 411.65 473.129 405.707C481.272 402.765 487.986 402.678 489.772 402.619C489.861 402.619 489.936 402.619 490.025 402.619C490.635 402.663 516.464 402.619 531.768 426.829C546.52 450.164 539.836 481.277 516.449 496.485C490.442 513.396 454.982 502.617 442.923 473.543C442.253 471.911 441.658 470.265 441.167 468.619L363.339 462.545C360.466 462.312 358.084 460.826 357.682 460.579C356.55 459.865 355.464 459.093 354.347 458.35C327.298 440.55 310.729 429.625 270.907 407.441L270.892 407.426C264.55 403.858 256.541 405.533 252.164 411.345C239.719 428.445 224.356 462.152 218.699 529.375C217.448 544.116 215.692 575.944 217.3 595.288C218.401 608.616 220.798 618.332 223.344 625.236C225.353 630.553 230.281 634.209 235.953 634.588C243.53 635.097 253.519 635.724 261.945 636.088C286.925 637.195 303.583 636.831 308.079 636.758C316.832 636.627 338.701 636.044 343.271 635.898L343.539 635.695C348.675 631.805 372.926 613.102 385.088 603.722C384.657 602.833 384.255 601.93 383.868 601.012C372.777 574.254 386.071 543.024 413.835 532.609C422.35 529.419 429.391 529.332 431.282 529.259C431.371 529.259 431.446 529.259 431.535 529.259C432.101 529.302 458.287 529.23 473.784 553.73C488.73 577.357 481.957 608.849 458.287 624.245C441.256 635.301 420.236 634.646 404.218 624.843C392.174 632.912 380.146 640.968 368.117 649.052C353.573 658.826 353.707 659.146 350.968 659.933C350.685 660.006 349.211 660.428 347.231 660.399C315.106 659.714 294.19 658.156 237.531 661.71C237.516 661.71 237.516 661.71 237.501 661.71C231.576 662.03 226.44 665.963 224.564 671.6C224.535 671.644 224.52 671.702 224.505 671.746C211.3 711.439 216.079 774.016 235.283 834.16C282.087 980.712 415.472 1100.16 452.615 1127.82C480.691 1148.72 516.151 1166.27 545.717 1176.41C565.114 1183.05 581.921 1186.55 592.297 1185.53C593.057 1185.46 610.027 1184.71 628.74 1168.02C629.35 1167.47 630.884 1165.63 631.449 1164.86C635.856 1158.86 639.697 1151.21 640.322 1149.99C640.754 1149.13 643.671 1143.34 645.383 1139.15C645.517 1138.68 645.711 1138.16 645.964 1137.61C646.158 1137.17 646.381 1136.76 646.813 1136.18C647.304 1135.49 647.914 1134.79 648.703 1134.17C649.537 1133.5 650.713 1132.75 652.217 1132.33C652.574 1132.23 653.14 1132.08 653.839 1132C655.819 1131.78 655.849 1131.78 657.769 1132.33C658.261 1132.46 660.657 1133.16 662.607 1135.45C662.667 1135.51 662.727 1135.58 662.786 1135.65L662.801 1135.68C663.903 1137.07 664.096 1137.62 664.424 1138.58C664.453 1138.65 664.468 1138.73 664.498 1138.81C664.587 1139.05 664.692 1139.32 664.841 1139.69C671.033 1153.98 676.08 1161.39 678.328 1164.57C679.042 1165.56 680.457 1167.29 681.261 1168.02C699.958 1184.71 716.929 1185.46 717.689 1185.53C728.065 1186.55 744.872 1183.05 764.269 1176.41C793.834 1166.27 829.295 1148.72 857.371 1127.82C894.528 1100.16 1027.9 980.712 1074.7 834.16C1093.91 774.016 1098.69 711.439 1085.5 671.746C1085.47 671.702 1085.45 671.644 1085.44 671.6C1083.55 665.963 1078.41 662.03 1072.48 661.71C1072.47 661.71 1072.47 661.71 1072.47 661.71C1015.81 658.156 994.88 659.714 962.754 660.399C960.774 660.428 959.301 660.006 959.018 659.933C956.279 659.146 956.413 658.826 941.868 649.052C929.855 640.968 917.811 632.912 905.783 624.843C889.75 634.646 868.73 635.301 851.714 624.245C828.029 608.849 821.271 577.357 836.202 553.73C851.714 529.23 877.885 529.302 878.466 529.259C878.54 529.259 878.629 529.259 878.704 529.259C880.595 529.332 887.636 529.419 896.151 532.609C923.915 543.024 937.209 574.254 926.118 601.012C925.731 601.93 925.329 602.833 924.912 603.722C937.075 613.102 961.311 631.805 966.447 635.695L966.729 635.898C971.285 636.044 993.153 636.627 1001.91 636.758C1006.4 636.831 1023.06 637.195 1048.06 636.088C1056.48 635.724 1066.47 635.097 1074.03 634.588H1074.05C1079.72 634.209 1084.65 630.553 1086.66 625.236C1089.2 618.332 1091.6 608.616 1092.7 595.288C1094.29 575.944 1092.54 544.116 1091.3 529.375C1085.64 462.152 1070.27 428.445 1057.82 411.33C1053.44 405.533 1045.44 403.858 1039.09 407.426L1039.08 407.441C999.257 429.625 982.703 440.55 955.639 458.35C954.522 459.093 953.436 459.865 952.304 460.579C951.902 460.826 949.535 462.312 946.647 462.545L868.819 468.619C868.328 470.265 867.747 471.911 867.077 473.543C855.004 502.617 819.544 513.396 793.551 496.485C770.149 481.277 763.465 450.164 778.218 426.829C793.522 402.619 819.365 402.663 819.975 402.619C820.05 402.619 820.139 402.619 820.214 402.619C822.015 402.678 828.714 402.765 836.857 405.707C853.307 411.65 864.74 424.964 869.042 440.361C891.685 439.924 940.93 438.948 942.806 438.744C943.625 438.656 944.265 438.059 944.95 437.52C945.754 436.879 946.573 436.224 947.421 435.7C976.971 417.9 994.166 407.368 1035.12 377.653H1035.13C1038.3 375.366 1040.42 371.899 1040.98 368.024C1043.89 347.267 1035.52 329.875 1035.04 328.783C1021.91 298.762 989.804 255.267 971.746 240.868C960.521 231.911 950.845 227.187 943.178 224.644C937.789 222.864 931.85 224.397 927.994 228.564C927.994 228.573 927.979 228.583 927.964 228.593C909.966 247.467 904.22 255.832 894.707 268.42C891.641 272.47 887.651 273.081 886.921 273.198C881.19 274.101 875.429 274.888 869.682 275.791C860.661 277.204 851.654 278.66 842.633 280.102C842.484 280.612 842.306 281.122 842.127 281.646C832.823 308.434 800.965 319.359 777.355 304.384C756.885 291.391 750.603 264.371 763.153 243.757C776.432 221.958 799.61 221.898 799.923 221.878C800.027 221.872 800.117 221.871 800.221 221.875C800.652 221.894 803.526 221.929 807.143 222.568C823.95 225.546 836.634 237.243 841.919 251.797C848.484 251.484 855.049 251.178 861.599 250.824C867.628 250.499 873.732 250.769 879.701 249.806C879.939 249.389 880.49 248.499 880.862 248.077C891.149 236.169 898.578 227.633 912.824 205.069C913.137 204.57 913.449 204.074 913.717 203.543C913.747 203.466 913.792 203.392 913.837 203.319C915.221 201.085 915.965 198.515 915.995 195.889C916.144 184.213 911.991 176.28 911.083 174.558C897.833 149.336 888.857 142.168 887.8 141.232C875.012 129.908 866.273 123.012 855.123 116.561C836.47 105.775 823.057 103.563 810.85 101.204C786.971 96.5876 786.793 98.2874 770.879 98.0923C759.386 97.951 744.38 102.325 734.912 106.35C699.839 121.261 696.847 143.948 696.534 153.288C696.475 155.389 696.579 156.34 696.46 157.377C689.776 377.653 688.332 490.92 687.528 561.246C687.037 603.314 678.492 723.704 678.224 754.483C678.194 758.226 679.653 761.824 682.303 764.475L731.444 809.004C731.474 809.033 731.504 809.063 731.533 809.092C734.615 812.165 738.947 813.636 743.264 813.054C769.331 809.543 851.461 798.094 895.377 787.592C897.923 786.98 899.709 785.086 901.362 782.916C902.925 780.848 904.339 778.532 905.872 776.405C887.844 757.731 884.45 728.657 898.771 706.166C916.159 678.884 945.516 679.204 945.754 679.19C945.843 679.19 945.918 679.19 945.992 679.19C948.627 679.277 958.512 679.393 969.915 684.797C998.944 698.577 1010.91 733.012 997.604 761.256C985.383 787.199 956.487 798.953 930.808 791.51ZM945.754 708.031C944.116 707.943 938.831 707.623 932.787 710.056C913.509 717.819 907.048 742.276 920.491 758.838C921.474 760.047 926.967 766.791 936.881 769.457C952.006 773.521 968.025 766.107 974.545 751.701C983.7 731.453 969.305 707.594 945.992 708.045H945.932C945.888 708.045 945.828 708.031 945.769 708.031H945.754ZM364.083 705.336L364.053 707.987L364.068 708.002C364.098 707.739 364.262 706.53 364.336 705.321C364.247 705.321 364.172 705.336 364.098 705.336H364.083ZM364.232 708.031C364.172 708.031 364.128 708.031 364.098 708.031H364.083H364.053L364.009 708.045C340.696 707.594 326.286 731.453 335.456 751.701C341.961 766.107 357.98 773.521 373.119 769.457C383.034 766.791 388.512 760.047 389.495 758.838C402.938 742.276 396.492 717.819 377.198 710.056C371.154 707.623 365.869 707.943 364.232 708.031ZM875.935 555.318C875.935 555.362 875.92 555.391 875.935 555.434L875.95 555.449V555.347C875.95 555.332 875.95 555.332 875.95 555.318C875.935 555.318 875.935 555.318 875.935 555.318ZM878.391 558.071L878.421 558.1C878.213 558.085 877.989 558.071 877.766 558.056C867.554 557.517 860.274 563.315 856.776 568.078C855.942 569.214 851.148 575.725 851.863 585.062C852.786 597.371 861.703 605.95 871.469 608.412C883.81 611.529 896.092 605.397 901.406 595.04C910.264 577.823 897.953 557.619 878.719 558.1L878.629 558.115L878.391 558.071ZM878.421 558.1C878.138 558.071 877.855 558.013 877.602 557.896L877.528 557.882L877.409 557.809C877.26 557.736 877.126 557.648 876.992 557.546L876.828 557.43L876.605 557.182L876.575 557.139L876.545 557.11L876.367 556.891C876.635 557.372 877.2 557.998 878.421 558.1ZM434.051 555.318C434.051 555.332 434.051 555.332 434.051 555.347V555.449L434.066 555.434C434.066 555.391 434.066 555.362 434.066 555.318C434.051 555.318 434.051 555.318 434.051 555.318ZM431.565 558.1L431.595 558.071L431.371 558.115L431.267 558.1C412.033 557.619 399.737 577.823 408.58 595.04C413.909 605.397 426.176 611.529 438.532 608.412C448.283 605.95 457.2 597.371 458.138 585.062C458.837 575.725 454.059 569.214 453.21 568.078C449.727 563.315 442.432 557.517 432.22 558.056C431.997 558.071 431.788 558.085 431.565 558.1ZM431.565 558.1C432.801 557.998 433.351 557.372 433.619 556.891L433.44 557.11L433.426 557.139L433.381 557.182L433.173 557.43L432.994 557.546C432.875 557.648 432.741 557.736 432.592 557.809L432.458 557.882L432.384 557.896C432.131 558.013 431.863 558.071 431.565 558.1ZM492.005 427.324C492.005 427.339 492.005 427.338 492.005 427.353V427.455L492.02 427.44C492.02 427.397 492.02 427.368 492.02 427.324C492.02 427.324 492.02 427.324 492.005 427.324ZM489.519 430.106L489.564 430.077L489.325 430.121L489.236 430.106V430.121C470.003 429.625 457.691 449.829 466.549 467.046C471.863 477.403 484.145 483.535 496.486 480.418C506.252 477.956 515.169 469.377 516.092 457.068C516.806 447.731 512.013 441.22 511.179 440.084C507.681 435.321 500.401 429.523 490.174 430.062C489.966 430.077 489.742 430.091 489.519 430.106ZM489.534 430.106C490.755 430.004 491.32 429.378 491.588 428.897L491.41 429.116L491.38 429.145L491.35 429.188L491.127 429.436L490.963 429.552C490.829 429.654 490.695 429.742 490.546 429.815L490.427 429.887L490.353 429.902C490.085 430.019 489.817 430.077 489.534 430.106ZM817.966 427.324C817.966 427.368 817.966 427.397 817.966 427.44L817.981 427.455V427.353C817.981 427.338 817.981 427.339 817.981 427.324H817.966ZM820.437 430.077L820.467 430.106C820.244 430.091 820.035 430.077 819.812 430.062C809.599 429.523 802.305 435.321 798.807 440.084C797.973 441.22 793.194 447.731 793.894 457.068C794.832 469.377 803.734 477.956 813.5 480.418C825.856 483.535 838.122 477.403 843.452 467.046C852.295 449.829 839.998 429.625 820.75 430.121V430.106L820.66 430.121L820.437 430.077ZM820.467 430.106C820.169 430.077 819.901 430.019 819.648 429.902L819.559 429.887L819.44 429.815C819.291 429.742 819.157 429.654 819.038 429.552L818.859 429.436L818.651 429.188L818.606 429.145L818.591 429.116L818.398 428.897C818.68 429.378 819.231 430.004 820.467 430.106ZM802.826 248.077L802.707 248.848C802.781 248.625 802.826 248.39 802.841 248.148C802.841 248.125 802.841 248.102 802.841 248.078L802.826 248.077ZM799.983 250.716L799.804 250.674L799.834 250.709C798.762 250.604 794.653 250.173 790.232 252.466C780.049 257.743 778.233 269.469 782.074 277.16C788.743 290.546 807.009 291.624 815.405 279.753C824.174 267.386 815.465 250.205 800.325 250.716C800.266 250.721 800.191 250.722 800.131 250.722L800.117 250.721V250.709L800.057 250.719V250.721L800.027 250.725L799.998 250.718L799.983 250.716ZM800.325 250.716C800.623 250.696 800.906 250.628 801.173 250.517L800.131 250.705V250.722L800.221 250.719L800.325 250.716ZM797.839 249.488C798.092 249.933 798.598 250.527 799.685 250.687C799.447 250.648 799.208 250.577 798.985 250.476L798.955 250.466L798.896 250.425C798.688 250.327 798.524 250.207 798.36 250.067L798.271 250.016L798.211 249.937C798.077 249.807 797.958 249.666 797.869 249.512L797.839 249.488ZM801.724 250.212L801.188 250.508C801.382 250.429 801.561 250.329 801.724 250.212ZM802.201 249.768L801.754 250.191C801.918 250.068 802.067 249.925 802.201 249.768ZM802.707 248.869L802.216 249.743C802.424 249.488 802.603 249.193 802.707 248.869ZM509.72 248.011L509.854 250.689V250.696C509.884 250.498 510.018 249.245 510.078 248C510.003 248.006 509.944 248.011 509.884 248.017C509.884 248.029 509.84 248.019 509.854 248.019L509.869 248.016C509.825 248.014 509.78 248.013 509.72 248.011ZM509.869 250.721L509.765 250.719C494.566 250.129 485.797 267.357 494.581 279.753C502.992 291.624 521.243 290.546 527.912 277.16C531.753 269.469 529.937 257.743 519.754 252.466C515.333 250.173 511.224 250.604 510.152 250.709L510.182 250.674L510.003 250.718L509.973 250.725L509.944 250.721H509.929L509.869 250.708V250.721ZM509.854 250.721V250.706V250.705V250.721ZM512.147 249.488L512.132 249.512C512.028 249.665 511.909 249.807 511.775 249.937L511.715 250.016L511.641 250.067C511.477 250.207 511.298 250.327 511.105 250.425L511.045 250.466L511.001 250.476C510.777 250.579 510.539 250.652 510.286 250.69C511.388 250.533 511.894 249.934 512.147 249.488ZM223.195 673.159C222.689 673.421 222.078 673.509 221.483 673.392C222.644 673.64 223.046 673.261 223.195 673.159ZM1086.79 673.159C1086.94 673.261 1087.36 673.64 1088.52 673.392C1087.91 673.509 1087.31 673.421 1086.79 673.159Z" fill="url(#paint0_linear_466_5203)"/>
<defs>
<linearGradient id="paint0_linear_466_5203" x1="660.973" y1="22.3302" x2="655" y2="1283.73" gradientUnits="userSpaceOnUse">
<stop stop-color="#9CA7FF"/>
<stop offset="1" stop-color="#635BFF"/>
</linearGradient>
</defs>
</svg>
