<svg width="1920" height="914" viewBox="0 0 1920 914" fill="none" xmlns="http://www.w3.org/2000/svg">
<g clip-path="url(#clip0_14152_169617)">
<mask id="mask0_14152_169617" style="mask-type:alpha" maskUnits="userSpaceOnUse" x="1099" y="-1" width="822" height="914">
<path d="M1190.88 456.258H1282.08M1190.88 456.258V547.414M1190.88 456.258H1099.68M1190.88 456.258V365.102M1282.08 456.258V547.414M1282.08 456.258V365.102M1282.08 456.258H1373.28M1282.08 547.414H1190.88M1282.08 547.414V638.569M1282.08 547.414H1373.28M1190.88 547.414H1099.68M1190.88 547.414V638.569M1099.68 456.258V547.414M1099.68 456.258V365.102M1099.68 547.414V638.569M1282.08 638.569H1190.88M1282.08 638.569V729.725M1282.08 638.569H1373.28M1190.88 638.569V729.725M1190.88 638.569H1099.68M1282.08 729.725H1190.88M1282.08 729.725V820.881M1282.08 729.725H1373.28M1190.88 729.725V820.881M1190.88 729.725H1099.68M1282.08 820.881H1190.88M1282.08 820.881V912.036M1282.08 820.881H1373.28M1190.88 820.881V912.036M1190.88 820.881H1099.68M1282.08 912.036H1190.88M1282.08 912.036H1373.28M1190.88 912.036H1099.68V820.881M1099.68 638.569V729.725M1099.68 729.725V820.881M1190.88 365.102H1282.08M1190.88 365.102H1099.68M1190.88 365.102V273.947M1282.08 365.102V273.947M1282.08 365.102H1373.28M1099.68 365.102V273.947M1190.88 273.947H1282.08M1190.88 273.947H1099.68M1190.88 273.947V182.791M1282.08 273.947V182.791M1282.08 273.947H1373.28M1099.68 273.947V182.791M1190.88 182.791H1282.08M1190.88 182.791H1099.68M1190.88 182.791V91.6354M1282.08 182.791V91.6354M1282.08 182.791H1373.28M1099.68 182.791V91.6354M1190.88 91.6354H1282.08M1190.88 91.6354H1099.68M1190.88 91.6354V0.479767M1282.08 91.6354V0.479767M1282.08 91.6354H1373.28M1099.68 91.6354V0.479767H1190.88M1190.88 0.479767H1282.08M1282.08 0.479767H1373.28M1373.28 456.258V547.414M1373.28 456.258V365.102M1373.28 456.258H1464.48M1373.28 547.414V638.569M1373.28 547.414H1464.48M1373.28 638.569V729.725M1373.28 638.569H1464.48M1373.28 729.725V820.881M1373.28 729.725H1464.48M1373.28 820.881V912.036M1373.28 820.881H1464.48M1373.28 912.036H1464.48M1373.28 365.102V273.947M1373.28 365.102H1464.48M1373.28 273.947V182.791M1373.28 273.947H1464.48M1373.28 182.791V91.6354M1373.28 182.791H1464.48M1373.28 91.6354V0.479767M1373.28 91.6354H1464.48M1373.28 0.479767H1464.48M1464.48 456.258V547.414M1464.48 456.258V365.102M1464.48 456.258H1555.68M1464.48 547.414V638.569M1464.48 547.414H1555.68M1464.48 638.569V729.725M1464.48 638.569H1555.68M1464.48 729.725V820.881M1464.48 729.725H1555.68M1464.48 820.881V912.036M1464.48 820.881H1555.68M1464.48 912.036H1555.68M1555.68 638.569V729.725M1555.68 638.569H1646.88M1555.68 638.569V547.414M1555.68 729.725H1646.88M1555.68 729.725V820.881M1646.88 638.569V729.725M1646.88 638.569H1738.08M1646.88 638.569V547.414M1646.88 729.725H1738.08M1646.88 729.725V820.881M1738.08 638.569V729.725M1738.08 638.569H1829.28M1738.08 638.569V547.414M1738.08 729.725H1829.28M1738.08 729.725V820.881M1829.28 638.569V729.725M1829.28 638.569H1920.48M1829.28 638.569V547.414M1829.28 729.725H1920.48M1829.28 729.725V820.881M1920.48 638.569V729.725M1920.48 638.569V547.414M1920.48 729.725V820.881M1555.68 547.414H1646.88M1555.68 547.414V456.258M1646.88 547.414H1738.08M1646.88 547.414V456.258M1738.08 547.414H1829.28M1738.08 547.414V456.258M1829.28 547.414H1920.48M1829.28 547.414V456.258M1920.48 547.414V456.258M1555.68 820.881H1646.88M1555.68 820.881V912.036M1646.88 820.881H1738.08M1646.88 820.881V912.036M1738.08 820.881H1829.28M1738.08 820.881V912.036M1829.28 820.881H1920.48M1829.28 820.881V912.036M1920.48 820.881V912.036H1829.28M1555.68 912.036H1646.88M1646.88 912.036H1738.08M1738.08 912.036H1829.28M1464.48 365.102V273.947M1464.48 365.102H1555.68M1464.48 273.947V182.791M1464.48 273.947H1555.68M1464.48 182.791V91.6354M1464.48 182.791H1555.68M1464.48 91.6354V0.479767M1464.48 91.6354H1555.68M1464.48 0.479767H1555.68M1555.68 456.258H1646.88M1555.68 456.258V365.102M1646.88 456.258H1738.08M1646.88 456.258V365.102M1738.08 456.258H1829.28M1738.08 456.258V365.102M1829.28 456.258H1920.48M1829.28 456.258V365.102M1920.48 456.258V365.102M1555.68 365.102H1646.88M1555.68 365.102V273.947M1646.88 365.102H1738.08M1646.88 365.102V273.947M1738.08 365.102H1829.28M1738.08 365.102V273.947M1829.28 365.102H1920.48M1829.28 365.102V273.947M1920.48 365.102V273.947M1555.68 273.947H1646.88M1555.68 273.947V182.791M1646.88 273.947H1738.08M1646.88 273.947V182.791M1738.08 273.947H1829.28M1738.08 273.947V182.791M1829.28 273.947H1920.48M1829.28 273.947V182.791M1920.48 273.947V182.791M1555.68 182.791H1646.88M1555.68 182.791V91.6354M1646.88 182.791H1738.08M1646.88 182.791V91.6354M1738.08 182.791H1829.28M1738.08 182.791V91.6354M1829.28 182.791H1920.48M1829.28 182.791V91.6354M1920.48 182.791V91.6354M1555.68 91.6354H1646.88M1555.68 91.6354V0.479767M1646.88 91.6354H1738.08M1646.88 91.6354V0.479767M1738.08 91.6354H1829.28M1738.08 91.6354V0.479767M1829.28 91.6354H1920.48M1829.28 91.6354V0.479767M1920.48 91.6354V0.479767H1829.28M1555.68 0.479767H1646.88M1646.88 0.479767H1738.08M1738.08 0.479767H1829.28" stroke="#151515"/>
<path d="M1373.76 274.427H1464V364.623H1373.76V274.427ZM1282.56 456.738H1372.8V546.934H1282.56V456.738ZM1464.96 547.894H1555.2V638.09H1464.96V547.894Z" fill="#070707" fill-opacity="0.3"/>
</mask>
<g mask="url(#mask0_14152_169617)">
<path d="M1560 1025.74C1901.44 1025.74 2178.24 764.975 2178.24 443.304C2178.24 121.633 1901.44 -139.132 1560 -139.132C1218.56 -139.132 941.76 121.633 941.76 443.304C941.76 764.975 1218.56 1025.74 1560 1025.74Z" fill="url(#paint0_radial_14152_169617)"/>
<path d="M1387.2 576.68C1518.16 576.68 1624.32 478.946 1624.32 358.386C1624.32 237.825 1518.16 140.092 1387.2 140.092C1256.24 140.092 1150.08 237.825 1150.08 358.386C1150.08 478.946 1256.24 576.68 1387.2 576.68Z" fill="url(#paint1_radial_14152_169617)"/>
</g>
<mask id="mask1_14152_169617" style="mask-type:alpha" maskUnits="userSpaceOnUse" x="-1" y="-1" width="822" height="914">
<path d="M729.12 456.258H637.92M729.12 456.258V547.414M729.12 456.258H820.32M729.12 456.258V365.102M637.92 456.258V547.414M637.92 456.258V365.102M637.92 456.258H546.72M637.92 547.414H729.12M637.92 547.414V638.569M637.92 547.414H546.72M729.12 547.414H820.32M729.12 547.414V638.569M820.32 456.258V547.414M820.32 456.258V365.102M820.32 547.414V638.569M637.92 638.569H729.12M637.92 638.569V729.725M637.92 638.569H546.72M729.12 638.569V729.725M729.12 638.569H820.32M637.92 729.725H729.12M637.92 729.725V820.881M637.92 729.725H546.72M729.12 729.725V820.881M729.12 729.725H820.32M637.92 820.881H729.12M637.92 820.881V912.036M637.92 820.881H546.72M729.12 820.881V912.036M729.12 820.881H820.32M637.92 912.036H729.12M637.92 912.036H546.72M729.12 912.036H820.32V820.881M820.32 638.569V729.725M820.32 729.725V820.881M729.12 365.102H637.92M729.12 365.102H820.32M729.12 365.102V273.947M637.92 365.102V273.947M637.92 365.102H546.72M820.32 365.102V273.947M729.12 273.947H637.92M729.12 273.947H820.32M729.12 273.947V182.791M637.92 273.947V182.791M637.92 273.947H546.72M820.32 273.947V182.791M729.12 182.791H637.92M729.12 182.791H820.32M729.12 182.791V91.6354M637.92 182.791V91.6354M637.92 182.791H546.72M820.32 182.791V91.6354M729.12 91.6354H637.92M729.12 91.6354H820.32M729.12 91.6354V0.479767M637.92 91.6354V0.479767M637.92 91.6354H546.72M820.32 91.6354V0.479767H729.12M729.12 0.479767H637.92M637.92 0.479767H546.72M546.72 456.258V547.414M546.72 456.258V365.102M546.72 456.258H455.52M546.72 547.414V638.569M546.72 547.414H455.52M546.72 638.569V729.725M546.72 638.569H455.52M546.72 729.725V820.881M546.72 729.725H455.52M546.72 820.881V912.036M546.72 820.881H455.52M546.72 912.036H455.52M546.72 365.102V273.947M546.72 365.102H455.52M546.72 273.947V182.791M546.72 273.947H455.52M546.72 182.791V91.6354M546.72 182.791H455.52M546.72 91.6354V0.479767M546.72 91.6354H455.52M546.72 0.479767H455.52M455.52 456.258V547.414M455.52 456.258V365.102M455.52 456.258H364.32M455.52 547.414V638.569M455.52 547.414H364.32M455.52 638.569V729.725M455.52 638.569H364.32M455.52 729.725V820.881M455.52 729.725H364.32M455.52 820.881V912.036M455.52 820.881H364.32M455.52 912.036H364.32M364.32 638.569V729.725M364.32 638.569H273.12M364.32 638.569V547.414M364.32 729.725H273.12M364.32 729.725V820.881M273.12 638.569V729.725M273.12 638.569H181.92M273.12 638.569V547.414M273.12 729.725H181.92M273.12 729.725V820.881M181.92 638.569V729.725M181.92 638.569H90.72M181.92 638.569V547.414M181.92 729.725H90.72M181.92 729.725V820.881M90.72 638.569V729.725M90.72 638.569H-0.47998M90.72 638.569V547.414M90.72 729.725H-0.47998M90.72 729.725V820.881M-0.47998 638.569V729.725M-0.47998 638.569V547.414M-0.47998 729.725V820.881M364.32 547.414H273.12M364.32 547.414V456.258M273.12 547.414H181.92M273.12 547.414V456.258M181.92 547.414H90.72M181.92 547.414V456.258M90.72 547.414H-0.47998M90.72 547.414V456.258M-0.47998 547.414V456.258M364.32 820.881H273.12M364.32 820.881V912.036M273.12 820.881H181.92M273.12 820.881V912.036M181.92 820.881H90.72M181.92 820.881V912.036M90.72 820.881H-0.47998M90.72 820.881V912.036M-0.47998 820.881V912.036H90.72M364.32 912.036H273.12M273.12 912.036H181.92M181.92 912.036H90.72M455.52 365.102V273.947M455.52 365.102H364.32M455.52 273.947V182.791M455.52 273.947H364.32M455.52 182.791V91.6354M455.52 182.791H364.32M455.52 91.6354V0.479767M455.52 91.6354H364.32M455.52 0.479767H364.32M364.32 456.258H273.12M364.32 456.258V365.102M273.12 456.258H181.92M273.12 456.258V365.102M181.92 456.258H90.72M181.92 456.258V365.102M90.72 456.258H-0.47998M90.72 456.258V365.102M-0.47998 456.258V365.102M364.32 365.102H273.12M364.32 365.102V273.947M273.12 365.102H181.92M273.12 365.102V273.947M181.92 365.102H90.72M181.92 365.102V273.947M90.72 365.102H-0.47998M90.72 365.102V273.947M-0.47998 365.102V273.947M364.32 273.947H273.12M364.32 273.947V182.791M273.12 273.947H181.92M273.12 273.947V182.791M181.92 273.947H90.72M181.92 273.947V182.791M90.72 273.947H-0.47998M90.72 273.947V182.791M-0.47998 273.947V182.791M364.32 182.791H273.12M364.32 182.791V91.6354M273.12 182.791H181.92M273.12 182.791V91.6354M181.92 182.791H90.72M181.92 182.791V91.6354M90.72 182.791H-0.47998M90.72 182.791V91.6354M-0.47998 182.791V91.6354M364.32 91.6354H273.12M364.32 91.6354V0.479767M273.12 91.6354H181.92M273.12 91.6354V0.479767M181.92 91.6354H90.72M181.92 91.6354V0.479767M90.72 91.6354H-0.47998M90.72 91.6354V0.479767M-0.47998 91.6354V0.479767H90.72M364.32 0.479767H273.12M273.12 0.479767H181.92M181.92 0.479767H90.72" stroke="#151515"/>
<path d="M546.24 274.427H456V364.623H546.24V274.427ZM637.44 456.738H547.2V546.934H637.44V456.738ZM455.04 547.894H364.8V638.09H455.04V547.894Z" fill="#070707" fill-opacity="0.3"/>
</mask>
<g mask="url(#mask1_14152_169617)">
<path d="M360 1025.74C18.5556 1025.74 -258.24 764.975 -258.24 443.304C-258.24 121.633 18.5556 -139.132 360 -139.132C701.445 -139.132 978.24 121.633 978.24 443.304C978.24 764.975 701.445 1025.74 360 1025.74Z" fill="url(#paint2_radial_14152_169617)"/>
<path d="M532.8 576.68C401.842 576.68 295.68 478.946 295.68 358.386C295.68 237.825 401.842 140.092 532.8 140.092C663.758 140.092 769.92 237.825 769.92 358.386C769.92 478.946 663.758 576.68 532.8 576.68Z" fill="url(#paint3_radial_14152_169617)"/>
</g>
</g>
<defs>
<radialGradient id="paint0_radial_14152_169617" cx="0" cy="0" r="1" gradientUnits="userSpaceOnUse" gradientTransform="translate(1560 443.304) rotate(90) scale(582.437 618.24)">
<stop stop-color="white" stop-opacity="0.06"/>
<stop offset="1" stop-color="white" stop-opacity="0"/>
</radialGradient>
<radialGradient id="paint1_radial_14152_169617" cx="0" cy="0" r="1" gradientUnits="userSpaceOnUse" gradientTransform="translate(1387.2 358.386) rotate(90) scale(218.294 237.12)">
<stop stop-color="white" stop-opacity="0.06"/>
<stop offset="1" stop-opacity="0"/>
</radialGradient>
<radialGradient id="paint2_radial_14152_169617" cx="0" cy="0" r="1" gradientUnits="userSpaceOnUse" gradientTransform="translate(360 443.304) rotate(90) scale(582.437 618.24)">
<stop stop-color="white" stop-opacity="0.06"/>
<stop offset="1" stop-color="white" stop-opacity="0"/>
</radialGradient>
<radialGradient id="paint3_radial_14152_169617" cx="0" cy="0" r="1" gradientUnits="userSpaceOnUse" gradientTransform="translate(532.8 358.386) rotate(90) scale(218.294 237.12)">
<stop stop-color="white" stop-opacity="0.06"/>
<stop offset="1" stop-color="white" stop-opacity="0"/>
</radialGradient>
<clipPath id="clip0_14152_169617">
<rect width="1920" height="913.476" fill="white"/>
</clipPath>
</defs>
</svg>
