<svg width="1200" height="720" viewBox="0 0 1200 720" fill="none" xmlns="http://www.w3.org/2000/svg">
<g clip-path="url(#clip0_14152_169633)">
<mask id="mask0_14152_169633" style="mask-type:luminance" maskUnits="userSpaceOnUse" x="0" y="0" width="1200" height="720">
<path d="M0 0H1200V720H0V0Z" fill="white"/>
</mask>
<g mask="url(#mask0_14152_169633)">
<g opacity="0.9">
<path d="M245.814 99.865C246.155 100.342 245.423 100.803 244.665 100.589C244.521 100.554 244.393 100.473 244.299 100.358C243.946 99.881 244.691 99.419 245.448 99.634C245.592 99.6684 245.721 99.7502 245.814 99.865ZM853.494 72.238C853.836 72.715 853.101 73.176 852.342 72.962C852.197 72.9276 852.068 72.8464 851.975 72.731C851.633 72.254 852.367 71.793 853.127 72.007C853.271 72.0416 853.4 72.1234 853.494 72.238ZM722.31 117.775C722.651 118.252 721.919 118.713 721.161 118.499C721.017 118.464 720.889 118.383 720.795 118.268C720.442 117.791 721.187 117.33 721.944 117.544C722.088 117.579 722.216 117.66 722.31 117.775ZM544.136 336.578C544.49 337.055 543.745 337.516 542.987 337.301C542.843 337.267 542.714 337.186 542.621 337.071C542.28 336.594 543.012 336.132 543.77 336.347C543.934 336.395 544.06 336.474 544.136 336.578ZM654.019 348.827C654.372 349.303 653.627 349.771 652.87 349.549C652.726 349.514 652.598 349.434 652.504 349.319C652.163 348.843 652.895 348.383 653.653 348.597C653.797 348.632 653.925 348.713 654.019 348.827ZM668.176 238.912C668.517 239.389 667.784 239.85 667.027 239.635C666.883 239.601 666.754 239.52 666.66 239.405C666.307 238.928 667.052 238.466 667.81 238.681C667.974 238.729 668.1 238.808 668.176 238.912ZM1096.2 80.584C1096.54 81.061 1095.81 81.522 1095.05 81.307C1094.9 81.2729 1094.77 81.1921 1094.68 81.077C1094.34 80.6 1095.07 80.138 1095.83 80.353C1096 80.401 1096.12 80.481 1096.2 80.584ZM866.753 121.98C867.107 122.457 866.362 122.918 865.604 122.704C865.46 122.669 865.331 122.588 865.238 122.473C864.897 121.996 865.629 121.535 866.387 121.749C866.551 121.797 866.677 121.877 866.753 121.98ZM436.148 58.505C436.489 58.983 435.757 59.444 434.999 59.229C434.855 59.1944 434.727 59.1136 434.633 58.999C434.28 58.521 435.025 58.06 435.782 58.275C435.926 58.3093 436.055 58.3902 436.148 58.505Z" fill="white" fill-opacity="0.24"/>
<path d="M671.557 23.203C671.898 23.68 671.165 24.141 670.407 23.926C670.263 23.8914 670.135 23.8106 670.041 23.696C669.688 23.219 670.433 22.757 671.19 22.972C671.334 23.0063 671.463 23.0882 671.557 23.203Z" fill="white" fill-opacity="0.5"/>
<path d="M448.234 396.183C448.587 396.66 447.842 397.122 447.085 396.907C446.941 396.872 446.812 396.791 446.718 396.676C446.377 396.199 447.11 395.738 447.868 395.953C448.032 396 448.158 396.08 448.234 396.183Z" fill="white" fill-opacity="0.24"/>
<path d="M656.336 435.5C656.677 435.977 655.944 436.438 655.187 436.223C655.043 436.189 654.914 436.108 654.821 435.993C654.467 435.516 655.212 435.054 655.97 435.269C656.134 435.317 656.26 435.396 656.336 435.5ZM167.402 158.152C167.744 158.629 167.01 159.09 166.25 158.876C166.106 158.841 165.977 158.76 165.883 158.645C165.541 158.168 166.275 157.707 167.035 157.921C167.179 157.956 167.308 158.037 167.402 158.152Z" fill="white" fill-opacity="0.5"/>
<path d="M268.269 179.25C268.622 179.727 267.877 180.188 267.12 179.973C266.976 179.939 266.847 179.858 266.754 179.743C266.413 179.266 267.145 178.804 267.903 179.019C268.067 179.067 268.193 179.146 268.269 179.25ZM282.447 302.673C282.789 303.151 282.054 303.612 281.295 303.397C281.151 303.362 281.022 303.281 280.928 303.166C280.586 302.689 281.32 302.228 282.08 302.443C282.224 302.478 282.353 302.559 282.447 302.673ZM270.605 246.351C270.946 246.828 270.214 247.29 269.456 247.075C269.312 247.04 269.183 246.959 269.09 246.844C268.737 246.367 269.482 245.906 270.239 246.121C270.383 246.155 270.512 246.236 270.605 246.351Z" fill="white" fill-opacity="0.24"/>
<path d="M422.693 18.763C423.034 19.24 422.302 19.702 421.544 19.487C421.4 19.4523 421.272 19.3715 421.178 19.257C420.824 18.779 421.569 18.318 422.327 18.533C422.471 18.5673 422.6 18.6482 422.693 18.763Z" fill="white" fill-opacity="0.5"/>
<path d="M653.439 177.566C653.781 178.043 653.047 178.504 652.287 178.29C652.143 178.255 652.014 178.174 651.92 178.059C651.578 177.582 652.312 177.121 653.072 177.335C653.216 177.37 653.345 177.451 653.439 177.566Z" fill="white" fill-opacity="0.24"/>
<path d="M596.582 220.181C596.924 220.658 596.189 221.12 595.43 220.905C595.285 220.87 595.156 220.789 595.062 220.674C594.721 220.197 595.455 219.736 596.215 219.951C596.359 219.985 596.488 220.066 596.582 220.181ZM370.961 298.193C371.721 297.979 372.455 298.439 372.113 298.914C372.02 299.029 371.89 299.11 371.746 299.144C370.987 299.367 370.252 298.899 370.594 298.423C370.688 298.308 370.817 298.227 370.961 298.193Z" fill="white" fill-opacity="0.5"/>
<path d="M442.137 138.453C442.478 138.93 441.745 139.391 440.988 139.176C440.844 139.142 440.715 139.061 440.621 138.946C440.268 138.469 441.013 138.007 441.77 138.222C441.914 138.257 442.043 138.338 442.137 138.453ZM976.082 92.271C976.423 92.748 975.691 93.21 974.933 92.995C974.789 92.9606 974.66 92.8798 974.567 92.765C974.213 92.287 974.958 91.825 975.716 92.04C975.88 92.088 976.006 92.168 976.082 92.271Z" fill="white" fill-opacity="0.24"/>
<path d="M1096.2 43.3918C1096.54 43.8688 1095.81 44.3308 1095.05 44.1158C1094.9 44.0816 1094.77 44.0008 1094.68 43.8858C1094.34 43.4078 1095.07 42.9458 1095.83 43.1618C1095.97 43.1958 1096.1 43.2766 1096.2 43.3918Z" fill="white" fill-opacity="0.5"/>
<path d="M641.867 360.277C642.208 360.754 641.476 361.215 640.718 361.001C640.574 360.966 640.446 360.885 640.352 360.77C639.998 360.293 640.743 359.832 641.501 360.046C641.665 360.094 641.791 360.174 641.867 360.277ZM164.018 445.064C164.358 445.54 163.626 446 162.868 445.786C162.724 445.751 162.596 445.67 162.502 445.556C162.149 445.08 162.894 444.612 163.651 444.834C163.795 444.869 163.924 444.95 164.018 445.064ZM1111.42 433.375C1111.78 433.852 1111.03 434.313 1110.27 434.098C1110.11 434.051 1109.98 433.971 1109.91 433.868C1109.57 433.391 1110.3 432.929 1111.06 433.144C1111.22 433.192 1111.35 433.271 1111.42 433.375ZM853.675 155.548C854.017 156.026 853.283 156.487 852.523 156.272C852.379 156.237 852.25 156.156 852.156 156.042C851.814 155.564 852.549 155.103 853.308 155.318C853.452 155.352 853.581 155.433 853.675 155.548ZM955.912 420.271C956.253 420.747 955.521 421.207 954.763 420.993C954.619 420.958 954.491 420.877 954.397 420.763C954.043 420.287 954.788 419.819 955.546 420.041C955.69 420.076 955.818 420.157 955.912 420.271Z" fill="white" fill-opacity="0.24"/>
<path d="M243.804 404.525C244.158 405.002 243.413 405.463 242.655 405.249C242.511 405.214 242.383 405.133 242.289 405.018C241.948 404.541 242.68 404.08 243.438 404.294C243.602 404.342 243.728 404.422 243.804 404.525Z" fill="white" fill-opacity="0.5"/>
<path d="M1.60499 392.996C1.94699 393.473 1.21299 393.934 0.452989 393.719C0.308742 393.685 0.179787 393.604 0.0859892 393.489C-0.256011 393.012 0.477989 392.55 1.23799 392.765C1.38234 392.8 1.51129 392.881 1.60499 392.996ZM250.91 353.505C251.252 353.983 250.517 354.444 249.758 354.229C249.614 354.195 249.485 354.114 249.391 353.999C249.049 353.521 249.783 353.06 250.543 353.275C250.687 353.31 250.816 353.391 250.91 353.505ZM762.306 419.56C762.648 420.037 761.914 420.499 761.154 420.284C761.01 420.249 760.881 420.168 760.787 420.053C760.445 419.576 761.18 419.115 761.939 419.33C762.083 419.364 762.212 419.445 762.306 419.56ZM804.181 0.284998C804.535 0.761998 803.79 1.223 803.032 1.008C802.888 0.973594 802.759 0.892769 802.666 0.777998C802.325 0.300998 803.057 -0.161002 803.815 0.0539984C803.959 0.0888151 804.087 0.170563 804.181 0.284998ZM309.512 207.033C309.853 207.51 309.12 207.971 308.363 207.756C308.219 207.722 308.09 207.641 307.996 207.526C307.643 207.049 308.388 206.587 309.145 206.802C309.289 206.837 309.418 206.918 309.512 207.033ZM730.152 362.291C730.494 362.768 729.76 363.229 729 363.014C728.856 362.98 728.727 362.899 728.633 362.784C728.291 362.307 729.025 361.845 729.785 362.06C729.929 362.095 730.058 362.176 730.152 362.291ZM610.828 276.103C610.486 276.58 611.221 277.042 611.98 276.827C612.124 276.792 612.253 276.711 612.347 276.596C612.689 276.119 611.955 275.658 611.195 275.873C611.051 275.907 610.922 275.988 610.828 276.103ZM1150.51 57.207C1150.17 57.684 1150.9 58.145 1151.66 57.93C1151.8 57.8933 1151.93 57.813 1152.03 57.7C1152.37 57.223 1151.63 56.761 1150.87 56.976C1150.71 57.024 1150.58 57.104 1150.51 57.207ZM511.011 73.17C510.67 73.647 511.403 74.108 512.16 73.893C512.304 73.8587 512.433 73.7778 512.527 73.663C512.88 73.185 512.135 72.724 511.378 72.939C511.234 72.9734 511.105 73.0552 511.011 73.17ZM991.478 55.08C991.137 55.557 991.871 56.018 992.631 55.803C992.775 55.7684 992.904 55.6876 992.998 55.573C993.34 55.096 992.605 54.634 991.846 54.849C991.702 54.8834 991.572 54.9642 991.478 55.079V55.08ZM439.797 164.463C439.456 164.94 440.188 165.401 440.946 165.186C441.09 165.151 441.218 165.07 441.312 164.956C441.665 164.478 440.92 164.017 440.163 164.232C440.019 164.267 439.89 164.348 439.797 164.463ZM343.887 337.396C344.647 337.618 345.381 337.151 345.039 336.675C344.945 336.56 344.816 336.479 344.672 336.445C343.912 336.23 343.178 336.691 343.52 337.166C343.614 337.281 343.743 337.362 343.887 337.396ZM192.951 177.023C192.61 177.5 193.342 177.961 194.1 177.747C194.244 177.712 194.372 177.631 194.466 177.516C194.82 177.039 194.075 176.578 193.317 176.792C193.173 176.827 193.045 176.908 192.951 177.023ZM316.389 92.273C316.047 92.75 316.781 93.211 317.541 92.997C317.685 92.9624 317.814 92.8816 317.908 92.767C318.25 92.289 317.515 91.827 316.756 92.042C316.612 92.0767 316.483 92.1578 316.389 92.273ZM110.061 222.973C109.707 223.449 110.452 223.917 111.21 223.695C111.354 223.661 111.482 223.58 111.576 223.465C111.917 222.989 111.185 222.529 110.427 222.743C110.283 222.778 110.155 222.859 110.061 222.973Z" fill="white" fill-opacity="0.24"/>
<path d="M169.258 244.838C168.905 245.315 169.65 245.776 170.407 245.561C170.551 245.526 170.679 245.446 170.773 245.331C171.114 244.853 170.382 244.392 169.624 244.607C169.48 244.642 169.351 244.723 169.258 244.838Z" fill="white" fill-opacity="0.5"/>
<path d="M465.605 220.687C465.264 221.164 465.997 221.626 466.754 221.411C466.898 221.376 467.027 221.295 467.12 221.18C467.474 220.703 466.729 220.242 465.971 220.457C465.827 220.491 465.698 220.572 465.605 220.687ZM39 334.552C38.659 335.029 39.391 335.491 40.149 335.276C40.293 335.241 40.4217 335.16 40.515 335.045C40.868 334.568 40.123 334.107 39.365 334.322C39.2214 334.357 39.0932 334.437 39 334.552ZM355.818 236.884C355.477 237.362 356.209 237.823 356.967 237.608C357.111 237.573 357.24 237.492 357.333 237.377C357.687 236.9 356.942 236.439 356.184 236.654C356.04 236.688 355.911 236.769 355.818 236.884ZM856.137 441.877C855.795 442.354 856.529 442.815 857.289 442.6C857.433 442.566 857.562 442.485 857.656 442.37C857.998 441.892 857.263 441.431 856.504 441.646C856.36 441.681 856.231 441.762 856.137 441.877ZM767.062 380.246C766.721 380.723 767.454 381.184 768.211 380.969C768.355 380.935 768.484 380.854 768.577 380.739C768.931 380.262 768.186 379.8 767.428 380.015C767.284 380.05 767.155 380.131 767.062 380.246ZM926.648 379.947C926.306 380.424 927.041 380.885 927.8 380.671C927.945 380.636 928.074 380.555 928.168 380.44C928.51 379.963 927.775 379.502 927.016 379.716C926.871 379.751 926.742 379.832 926.648 379.947ZM648.933 69.111C648.592 69.588 649.326 70.049 650.086 69.835C650.23 69.8001 650.359 69.719 650.453 69.604C650.795 69.127 650.06 68.666 649.301 68.88C649.156 68.9147 649.027 68.9958 648.933 69.111ZM937.342 43.392C937 43.869 937.734 44.331 938.494 44.116C938.638 44.0814 938.767 44.0006 938.861 43.886C939.203 43.408 938.469 42.946 937.709 43.162C937.565 43.1963 937.436 43.2772 937.342 43.392Z" fill="white" fill-opacity="0.24"/>
<path d="M1052.38 12.578C1052.04 13.055 1052.78 13.516 1053.54 13.301C1053.7 13.254 1053.83 13.174 1053.9 13.071C1054.25 12.594 1053.51 12.132 1052.75 12.347C1052.61 12.3837 1052.48 12.4641 1052.38 12.577V12.578ZM849.371 38.08C849.029 38.557 849.763 39.018 850.523 38.803C850.667 38.7687 850.796 38.6878 850.89 38.573C851.232 38.096 850.498 37.634 849.738 37.849C849.594 37.8836 849.465 37.9644 849.371 38.079V38.08Z" fill="white" fill-opacity="0.5"/>
<path d="M918.734 0.886002C918.393 1.363 919.126 1.825 919.883 1.61C920.027 1.5756 920.156 1.49477 920.249 1.38C920.603 0.902002 919.858 0.441002 919.1 0.656002C918.956 0.690613 918.828 0.7714 918.734 0.886002ZM455.181 364.306C454.84 364.783 455.573 365.245 456.33 365.03C456.474 364.995 456.603 364.914 456.697 364.799C457.05 364.322 456.305 363.861 455.547 364.076C455.403 364.11 455.274 364.191 455.181 364.306ZM348.341 157.351C348.001 157.828 348.733 158.29 349.491 158.075C349.635 158.04 349.764 157.959 349.857 157.844C350.21 157.367 349.465 156.906 348.708 157.121C348.564 157.155 348.435 157.236 348.341 157.351ZM911.79 200.658C912.144 201.135 911.399 201.596 910.641 201.381C910.497 201.347 910.369 201.266 910.275 201.151C909.934 200.674 910.667 200.212 911.424 200.427C911.568 200.462 911.697 200.543 911.79 200.658ZM1198.24 124.152C1198.59 124.629 1197.85 125.09 1197.09 124.876C1196.95 124.839 1196.82 124.758 1196.72 124.645C1196.38 124.168 1197.12 123.707 1197.87 123.921C1198.04 123.969 1198.16 124.049 1198.24 124.152Z" fill="white" fill-opacity="0.24"/>
<path d="M832.81 302.673C833.163 303.151 832.418 303.612 831.661 303.397C831.517 303.362 831.389 303.282 831.295 303.167C830.954 302.689 831.686 302.228 832.444 302.443C832.588 302.478 832.716 302.559 832.81 302.673ZM791.396 129.209C791.749 129.686 791.004 130.147 790.247 129.932C790.103 129.898 789.974 129.817 789.881 129.702C789.54 129.225 790.272 128.763 791.03 128.978C791.194 129.026 791.32 129.105 791.396 129.209Z" fill="white" fill-opacity="0.5"/>
<path d="M824.326 160.254C824.667 160.731 823.935 161.192 823.177 160.977C823.033 160.942 822.905 160.861 822.811 160.747C822.457 160.269 823.202 159.808 823.96 160.023C824.124 160.071 824.25 160.15 824.326 160.254ZM1132.3 285.205C1132.64 285.681 1131.91 286.141 1131.15 285.927C1130.99 285.879 1130.86 285.8 1130.79 285.697C1130.43 285.221 1131.18 284.753 1131.93 284.975C1132.08 285.009 1132.21 285.09 1132.3 285.205ZM1015.7 91.754C1016.04 92.231 1015.3 92.692 1014.55 92.477C1014.4 92.4429 1014.27 92.3621 1014.18 92.247C1013.83 91.769 1014.57 91.308 1015.33 91.523C1015.49 91.571 1015.62 91.651 1015.7 91.754ZM730.771 239.5C731.112 239.977 730.38 240.438 729.622 240.223C729.478 240.189 729.349 240.108 729.256 239.993C728.903 239.516 729.648 239.054 730.405 239.269C730.549 239.304 730.678 239.385 730.771 239.5ZM799.101 271.185C799.454 271.662 798.709 272.124 797.952 271.909C797.808 271.874 797.679 271.793 797.586 271.678C797.245 271.201 797.977 270.74 798.735 270.955C798.899 271.002 799.025 271.082 799.101 271.185Z" fill="white" fill-opacity="0.24"/>
<path d="M933.289 278.052C932.936 278.53 933.681 278.991 934.438 278.776C934.582 278.741 934.711 278.66 934.805 278.545C935.146 278.068 934.413 277.607 933.656 277.822C933.512 277.856 933.383 277.937 933.289 278.052Z" fill="white" fill-opacity="0.5"/>
<path d="M749.799 291.586C749.457 292.063 750.191 292.524 750.951 292.309C751.095 292.275 751.224 292.194 751.318 292.079C751.66 291.601 750.926 291.14 750.166 291.355C750.022 291.39 749.893 291.471 749.799 291.586ZM1066.46 141.149C1066.11 141.625 1066.85 142.093 1067.61 141.871C1067.75 141.834 1067.88 141.754 1067.98 141.641C1068.32 141.165 1067.59 140.705 1066.83 140.919C1066.68 140.953 1066.55 141.034 1066.46 141.149ZM861.75 235.724C861.409 236.201 862.141 236.663 862.899 236.448C863.043 236.413 863.172 236.332 863.265 236.217C863.619 235.74 862.874 235.279 862.116 235.494C861.972 235.528 861.843 235.609 861.75 235.724ZM960.58 212.498C960.227 212.975 960.972 213.436 961.729 213.221C961.873 213.187 962.002 213.106 962.096 212.991C962.437 212.514 961.704 212.052 960.947 212.267C960.803 212.302 960.674 212.383 960.58 212.498ZM773.242 216.599C772.901 217.075 773.633 217.535 774.391 217.321C774.535 217.287 774.664 217.206 774.757 217.091C775.111 216.615 774.366 216.147 773.608 216.369C773.464 216.404 773.336 216.485 773.242 216.599ZM1091.42 103.408C1091.08 103.885 1091.82 104.346 1092.58 104.131C1092.74 104.084 1092.87 104.004 1092.94 103.901C1093.28 103.424 1092.55 102.962 1091.79 103.177C1091.65 103.214 1091.52 103.295 1091.42 103.408ZM385.823 194.283C385.469 194.76 386.214 195.221 386.972 195.006C387.116 194.972 387.245 194.891 387.338 194.776C387.679 194.299 386.946 193.837 386.189 194.052C386.045 194.087 385.916 194.168 385.823 194.283ZM732.637 39.14C732.283 39.617 733.028 40.079 733.786 39.864C733.93 39.8297 734.059 39.7488 734.152 39.634C734.493 39.156 733.761 38.694 733.003 38.91C732.859 38.9446 732.731 39.0254 732.637 39.14Z" fill="white" fill-opacity="0.24"/>
<path d="M568.537 44.455C568.184 44.932 568.929 45.393 569.686 45.178C569.83 45.1436 569.959 45.0628 570.053 44.948C570.394 44.471 569.661 44.009 568.904 44.224C568.76 44.2583 568.631 44.3392 568.537 44.454V44.455Z" fill="white" fill-opacity="0.5"/>
<path d="M725.873 78.459C725.52 78.936 726.265 79.397 727.022 79.182C727.166 79.1476 727.295 79.0668 727.389 78.952C727.73 78.475 726.997 78.013 726.24 78.228C726.096 78.2623 725.967 78.3442 725.873 78.459ZM528.207 163.306C527.854 163.783 528.599 164.245 529.356 164.03C529.5 163.995 529.629 163.914 529.723 163.799C530.064 163.322 529.331 162.861 528.574 163.076C528.43 163.11 528.301 163.191 528.207 163.306ZM723.971 165.519C723.617 165.996 724.362 166.458 725.12 166.243C725.264 166.208 725.393 166.127 725.486 166.012C725.827 165.535 725.095 165.074 724.337 165.289C724.193 165.323 724.064 165.404 723.971 165.519ZM610.035 101.418C609.693 101.895 610.428 102.356 611.187 102.141C611.331 102.107 611.46 102.026 611.554 101.911C611.896 101.433 611.162 100.972 610.402 101.187C610.258 101.222 610.129 101.303 610.035 101.418Z" fill="white" fill-opacity="0.24"/>
<path d="M1172.33 314.363C1172.67 314.84 1171.94 315.301 1171.18 315.087C1171.02 315.039 1170.89 314.959 1170.82 314.856C1170.46 314.379 1171.21 313.918 1171.97 314.132C1172.13 314.18 1172.26 314.26 1172.33 314.363Z" fill="white" fill-opacity="0.5"/>
<path d="M1011.78 364.332C1011.44 364.809 1012.17 365.27 1012.93 365.055C1013.08 365.021 1013.21 364.94 1013.3 364.825C1013.65 364.348 1012.91 363.886 1012.15 364.101C1012 364.135 1011.87 364.216 1011.78 364.332ZM1149.71 360.271C1149.37 360.748 1150.1 361.209 1150.86 360.995C1151 360.958 1151.13 360.877 1151.23 360.764C1151.57 360.287 1150.83 359.826 1150.07 360.04C1149.91 360.088 1149.78 360.168 1149.71 360.271Z" fill="white" fill-opacity="0.24"/>
<path d="M1069.31 335.615C1068.96 336.092 1069.7 336.553 1070.46 336.339C1070.62 336.291 1070.75 336.211 1070.82 336.108C1071.17 335.631 1070.43 335.17 1069.68 335.384C1069.51 335.432 1069.38 335.511 1069.31 335.615ZM1071 180.588C1070.64 181.065 1071.39 181.526 1072.15 181.311C1072.31 181.263 1072.44 181.184 1072.51 181.081C1072.85 180.603 1072.12 180.142 1071.36 180.357C1071.2 180.405 1071.07 180.484 1071 180.588Z" fill="white" fill-opacity="0.5"/>
<path d="M1110.81 392.578C1110.47 393.055 1111.2 393.516 1111.96 393.301C1112.1 393.267 1112.23 393.186 1112.33 393.071C1112.67 392.594 1111.94 392.132 1111.18 392.347C1111.01 392.395 1110.88 392.474 1110.81 392.578Z" fill="white" fill-opacity="0.24"/>
<path d="M337.199 120.396C336.857 120.873 337.592 121.334 338.351 121.12C338.495 121.085 338.624 121.004 338.718 120.889C339.06 120.412 338.326 119.951 337.566 120.165C337.422 120.2 337.293 120.281 337.199 120.396Z" fill="white" fill-opacity="0.5"/>
<path d="M140.504 371.744C140.162 372.221 140.896 372.682 141.656 372.467C141.8 372.433 141.929 372.352 142.023 372.237C142.365 371.76 141.631 371.298 140.871 371.513C140.727 371.548 140.598 371.629 140.504 371.744ZM551.254 424.892C550.913 425.368 551.645 425.828 552.403 425.614C552.547 425.579 552.675 425.498 552.769 425.384C553.122 424.908 552.377 424.44 551.62 424.662C551.476 424.697 551.348 424.777 551.254 424.892ZM369.627 444.609C369.285 445.086 370.019 445.547 370.779 445.333C370.923 445.298 371.052 445.217 371.146 445.102C371.488 444.625 370.754 444.164 369.994 444.378C369.85 444.413 369.721 444.494 369.627 444.609ZM368.907 402.558C368.553 403.035 369.298 403.497 370.056 403.282C370.2 403.247 370.329 403.166 370.422 403.051C370.763 402.574 370.03 402.113 369.273 402.328C369.129 402.362 369 402.443 368.907 402.558ZM649.742 395.121C649.389 395.598 650.134 396.059 650.892 395.844C651.036 395.81 651.165 395.729 651.258 395.614C651.599 395.137 650.866 394.675 650.109 394.89C649.965 394.925 649.836 395.006 649.742 395.121ZM214.945 300.548C214.603 301.026 215.338 301.487 216.097 301.272C216.242 301.237 216.371 301.156 216.465 301.041C216.806 300.564 216.072 300.103 215.312 300.318C215.168 300.353 215.039 300.434 214.945 300.548ZM126.496 313.896C126.155 314.373 126.887 314.834 127.645 314.62C127.789 314.585 127.918 314.504 128.011 314.389C128.365 313.912 127.62 313.451 126.862 313.665C126.718 313.7 126.59 313.781 126.496 313.896Z" fill="white" fill-opacity="0.24"/>
</g>
<g opacity="0.9">
<path d="M245.814 561.207C246.155 561.684 245.423 562.145 244.665 561.93C244.521 561.895 244.392 561.815 244.299 561.7C243.946 561.223 244.691 560.761 245.448 560.976C245.592 561.01 245.721 561.092 245.814 561.207ZM853.494 533.58C853.836 534.057 853.101 534.518 852.342 534.303C852.198 534.269 852.068 534.188 851.975 534.073C851.633 533.596 852.367 533.134 853.127 533.349C853.271 533.384 853.4 533.465 853.494 533.58ZM722.31 579.117C722.651 579.594 721.919 580.055 721.161 579.84C721.017 579.805 720.888 579.725 720.795 579.61C720.442 579.133 721.187 578.671 721.944 578.886C722.088 578.92 722.217 579.002 722.31 579.117ZM668.176 700.254C668.517 700.731 667.784 701.192 667.027 700.977C666.883 700.942 666.754 700.862 666.66 700.747C666.307 700.269 667.052 699.808 667.81 700.023C667.974 700.071 668.1 700.15 668.176 700.254ZM1096.2 541.925C1096.54 542.403 1095.81 542.864 1095.05 542.649C1094.9 542.615 1094.77 542.533 1094.68 542.418C1094.34 541.941 1095.07 541.48 1095.83 541.695C1096 541.743 1096.12 541.822 1096.2 541.925ZM866.753 583.322C867.107 583.799 866.362 584.26 865.604 584.046C865.46 584.011 865.332 583.93 865.238 583.815C864.897 583.338 865.629 582.877 866.387 583.091C866.551 583.139 866.677 583.219 866.753 583.322ZM436.148 519.847C436.489 520.324 435.757 520.786 434.999 520.571C434.855 520.536 434.726 520.455 434.633 520.34C434.28 519.863 435.025 519.402 435.782 519.617C435.926 519.651 436.055 519.732 436.148 519.847Z" fill="white" fill-opacity="0.24"/>
<path d="M671.557 484.545C671.898 485.022 671.165 485.483 670.407 485.268C670.263 485.233 670.135 485.152 670.041 485.038C669.688 484.56 670.433 484.099 671.19 484.314C671.334 484.348 671.463 484.43 671.557 484.545ZM167.402 619.494C167.744 619.971 167.01 620.432 166.25 620.217C166.106 620.183 165.977 620.102 165.883 619.987C165.541 619.51 166.275 619.048 167.035 619.263C167.179 619.298 167.308 619.379 167.402 619.494Z" fill="white" fill-opacity="0.5"/>
<path d="M268.269 640.591C268.622 641.069 267.877 641.53 267.12 641.315C266.976 641.28 266.847 641.199 266.754 641.084C266.413 640.607 267.145 640.146 267.903 640.361C268.047 640.396 268.175 640.476 268.269 640.591ZM270.605 707.693C270.946 708.17 270.214 708.631 269.456 708.417C269.312 708.382 269.184 708.301 269.09 708.186C268.737 707.709 269.482 707.248 270.239 707.462C270.383 707.497 270.512 707.578 270.605 707.693Z" fill="white" fill-opacity="0.24"/>
<path d="M422.693 480.105C423.034 480.582 422.302 481.043 421.544 480.829C421.4 480.794 421.271 480.713 421.178 480.598C420.824 480.121 421.569 479.66 422.327 479.874C422.471 479.909 422.599 479.99 422.693 480.105Z" fill="white" fill-opacity="0.5"/>
<path d="M653.439 638.908C653.781 639.385 653.047 639.846 652.287 639.631C652.143 639.597 652.014 639.516 651.92 639.401C651.578 638.924 652.312 638.462 653.072 638.677C653.216 638.712 653.345 638.793 653.439 638.908Z" fill="white" fill-opacity="0.24"/>
<path d="M596.582 681.523C596.924 682 596.189 682.461 595.43 682.247C595.285 682.212 595.156 682.131 595.062 682.016C594.721 681.539 595.455 681.078 596.215 681.292C596.359 681.327 596.488 681.408 596.582 681.523Z" fill="white" fill-opacity="0.5"/>
<path d="M442.137 599.795C442.478 600.272 441.745 600.733 440.988 600.518C440.844 600.483 440.715 600.403 440.621 600.288C440.268 599.81 441.013 599.349 441.77 599.564C441.914 599.599 442.043 599.68 442.137 599.795ZM976.082 553.613C976.423 554.09 975.691 554.551 974.933 554.337C974.789 554.302 974.66 554.221 974.567 554.106C974.213 553.629 974.958 553.168 975.716 553.382C975.88 553.43 976.006 553.51 976.082 553.613Z" fill="white" fill-opacity="0.24"/>
<path d="M1096.2 504.734C1096.54 505.211 1095.81 505.672 1095.05 505.458C1094.9 505.423 1094.77 505.342 1094.68 505.227C1094.34 504.75 1095.07 504.289 1095.83 504.503C1096 504.551 1096.12 504.631 1096.2 504.734Z" fill="white" fill-opacity="0.5"/>
<path d="M853.675 616.89C854.017 617.367 853.283 617.829 852.523 617.614C852.379 617.579 852.25 617.498 852.156 617.383C851.814 616.906 852.549 616.445 853.308 616.66C853.452 616.694 853.581 616.775 853.675 616.89ZM804.181 461.627C804.535 462.104 803.79 462.565 803.032 462.35C802.888 462.316 802.759 462.235 802.666 462.12C802.325 461.642 803.057 461.181 803.815 461.396C803.979 461.444 804.105 461.523 804.181 461.627ZM309.512 668.375C309.853 668.852 309.12 669.313 308.363 669.098C308.219 669.064 308.09 668.983 307.996 668.868C307.643 668.391 308.388 667.929 309.145 668.144C309.289 668.179 309.418 668.26 309.512 668.375ZM1150.51 518.548C1150.17 519.026 1150.9 519.487 1151.66 519.272C1151.8 519.235 1151.93 519.155 1152.03 519.042C1152.37 518.564 1151.63 518.103 1150.87 518.318C1150.71 518.366 1150.58 518.445 1150.51 518.548ZM511.011 534.511C510.67 534.988 511.403 535.45 512.16 535.235C512.304 535.2 512.433 535.119 512.527 535.004C512.88 534.527 512.135 534.066 511.378 534.281C511.234 534.315 511.105 534.396 511.011 534.511ZM991.478 516.421C991.137 516.899 991.871 517.36 992.631 517.145C992.775 517.11 992.904 517.029 992.998 516.915C993.34 516.437 992.605 515.976 991.846 516.191C991.702 516.226 991.572 516.306 991.478 516.421ZM439.797 625.804C439.456 626.281 440.188 626.743 440.946 626.528C441.09 626.493 441.219 626.412 441.312 626.297C441.665 625.82 440.92 625.359 440.163 625.574C440.019 625.608 439.89 625.689 439.797 625.804ZM192.951 638.365C192.61 638.842 193.342 639.303 194.1 639.089C194.244 639.054 194.372 638.973 194.466 638.858C194.82 638.381 194.075 637.92 193.317 638.134C193.173 638.169 193.044 638.25 192.951 638.365ZM316.389 553.615C316.047 554.092 316.781 554.553 317.541 554.339C317.685 554.304 317.814 554.223 317.908 554.108C318.25 553.631 317.515 553.17 316.756 553.384C316.612 553.418 316.483 553.5 316.389 553.615ZM110.061 684.315C109.707 684.791 110.452 685.259 111.21 685.037C111.354 685.002 111.482 684.921 111.576 684.807C111.917 684.331 111.185 683.871 110.427 684.085C110.283 684.12 110.155 684.201 110.061 684.315Z" fill="white" fill-opacity="0.24"/>
<path d="M169.258 706.179C168.905 706.656 169.65 707.118 170.407 706.903C170.551 706.868 170.68 706.787 170.773 706.672C171.114 706.195 170.382 705.734 169.624 705.949C169.48 705.983 169.351 706.064 169.258 706.179Z" fill="white" fill-opacity="0.5"/>
<path d="M465.605 682.029C465.264 682.506 465.997 682.967 466.754 682.753C466.898 682.718 467.026 682.637 467.12 682.522C467.474 682.045 466.729 681.584 465.971 681.798C465.827 681.833 465.699 681.914 465.605 682.029ZM355.818 698.226C355.477 698.703 356.209 699.165 356.967 698.95C357.111 698.915 357.24 698.834 357.333 698.719C357.687 698.242 356.942 697.781 356.184 697.996C356.04 698.03 355.911 698.111 355.818 698.226ZM648.933 530.453C648.592 530.93 649.326 531.391 650.086 531.176C650.23 531.142 650.359 531.061 650.453 530.946C650.795 530.469 650.06 530.007 649.301 530.222C649.156 530.257 649.027 530.338 648.933 530.453ZM937.342 504.734C937 505.211 937.734 505.672 938.494 505.458C938.638 505.423 938.767 505.342 938.861 505.227C939.203 504.75 938.469 504.289 937.709 504.503C937.565 504.538 937.436 504.619 937.342 504.734Z" fill="white" fill-opacity="0.24"/>
<path d="M1052.38 473.92C1052.04 474.397 1052.78 474.858 1053.54 474.643C1053.7 474.595 1053.83 474.516 1053.9 474.413C1054.25 473.935 1053.51 473.474 1052.75 473.689C1052.61 473.726 1052.48 473.807 1052.38 473.92ZM849.371 499.422C849.029 499.899 849.763 500.36 850.523 500.145C850.667 500.11 850.796 500.03 850.89 499.915C851.232 499.437 850.498 498.976 849.738 499.191C849.594 499.226 849.465 499.307 849.371 499.422Z" fill="white" fill-opacity="0.5"/>
<path d="M918.734 462.228C918.393 462.705 919.126 463.167 919.883 462.952C920.027 462.917 920.156 462.836 920.249 462.721C920.603 462.244 919.858 461.783 919.1 461.998C918.956 462.032 918.827 462.113 918.734 462.228ZM348.341 618.693C348.001 619.17 348.733 619.631 349.491 619.417C349.635 619.382 349.763 619.301 349.857 619.186C350.21 618.709 349.465 618.248 348.708 618.462C348.564 618.497 348.435 618.578 348.341 618.693ZM911.79 662C912.144 662.477 911.399 662.938 910.641 662.723C910.497 662.689 910.369 662.608 910.275 662.493C909.934 662.016 910.667 661.554 911.424 661.769C911.568 661.803 911.697 661.885 911.79 662ZM1198.24 585.494C1198.59 585.971 1197.85 586.432 1197.09 586.217C1196.95 586.18 1196.82 586.1 1196.72 585.987C1196.38 585.51 1197.12 585.048 1197.87 585.263C1198.02 585.297 1198.15 585.378 1198.24 585.494Z" fill="white" fill-opacity="0.24"/>
<path d="M791.396 590.55C791.749 591.028 791.004 591.489 790.247 591.274C790.103 591.239 789.974 591.158 789.881 591.043C789.54 590.566 790.272 590.105 791.03 590.32C791.174 590.355 791.302 590.435 791.396 590.55Z" fill="white" fill-opacity="0.5"/>
<path d="M824.326 621.595C824.667 622.072 823.935 622.534 823.177 622.319C823.033 622.284 822.904 622.203 822.811 622.088C822.457 621.611 823.202 621.15 823.96 621.365C824.124 621.412 824.25 621.492 824.326 621.595ZM1015.7 553.095C1016.04 553.572 1015.3 554.034 1014.55 553.819C1014.4 553.785 1014.27 553.704 1014.18 553.588C1013.83 553.111 1014.57 552.65 1015.33 552.865C1015.49 552.912 1015.62 552.992 1015.7 553.095ZM730.771 700.841C731.112 701.319 730.38 701.78 729.622 701.565C729.478 701.53 729.349 701.449 729.256 701.334C728.903 700.857 729.648 700.396 730.405 700.611C730.549 700.646 730.677 700.726 730.771 700.841ZM1066.46 602.491C1066.11 602.967 1066.85 603.435 1067.61 603.213C1067.75 603.176 1067.88 603.096 1067.98 602.983C1068.32 602.507 1067.59 602.047 1066.83 602.261C1066.68 602.295 1066.55 602.376 1066.46 602.491ZM861.75 697.066C861.409 697.543 862.141 698.004 862.899 697.79C863.043 697.755 863.171 697.674 863.265 697.559C863.619 697.082 862.874 696.621 862.116 696.835C861.972 696.87 861.843 696.951 861.75 697.066ZM960.58 673.839C960.227 674.317 960.972 674.778 961.729 674.563C961.873 674.528 962.002 674.448 962.096 674.333C962.437 673.855 961.704 673.394 960.947 673.609C960.803 673.644 960.674 673.724 960.58 673.839ZM773.242 677.941C772.901 678.417 773.633 678.877 774.391 678.663C774.535 678.628 774.663 678.547 774.757 678.433C775.111 677.957 774.366 677.489 773.608 677.711C773.464 677.746 773.336 677.827 773.242 677.941ZM1091.42 564.75C1091.08 565.227 1091.82 565.688 1092.58 565.473C1092.74 565.426 1092.87 565.346 1092.94 565.243C1093.28 564.766 1092.55 564.304 1091.79 564.519C1091.65 564.556 1091.52 564.637 1091.42 564.75ZM385.823 655.625C385.469 656.102 386.214 656.563 386.972 656.348C387.116 656.314 387.245 656.233 387.338 656.118C387.679 655.641 386.946 655.179 386.189 655.394C386.045 655.429 385.916 655.51 385.823 655.625ZM732.637 500.482C732.283 500.959 733.028 501.42 733.786 501.206C733.93 501.171 734.059 501.09 734.152 500.975C734.493 500.498 733.761 500.037 733.003 500.251C732.859 500.286 732.731 500.367 732.637 500.482Z" fill="white" fill-opacity="0.24"/>
<path d="M568.537 505.797C568.184 506.274 568.929 506.735 569.686 506.52C569.83 506.485 569.959 506.405 570.053 506.29C570.394 505.812 569.661 505.351 568.904 505.566C568.76 505.601 568.631 505.682 568.537 505.797Z" fill="white" fill-opacity="0.5"/>
<path d="M725.873 539.8C725.52 540.278 726.265 540.739 727.022 540.524C727.166 540.489 727.295 540.408 727.389 540.293C727.73 539.816 726.997 539.355 726.24 539.57C726.096 539.605 725.967 539.685 725.873 539.8ZM528.207 624.648C527.854 625.125 528.599 625.586 529.356 625.372C529.5 625.337 529.629 625.256 529.723 625.141C530.064 624.664 529.331 624.203 528.574 624.417C528.43 624.452 528.301 624.533 528.207 624.648ZM723.971 626.861C723.617 627.338 724.362 627.799 725.12 627.585C725.264 627.55 725.392 627.469 725.486 627.354C725.827 626.877 725.095 626.416 724.337 626.63C724.193 626.665 724.065 626.746 723.971 626.861ZM610.035 562.759C609.693 563.237 610.428 563.698 611.187 563.483C611.331 563.448 611.46 563.367 611.554 563.252C611.896 562.775 611.162 562.314 610.402 562.529C610.258 562.563 610.129 562.644 610.035 562.759Z" fill="white" fill-opacity="0.24"/>
<path d="M1071 641.929C1070.64 642.406 1071.39 642.868 1072.15 642.653C1072.31 642.605 1072.44 642.526 1072.51 642.422C1072.85 641.945 1072.12 641.484 1071.36 641.699C1071.2 641.746 1071.07 641.826 1071 641.929ZM337.199 581.738C336.857 582.215 337.592 582.676 338.351 582.462C338.495 582.427 338.624 582.346 338.718 582.231C339.06 581.754 338.326 581.293 337.566 581.507C337.422 581.542 337.293 581.623 337.199 581.738Z" fill="white" fill-opacity="0.5"/>
</g>
</g>
</g>
<defs>
<clipPath id="clip0_14152_169633">
<rect width="1200" height="720" fill="white"/>
</clipPath>
</defs>
</svg>
