<svg width="528" height="517" viewBox="0 0 528 517" fill="none" xmlns="http://www.w3.org/2000/svg">
<g clip-path="url(#clip0_14204_43823)">
<g clip-path="url(#clip1_14204_43823)">
<path d="M522.136 162.989L244.955 2.95976C242.124 1.32513 239.829 2.65026 239.829 5.91952V230.426C239.829 233.695 242.124 237.671 244.955 239.305L522.136 399.335C524.967 400.969 527.262 399.644 527.262 396.375V171.868C527.262 168.599 524.967 164.624 522.136 162.989Z" fill="#74BFFF"/>
<path d="M522.135 163.2L244.955 3.1707C242.225 1.59445 240.012 2.87226 240.012 6.02476V230.531C240.012 233.684 242.225 237.517 244.955 239.093L522.135 399.123C524.866 400.699 527.079 399.421 527.079 396.269V171.762C527.079 168.61 524.866 164.776 522.135 163.2Z" stroke="white" stroke-opacity="0.14" stroke-width="0.578"/>
<path d="M252.27 25.5667C253.884 26.4984 255.192 25.7431 255.192 23.8798C255.192 22.0165 253.884 19.7508 252.27 18.8191C250.657 17.8875 249.349 18.6427 249.349 20.506C249.349 22.3693 250.657 24.6351 252.27 25.5667Z" fill="white" fill-opacity="0.4"/>
<path d="M261.043 30.6326C262.657 31.5643 263.965 30.809 263.965 28.9457C263.965 27.0824 262.657 24.8167 261.043 23.885C259.43 22.9534 258.122 23.7086 258.122 25.5719C258.122 27.4352 259.43 29.701 261.043 30.6326Z" fill="white" fill-opacity="0.4"/>
<path d="M269.817 35.6978C271.431 36.6295 272.739 35.8742 272.739 34.0109C272.739 32.1476 271.431 29.8819 269.817 28.9502C268.203 28.0186 266.895 28.7738 266.895 30.6371C266.895 32.5004 268.203 34.7662 269.817 35.6978Z" fill="white" fill-opacity="0.4"/>
<path d="M509.38 167.455L232.199 7.42558C229.368 5.79095 227.073 7.11608 227.073 10.3853V234.892C227.073 238.161 229.368 242.136 232.199 243.771L509.38 403.8C512.211 405.435 514.506 404.11 514.506 400.841V176.334C514.506 173.065 512.211 169.09 509.38 167.455Z" fill="#74BFFF"/>
<path d="M227.438 10.596C227.438 7.32681 229.733 6.00202 232.564 7.63625L509.378 167.456C512.209 169.09 514.504 173.065 514.504 176.335V200.434L227.438 34.6954V10.596Z" fill="#8CCAFF"/>
<mask id="mask0_14204_43823" style="mask-type:luminance" maskUnits="userSpaceOnUse" x="227" y="6" width="288" height="195">
<path d="M227.438 10.596C227.438 7.32681 229.733 6.00202 232.564 7.63625L509.378 167.456C512.209 169.09 514.504 173.065 514.504 176.335V200.434L227.438 34.6954V10.596Z" fill="white"/>
</mask>
<g mask="url(#mask0_14204_43823)">
<path d="M514.504 200.856L227.438 35.1183V34.2726L514.504 200.01V200.856Z" fill="white" fill-opacity="0.34"/>
</g>
<path d="M239.514 30.0328C241.128 30.9644 242.436 30.2092 242.436 28.3459C242.436 26.4826 241.128 24.2168 239.514 23.2852C237.9 22.3535 236.592 23.1088 236.592 24.9721C236.592 26.8354 237.9 29.1011 239.514 30.0328Z" fill="white" fill-opacity="0.4"/>
<path d="M248.287 35.0978C249.901 36.0295 251.209 35.2742 251.209 33.4109C251.209 31.5476 249.901 29.2819 248.287 28.3502C246.673 27.4186 245.365 28.1738 245.365 30.0371C245.365 31.9004 246.673 34.1662 248.287 35.0978Z" fill="white" fill-opacity="0.4"/>
<path d="M257.061 40.163C258.675 41.0947 259.983 40.3394 259.983 38.4761C259.983 36.6128 258.675 34.3471 257.061 33.4154C255.447 32.4838 254.139 33.239 254.139 35.1023C254.139 36.9656 255.447 39.2314 257.061 40.163Z" fill="white" fill-opacity="0.4"/>
<path d="M228.667 6.69776L241.321 2.47921C242.401 2.11929 243.583 2.2363 244.571 2.80094L285.433 26.1513L523.98 164.56L511.543 170.3L228.667 6.69776Z" fill="#77BCF7"/>
<path d="M526.851 168.386L523.662 164.559L511.862 169.662V404.382L527.489 398.96L526.851 168.386Z" fill="#74BFFF"/>
</g>
<path d="M433.271 197.18L430.082 193.352L418.282 198.456V433.175L433.909 427.753L433.271 197.18Z" fill="#FFB3A3"/>
<path d="M427.7 191.783L150.52 31.7536C147.689 30.119 145.394 31.4441 145.394 34.7133V259.22C145.394 262.489 147.689 266.464 150.52 268.099L427.7 428.128C430.532 429.763 432.827 428.438 432.827 425.169V200.662C432.827 197.393 430.532 193.418 427.7 191.783Z" fill="#FFB3A3"/>
<path d="M427.7 191.993L150.52 31.9639C147.79 30.3877 145.577 31.6655 145.577 34.818V259.324C145.577 262.477 147.79 266.31 150.52 267.887L427.7 427.916C430.431 429.492 432.644 428.214 432.644 425.062V200.555C432.644 197.403 430.431 193.569 427.7 191.993Z" stroke="white" stroke-opacity="0.14" stroke-width="0.578"/>
<path d="M414.945 196.247L137.764 36.2182C134.933 34.5836 132.638 35.9087 132.638 39.1779V263.684C132.638 266.954 134.933 270.929 137.764 272.564L414.945 432.593C417.776 434.228 420.071 432.902 420.071 429.633V205.127C420.071 201.857 417.776 197.882 414.945 196.247Z" fill="#FFB3A3"/>
<path d="M133.003 39.3892C133.003 36.12 135.298 34.7952 138.129 36.4295L414.943 196.248C417.774 197.883 420.069 201.858 420.069 205.127V229.226L133.003 63.4886V39.3892Z" fill="#FFC2B5"/>
<mask id="mask1_14204_43823" style="mask-type:luminance" maskUnits="userSpaceOnUse" x="133" y="35" width="288" height="195">
<path d="M133.003 39.3892C133.003 36.12 135.298 34.7952 138.129 36.4295L414.943 196.248C417.774 197.883 420.069 201.858 420.069 205.127V229.226L133.003 63.4886V39.3892Z" fill="white"/>
</mask>
<g mask="url(#mask1_14204_43823)">
<path d="M420.069 229.649L133.003 63.9115V63.0658L420.069 228.803V229.649Z" fill="white" fill-opacity="0.34"/>
</g>
<path d="M145.08 58.8251C146.693 59.7568 148.001 59.0015 148.001 57.1382C148.001 55.2749 146.693 53.0092 145.08 52.0775C143.466 51.1459 142.158 51.9011 142.158 53.7644C142.158 55.6277 143.466 57.8935 145.08 58.8251Z" fill="white" fill-opacity="0.4"/>
<path d="M153.853 63.8911C155.467 64.8227 156.775 64.0674 156.775 62.2041C156.775 60.3408 155.467 58.0751 153.853 57.1434C152.239 56.2118 150.931 56.967 150.931 58.8303C150.931 60.6936 152.239 62.9594 153.853 63.8911Z" fill="white" fill-opacity="0.4"/>
<path d="M162.626 68.9562C164.24 69.8879 165.548 69.1326 165.548 67.2693C165.548 65.406 164.24 63.1403 162.626 62.2086C161.012 61.277 159.704 62.0322 159.704 63.8955C159.704 65.7588 161.012 68.0246 162.626 68.9562Z" fill="white" fill-opacity="0.4"/>
<path d="M134.232 35.4918L146.887 31.2733C147.966 30.9134 149.148 31.0304 150.136 31.595L190.999 54.9453L429.545 193.353L417.108 199.093L134.232 35.4918Z" fill="#FFA694"/>
<path d="M361.381 233.555L84.2007 73.5259C81.3694 71.8913 79.0742 73.2164 79.0742 76.4857V300.992C79.0742 304.261 81.3694 308.237 84.2007 309.871L361.381 469.9C364.212 471.535 366.507 470.21 366.507 466.941V242.434C366.507 239.165 364.212 235.19 361.381 233.555Z" fill="#C78FFF"/>
<path d="M361.382 233.766L84.2012 73.7371C81.471 72.1609 79.2578 73.4387 79.2578 76.5912V301.097C79.2578 304.25 81.471 308.083 84.2012 309.66L361.382 469.689C364.112 471.265 366.325 469.987 366.325 466.835V242.328C366.325 239.176 364.112 235.343 361.382 233.766Z" stroke="white" stroke-opacity="0.14" stroke-width="0.578"/>
<path d="M91.5165 96.134C93.1302 97.0656 94.4384 96.3104 94.4384 94.4471C94.4384 92.5838 93.1302 90.318 91.5165 89.3864C89.9029 88.4547 88.5947 89.21 88.5947 91.0733C88.5947 92.9366 89.9029 95.2023 91.5165 96.134Z" fill="white" fill-opacity="0.4"/>
<path d="M100.289 101.199C101.903 102.131 103.211 101.375 103.211 99.5121C103.211 97.6488 101.903 95.3831 100.289 94.4514C98.6758 93.5198 97.3677 94.275 97.3677 96.1383C97.3677 98.0016 98.6758 100.267 100.289 101.199Z" fill="white" fill-opacity="0.4"/>
<path d="M109.063 106.264C110.677 107.196 111.985 106.44 111.985 104.577C111.985 102.714 110.677 100.448 109.063 99.5165C107.449 98.5848 106.141 99.3401 106.141 101.203C106.141 103.067 107.449 105.332 109.063 106.264Z" fill="white" fill-opacity="0.4"/>
<path d="M348.626 238.02L71.4453 77.9914C68.6141 76.3567 66.3188 77.6819 66.3188 80.9511V305.458C66.3188 308.727 68.6141 312.702 71.4453 314.337L348.626 474.366C351.457 476.001 353.752 474.675 353.752 471.406V246.9C353.752 243.631 351.457 239.655 348.626 238.02Z" fill="#C78FFF"/>
<path d="M66.6846 81.1624C66.6846 77.8932 68.9794 76.5684 71.8104 78.2027L348.624 238.021C351.455 239.656 353.751 243.631 353.751 246.9V271L66.6846 105.262V81.1624Z" fill="#CF9EFF"/>
<mask id="mask2_14204_43823" style="mask-type:luminance" maskUnits="userSpaceOnUse" x="66" y="77" width="288" height="194">
<path d="M66.6846 81.1624C66.6846 77.8932 68.9794 76.5684 71.8104 78.2027L348.624 238.021C351.455 239.656 353.751 243.631 353.751 246.9V271L66.6846 105.262V81.1624Z" fill="white"/>
</mask>
<g mask="url(#mask2_14204_43823)">
<path d="M353.751 271.422L66.6846 105.685V104.839L353.751 270.577V271.422Z" fill="white" fill-opacity="0.34"/>
</g>
<path d="M78.7607 100.598C80.3744 101.53 81.6825 100.775 81.6825 98.9114C81.6825 97.0481 80.3744 94.7824 78.7607 93.8507C77.147 92.9191 75.8389 93.6743 75.8389 95.5376C75.8389 97.4009 77.147 99.6667 78.7607 100.598Z" fill="white" fill-opacity="0.4"/>
<path d="M87.5341 105.663C89.1478 106.595 90.4559 105.84 90.4559 103.976C90.4559 102.113 89.1478 99.8474 87.5341 98.9158C85.9204 97.9841 84.6123 98.7394 84.6123 100.603C84.6123 102.466 85.9204 104.732 87.5341 105.663Z" fill="white" fill-opacity="0.4"/>
<path d="M96.3071 110.729C97.9207 111.661 99.2289 110.906 99.2289 109.042C99.2289 107.179 97.9207 104.913 96.3071 103.982C94.6934 103.05 93.3853 103.805 93.3853 105.669C93.3853 107.532 94.6934 109.798 96.3071 110.729Z" fill="white" fill-opacity="0.4"/>
<path d="M67.9136 77.2642L80.568 73.0456C81.6476 72.6857 82.8294 72.8027 83.8176 73.3673L124.68 96.7177L363.227 235.125L350.789 240.866L67.9136 77.2642Z" fill="#C78FFF"/>
<path d="M366.098 238.952L362.909 235.125L351.109 240.228V474.947L366.736 469.526L366.098 238.952Z" fill="#C78FFF"/>
<path d="M295.063 272.802L17.8828 112.773C15.0516 111.139 12.7563 112.464 12.7563 115.733V340.239C12.7563 343.509 15.0516 347.484 17.8828 349.119L295.063 509.148C297.894 510.783 300.19 509.457 300.19 506.188V281.682C300.19 278.412 297.894 274.437 295.063 272.802Z" fill="#A1AEE5"/>
<path d="M295.063 273.013L17.8824 112.984C15.1522 111.408 12.939 112.686 12.939 115.838V340.345C12.939 343.497 15.1522 347.331 17.8824 348.907L295.063 508.936C297.793 510.512 300.006 509.234 300.006 506.082V281.576C300.006 278.423 297.793 274.59 295.063 273.013Z" stroke="white" stroke-opacity="0.14" stroke-width="0.578"/>
<path d="M282.307 277.267L5.12648 117.238C2.2952 115.603 0 116.928 0 120.197V344.704C0 347.973 2.2952 351.948 5.12648 353.583L282.307 513.612C285.138 515.247 287.433 513.922 287.433 510.653V286.146C287.433 282.877 285.138 278.901 282.307 277.267Z" fill="#7A7ABA"/>
<path d="M0.366699 120.409C0.366699 117.14 2.6615 115.815 5.49251 117.449L282.306 277.268C285.137 278.902 287.433 282.877 287.433 286.147V310.246L0.366699 144.508V120.409Z" fill="#9B9BD8"/>
<mask id="mask3_14204_43823" style="mask-type:luminance" maskUnits="userSpaceOnUse" x="0" y="116" width="288" height="195">
<path d="M0.366699 120.409C0.366699 117.14 2.6615 115.815 5.49251 117.449L282.306 277.268C285.137 278.902 287.433 282.877 287.433 286.147V310.246L0.366699 144.508V120.409Z" fill="white"/>
</mask>
<g mask="url(#mask3_14204_43823)">
<path d="M287.433 310.669L0.366699 144.931V144.086L287.433 309.823V310.669Z" fill="white" fill-opacity="0.34"/>
</g>
<path d="M12.4418 139.846C14.0555 140.777 15.3637 140.022 15.3637 138.159C15.3637 136.295 14.0555 134.03 12.4418 133.098C10.8282 132.166 9.52002 132.922 9.52002 134.785C9.52002 136.648 10.8282 138.914 12.4418 139.846Z" fill="white" fill-opacity="0.4"/>
<path d="M21.2153 144.91C22.8289 145.842 24.1371 145.087 24.1371 143.224C24.1371 141.36 22.8289 139.095 21.2153 138.163C19.6016 137.231 18.2935 137.986 18.2935 139.85C18.2935 141.713 19.6016 143.979 21.2153 144.91Z" fill="white" fill-opacity="0.4"/>
<path d="M29.9882 149.976C31.6019 150.907 32.91 150.152 32.91 148.289C32.91 146.425 31.6019 144.16 29.9882 143.228C28.3745 142.296 27.0664 143.052 27.0664 144.915C27.0664 146.778 28.3745 149.044 29.9882 149.976Z" fill="white" fill-opacity="0.4"/>
<path d="M1.59473 116.511L14.2491 112.292C15.3288 111.932 16.5106 112.049 17.4987 112.614L58.3613 135.964L296.908 274.372L284.471 280.113L1.59473 116.511Z" fill="#7D7DBD"/>
<path d="M299.778 278.198L296.589 274.372L284.79 279.474V514.194L300.416 508.773L299.778 278.198Z" fill="#7A7ABA"/>
</g>
<defs>
<clipPath id="clip0_14204_43823">
<rect width="528" height="516.893" fill="white"/>
</clipPath>
<clipPath id="clip1_14204_43823">
<rect width="328.942" height="426.74" fill="white" transform="translate(198.547)"/>
</clipPath>
</defs>
</svg>
