<svg width="22" height="22" viewBox="0 0 22 22" fill="none" xmlns="http://www.w3.org/2000/svg">
<g id="Key">
<path id="Vector" d="M13.75 1.375C12.6649 1.37597 11.5954 1.63357 10.6288 2.12675C9.66222 2.61993 8.82599 3.33471 8.18837 4.21274C7.55076 5.09078 7.12984 6.10716 6.95998 7.1789C6.79012 8.25065 6.87614 9.34737 7.21102 10.3795L2.26359 15.3261C2.19977 15.39 2.14916 15.4658 2.11466 15.5493C2.08015 15.6327 2.06243 15.7222 2.0625 15.8125V19.25C2.0625 19.4323 2.13493 19.6072 2.26386 19.7361C2.3928 19.8651 2.56766 19.9375 2.75 19.9375H6.1875C6.36984 19.9375 6.5447 19.8651 6.67364 19.7361C6.80257 19.6072 6.875 19.4323 6.875 19.25V17.875H8.25C8.43234 17.875 8.6072 17.8026 8.73614 17.6736C8.86507 17.5447 8.9375 17.3698 8.9375 17.1875V15.8125H10.3125C10.4028 15.8126 10.4922 15.7948 10.5757 15.7603C10.6592 15.7258 10.735 15.6752 10.7989 15.6114L11.6205 14.789C12.5654 15.0958 13.5655 15.1941 14.5521 15.0773C15.5387 14.9604 16.4882 14.6312 17.3353 14.1121C18.1824 13.5931 18.9069 12.8967 19.459 12.0708C20.0111 11.2449 20.3777 10.3091 20.5335 9.32794C20.6892 8.34677 20.6305 7.34349 20.3613 6.3872C20.0921 5.43091 19.6189 4.54431 18.9742 3.78846C18.3295 3.03261 17.5286 2.42546 16.6268 2.00881C15.7249 1.59217 14.7435 1.37594 13.75 1.375ZM13.75 13.75C13.054 13.7512 12.3643 13.6196 11.7176 13.3624C11.5911 13.3075 11.451 13.2919 11.3155 13.3177C11.18 13.3434 11.0554 13.4093 10.9579 13.5068L10.028 14.4375H8.25C8.06766 14.4375 7.89279 14.5099 7.76386 14.6389C7.63493 14.7678 7.5625 14.9427 7.5625 15.125V16.5H6.1875C6.00516 16.5 5.8303 16.5724 5.70136 16.7014C5.57243 16.8303 5.5 17.0052 5.5 17.1875V18.5625H3.4375V16.097L8.4932 11.0421C8.59068 10.9446 8.65658 10.82 8.68232 10.6845C8.70807 10.549 8.69248 10.4089 8.63758 10.2824C8.20281 9.18917 8.13008 7.9853 8.43006 6.84766C8.73004 5.71001 9.38693 4.69854 10.3042 3.96181C11.2215 3.22508 12.3509 2.80191 13.5265 2.75447C14.7021 2.70703 15.8619 3.03782 16.8356 3.69824C17.8093 4.35866 18.5455 5.31391 18.9362 6.42368C19.3269 7.53346 19.3514 8.73927 19.0061 9.864C18.6609 10.9887 17.964 11.9731 17.018 12.6726C16.0719 13.372 14.9265 13.7496 13.75 13.75ZM16.5 6.53125C16.5 6.73521 16.4395 6.93459 16.3262 7.10418C16.2129 7.27377 16.0518 7.40595 15.8634 7.484C15.675 7.56205 15.4676 7.58248 15.2676 7.54268C15.0675 7.50289 14.8838 7.40468 14.7395 7.26045C14.5953 7.11623 14.4971 6.93248 14.4573 6.73244C14.4175 6.53239 14.4379 6.32504 14.516 6.13661C14.5941 5.94817 14.7262 5.78711 14.8958 5.6738C15.0654 5.56048 15.2648 5.5 15.4687 5.5C15.7423 5.5 16.0046 5.60865 16.198 5.80205C16.3913 5.99544 16.5 6.25775 16.5 6.53125Z" fill="#15B79F"/>
</g>
</svg>
