<svg width="227" height="36" viewBox="0 0 227 36" fill="none" xmlns="http://www.w3.org/2000/svg">
<g id="Group 1">
<g id="LEVEL UP!">
<path id="Vector" d="M221.052 1.17042L224.146 23.4179L216.987 24.6842L212.261 2.72555L221.052 1.17042ZM222.433 34.6003C221.219 34.815 220.102 34.5754 219.084 33.8814C218.074 33.175 217.466 32.2087 217.26 30.9824C217.038 29.7911 217.281 28.6958 217.99 27.6963C218.708 26.6949 219.675 26.0868 220.889 25.8721C222.04 25.6684 223.13 25.9127 224.159 26.6049C225.199 27.2952 225.829 28.236 226.051 29.4272C226.185 30.2454 226.102 31.0264 225.801 31.7702C225.51 32.5018 225.07 33.1247 224.481 33.639C223.89 34.1429 223.207 34.4633 222.433 34.6003Z" fill="url(#paint0_linear_781_5794)"/>
<path id="Vector_2" d="M184.217 34.3435V1.69434H198.31C200.733 1.69434 202.853 2.1726 204.671 3.12911C206.488 4.08563 207.902 5.43007 208.911 7.16243C209.921 8.89479 210.426 10.9194 210.426 13.2363C210.426 15.5745 209.905 17.5991 208.864 19.3102C207.833 21.0213 206.382 22.3392 204.511 23.2638C202.652 24.1884 200.478 24.6508 197.991 24.6508H189.574V17.7638H196.206C197.247 17.7638 198.135 17.5832 198.868 17.2218C199.612 16.8498 200.18 16.3237 200.574 15.6435C200.978 14.9634 201.18 14.1609 201.18 13.2363C201.18 12.3011 200.978 11.504 200.574 10.845C200.18 10.1755 199.612 9.66532 198.868 9.31459C198.135 8.95324 197.247 8.77257 196.206 8.77257H193.081V34.3435H184.217Z" fill="url(#paint1_linear_781_5794)"/>
<path id="Vector_3" d="M171.293 1.74659L180.156 1.82835L179.963 22.7433C179.94 25.2301 179.325 27.3767 178.118 29.1831C176.922 30.9789 175.262 32.3612 173.138 33.33C171.014 34.2882 168.555 34.7545 165.76 34.7287C162.943 34.7027 160.482 34.1911 158.376 33.1939C156.271 32.186 154.636 30.7733 153.473 28.9557C152.321 27.1276 151.756 24.9702 151.779 22.4833L151.972 1.56836L160.836 1.65012L160.65 21.7999C160.64 22.8095 160.855 23.7149 161.294 24.5161C161.733 25.3066 162.344 25.9287 163.126 26.3823C163.919 26.836 164.821 27.0676 165.83 27.0769C166.85 27.0863 167.756 26.8714 168.546 26.4323C169.337 25.9932 169.959 25.3825 170.413 24.6002C170.866 23.8073 171.098 22.906 171.107 21.8964L171.293 1.74659Z" fill="url(#paint2_linear_781_5794)"/>
<path id="Vector_4" d="M116.229 34.3435V1.69434H125.093V27.2015H138.293V34.3435H116.229Z" fill="url(#paint3_linear_781_5794)"/>
<path id="Vector_5" d="M87.8456 33.1871L90.8608 0.677536L114.291 2.85066L113.631 9.96213L99.0271 8.60761L98.5088 14.1952L111.906 15.4378L111.247 22.5493L97.8493 21.3067L97.331 26.8943L111.871 28.2429L111.212 35.3544L87.8456 33.1871Z" fill="url(#paint4_linear_781_5794)"/>
<path id="Vector_6" d="M61.2273 2.28534L69.7275 24.702L69.9817 24.6818L74.8307 1.20313L84.8107 0.409174L76.6571 33.8101L64.5793 34.771L51.2473 3.0793L61.2273 2.28534Z" fill="url(#paint5_linear_781_5794)"/>
<path id="Vector_7" d="M26.2427 34.7569L25.0659 2.129L48.5809 1.28085L48.8384 8.41821L34.1813 8.94686L34.3836 14.5548L47.8299 14.0698L48.0873 21.2072L34.641 21.6921L34.8433 27.3001L49.4366 26.7737L49.6941 33.9111L26.2427 34.7569Z" fill="url(#paint6_linear_781_5794)"/>
<path id="Vector_8" d="M0 34.3435V1.69434H8.86373V27.2015H22.0637V34.3435H0Z" fill="url(#paint7_linear_781_5794)"/>
</g>
</g>
<defs>
<linearGradient id="paint0_linear_781_5794" x1="216.656" y1="1.94801" x2="222.433" y2="34.6003" gradientUnits="userSpaceOnUse">
<stop stop-color="#15B79F"/>
<stop offset="1" stop-color="#0E9382"/>
</linearGradient>
<linearGradient id="paint1_linear_781_5794" x1="197.322" y1="1.69434" x2="197.322" y2="34.3435" gradientUnits="userSpaceOnUse">
<stop stop-color="#15B79F"/>
<stop offset="1" stop-color="#0E9382"/>
</linearGradient>
<linearGradient id="paint2_linear_781_5794" x1="166.064" y1="1.69835" x2="165.76" y2="34.7287" gradientUnits="userSpaceOnUse">
<stop stop-color="#15B79F"/>
<stop offset="1" stop-color="#0E9382"/>
</linearGradient>
<linearGradient id="paint3_linear_781_5794" x1="127.261" y1="1.69434" x2="127.261" y2="34.3435" gradientUnits="userSpaceOnUse">
<stop stop-color="#15B79F"/>
<stop offset="1" stop-color="#0E9382"/>
</linearGradient>
<linearGradient id="paint4_linear_781_5794" x1="102.576" y1="1.7641" x2="99.5604" y2="34.2737" gradientUnits="userSpaceOnUse">
<stop stop-color="#15B79F"/>
<stop offset="1" stop-color="#0E9382"/>
</linearGradient>
<linearGradient id="paint5_linear_781_5794" x1="68.029" y1="1.74424" x2="70.6182" y2="34.2905" gradientUnits="userSpaceOnUse">
<stop stop-color="#15B79F"/>
<stop offset="1" stop-color="#0E9382"/>
</linearGradient>
<linearGradient id="paint6_linear_781_5794" x1="36.8234" y1="1.70492" x2="38.0003" y2="34.3328" gradientUnits="userSpaceOnUse">
<stop stop-color="#15B79F"/>
<stop offset="1" stop-color="#0E9382"/>
</linearGradient>
<linearGradient id="paint7_linear_781_5794" x1="11.0318" y1="1.69434" x2="11.0318" y2="34.3435" gradientUnits="userSpaceOnUse">
<stop stop-color="#15B79F"/>
<stop offset="1" stop-color="#0E9382"/>
</linearGradient>
</defs>
</svg>
