<svg width="184" height="61" viewBox="0 0 184 61" fill="none" xmlns="http://www.w3.org/2000/svg">
<path fill-rule="evenodd" clip-rule="evenodd" d="M20.2858 11.8995C23.3569 10.6889 26.8829 12.0522 28.3929 15.0042C28.5763 15.3627 29.0155 15.5046 29.3739 15.3213C29.7324 15.1379 29.8743 14.6987 29.691 14.3403C27.846 10.7333 23.5339 9.05189 19.7511 10.5431C17.4704 11.4422 15.7375 13.3507 15.0621 15.7073L14.9984 15.9294C14.8875 16.3165 15.1113 16.7202 15.4984 16.8311C15.8854 16.942 16.2891 16.7182 16.4 16.3311L16.4637 16.109C17.0142 14.1881 18.4267 12.6324 20.2858 11.8995Z" fill="url(#paint0_linear_289_5932)"/>
<path fill-rule="evenodd" clip-rule="evenodd" d="M13.6872 23.2859C13.5028 22.928 13.0632 22.7873 12.7053 22.9717C11.853 23.4108 11.2651 24.3574 10.8676 25.3603C10.4571 26.3961 10.1898 27.6436 10.0711 28.8893C9.95228 30.1355 9.97862 31.4167 10.1787 32.5234C10.3727 33.5971 10.7549 34.6456 11.465 35.2682C11.7677 35.5337 12.2283 35.5034 12.4937 35.2007C12.7592 34.898 12.729 34.4374 12.4262 34.172C12.0971 33.8834 11.7909 33.246 11.6134 32.2641C11.4419 31.3153 11.4135 30.1713 11.5225 29.0276C11.6316 27.8834 11.8748 26.7763 12.2231 25.8975C12.5844 24.9859 13.0037 24.4581 13.373 24.2678C13.7309 24.0834 13.8716 23.6438 13.6872 23.2859Z" fill="url(#paint1_linear_289_5932)"/>
<path fill-rule="evenodd" clip-rule="evenodd" d="M16.4282 16.1303C16.4282 15.7277 16.1018 15.4013 15.6992 15.4013C15.2461 15.4013 14.8601 15.6048 14.5611 15.8488C14.2606 16.094 13.9974 16.4197 13.7701 16.7703C13.3147 17.4729 12.9333 18.3855 12.6631 19.2942C12.3929 20.2032 12.2185 21.1605 12.2078 21.964C12.2024 22.3634 12.2368 22.7619 12.3426 23.1099C12.4456 23.4488 12.6492 23.8414 13.0571 24.0618C13.4114 24.2532 13.8537 24.1211 14.045 23.7669C14.2304 23.4238 14.1123 22.998 13.7828 22.7977C13.7736 22.7823 13.7567 22.7486 13.7376 22.6858C13.6918 22.5354 13.6614 22.3018 13.6657 21.9835C13.6741 21.3518 13.8162 20.5321 14.0607 19.7097C14.3053 18.8871 14.6369 18.1138 14.9936 17.5634C15.1724 17.2874 15.3401 17.0949 15.4828 16.9785C15.6271 16.8608 15.6967 16.8593 15.6992 16.8593C16.1018 16.8593 16.4282 16.5329 16.4282 16.1303Z" fill="url(#paint2_linear_289_5932)"/>
<path fill-rule="evenodd" clip-rule="evenodd" d="M15.1457 15.6558C14.8837 15.9615 14.9191 16.4218 15.2248 16.6838L17.9811 19.0463H20.8023C21.2049 19.0463 21.5313 18.7199 21.5313 18.3173C21.5313 17.9147 21.2049 17.5883 20.8023 17.5883H18.5204L16.1736 15.5768C15.8679 15.3147 15.4077 15.3502 15.1457 15.6558Z" fill="url(#paint3_linear_289_5932)"/>
<path fill-rule="evenodd" clip-rule="evenodd" d="M12.8064 23.0023C12.5755 23.3322 12.6557 23.7867 12.9856 24.0176L16.8189 26.701H21.0582C21.4609 26.701 21.7873 26.3746 21.7873 25.9719C21.7873 25.5693 21.4609 25.2429 21.0582 25.2429H17.2785L13.8217 22.8232C13.4918 22.5923 13.0373 22.6725 12.8064 23.0023Z" fill="url(#paint4_linear_289_5932)"/>
<path fill-rule="evenodd" clip-rule="evenodd" d="M17.9824 32.0776C17.7309 31.7632 17.2722 31.7123 16.9578 31.9638L15.2738 33.311L11.8026 34.0052C11.4078 34.0842 11.1518 34.4683 11.2307 34.8631C11.3097 35.2579 11.6938 35.5139 12.0886 35.4349L15.9076 34.6711L17.8686 33.1023C18.183 32.8508 18.234 32.392 17.9824 32.0776Z" fill="url(#paint5_linear_289_5932)"/>
<path fill-rule="evenodd" clip-rule="evenodd" d="M11.5893 33.998C11.1906 34.0534 10.9122 34.4216 10.9676 34.8204C12.1342 43.2201 17.8014 50.0317 25.6953 53.0562C26.4152 53.332 27.189 53.6378 28.0369 53.9846C28.4096 54.1371 28.8352 53.9586 28.9877 53.5859C29.1401 53.2133 28.9616 52.7876 28.589 52.6351C27.7311 52.2842 26.9472 51.9745 26.217 51.6947C18.7938 48.8505 13.5016 42.4671 12.4117 34.6198C12.3563 34.221 11.9881 33.9426 11.5893 33.998Z" fill="url(#paint6_linear_289_5932)"/>
<path fill-rule="evenodd" clip-rule="evenodd" d="M29.0409 13.9432C28.6383 13.9438 28.3124 14.2707 28.3129 14.6733L28.348 39.1875L26.9125 40.9167H20.8286L20.28 39.5005C20.1346 39.125 19.7123 38.9386 19.3369 39.084C18.9614 39.2295 18.775 39.6517 18.9204 40.0272L19.8298 42.3747H27.5971L29.8068 39.7129L29.771 14.6712C29.7704 14.2686 29.4435 13.9427 29.0409 13.9432Z" fill="url(#paint7_linear_289_5932)"/>
<path d="M20.8023 17.9528C20.8023 18.9594 21.6183 19.7753 22.6248 19.7753C23.6314 19.7753 24.4473 18.9594 24.4473 17.9528C24.4473 16.9463 23.6314 16.1303 22.6248 16.1303C21.6183 16.1303 20.8023 16.9463 20.8023 17.9528Z" fill="url(#paint8_linear_289_5932)"/>
<path d="M21.0582 25.9719C21.0582 26.9785 21.8742 27.7945 22.8808 27.7945C23.8873 27.7945 24.7033 26.9785 24.7033 25.9719C24.7033 24.9654 23.8873 24.1494 22.8808 24.1494C21.8742 24.1494 21.0582 24.9654 21.0582 25.9719Z" fill="url(#paint9_linear_289_5932)"/>
<path d="M16.6842 31.075C16.6842 32.0816 17.5001 32.8976 18.5067 32.8976C19.5133 32.8976 20.3292 32.0816 20.3292 31.075C20.3292 30.0685 19.5133 29.2525 18.5067 29.2525C17.5001 29.2525 16.6842 30.0685 16.6842 31.075Z" fill="url(#paint10_linear_289_5932)"/>
<path d="M17.4132 38.3651C17.4132 39.3717 18.2292 40.1877 19.2357 40.1877C20.2423 40.1877 21.0582 39.3717 21.0582 38.3651C21.0582 37.3586 20.2423 36.5426 19.2357 36.5426C18.2292 36.5426 17.4132 37.3586 17.4132 38.3651Z" fill="url(#paint11_linear_289_5932)"/>
<path fill-rule="evenodd" clip-rule="evenodd" d="M30.643 50.408C30.2481 50.329 29.8641 50.5851 29.7851 50.9799L29.4871 52.47C29.472 52.5456 29.4348 52.6151 29.3803 52.6696C29.2757 52.7742 29.1209 52.8108 28.9805 52.764L28.5435 52.6183C28.1615 52.491 27.7487 52.6974 27.6213 53.0793C27.494 53.4613 27.7004 53.8742 28.0824 54.0015L28.5195 54.1472C29.1837 54.3686 29.9161 54.1957 30.4113 53.7006C30.6693 53.4425 30.8452 53.1138 30.9168 52.7559L31.2148 51.2658C31.2938 50.871 31.0378 50.487 30.643 50.408Z" fill="url(#paint12_linear_289_5932)"/>
<path fill-rule="evenodd" clip-rule="evenodd" d="M40.7142 11.8995C37.6431 10.6889 34.1171 12.0522 32.6071 15.0042C32.4237 15.3627 31.9845 15.5046 31.6261 15.3213C31.2676 15.1379 31.1257 14.6987 31.309 14.3403C33.154 10.7333 37.4661 9.05189 41.2489 10.5431C43.5296 11.4422 45.2625 13.3507 45.9379 15.7073L46.0016 15.9294C46.1125 16.3165 45.8887 16.7202 45.5017 16.8311C45.1146 16.942 44.7109 16.7182 44.6 16.3311L44.5363 16.109C43.9858 14.1881 42.5733 12.6324 40.7142 11.8995Z" fill="url(#paint13_linear_289_5932)"/>
<path fill-rule="evenodd" clip-rule="evenodd" d="M47.3128 23.2859C47.4972 22.928 47.9368 22.7873 48.2947 22.9717C49.147 23.4108 49.7349 24.3574 50.1324 25.3603C50.5429 26.3961 50.8102 27.6436 50.9289 28.8893C51.0477 30.1355 51.0214 31.4167 50.8213 32.5234C50.6273 33.5971 50.2451 34.6456 49.535 35.2682C49.2323 35.5337 48.7717 35.5034 48.5063 35.2007C48.2408 34.898 48.271 34.4374 48.5738 34.172C48.9029 33.8834 49.2091 33.246 49.3866 32.2641C49.5581 31.3153 49.5865 30.1713 49.4775 29.0276C49.3684 27.8834 49.1252 26.7763 48.7769 25.8975C48.4156 24.9859 47.9963 24.4581 47.627 24.2678C47.2691 24.0834 47.1284 23.6438 47.3128 23.2859Z" fill="url(#paint14_linear_289_5932)"/>
<path fill-rule="evenodd" clip-rule="evenodd" d="M44.5718 16.1303C44.5718 15.7277 44.8982 15.4013 45.3008 15.4013C45.7539 15.4013 46.1399 15.6048 46.4389 15.8488C46.7394 16.094 47.0026 16.4197 47.2299 16.7703C47.6853 17.4729 48.0667 18.3855 48.3369 19.2942C48.6071 20.2032 48.7815 21.1605 48.7922 21.964C48.7976 22.3634 48.7632 22.7619 48.6574 23.1099C48.5544 23.4488 48.3508 23.8414 47.9429 24.0618C47.5886 24.2532 47.1463 24.1211 46.955 23.7669C46.7696 23.4238 46.8877 22.998 47.2172 22.7977C47.2264 22.7823 47.2433 22.7486 47.2624 22.6858C47.3082 22.5354 47.3386 22.3018 47.3343 21.9835C47.3259 21.3518 47.1838 20.5321 46.9393 19.7097C46.6947 18.8871 46.3631 18.1138 46.0064 17.5634C45.8276 17.2874 45.6599 17.0949 45.5172 16.9785C45.3729 16.8608 45.3033 16.8593 45.3008 16.8593C44.8982 16.8593 44.5718 16.5329 44.5718 16.1303Z" fill="url(#paint15_linear_289_5932)"/>
<path fill-rule="evenodd" clip-rule="evenodd" d="M45.8543 15.6558C46.1163 15.9615 46.0809 16.4218 45.7752 16.6838L43.0189 19.0463H40.1977C39.7951 19.0463 39.4687 18.7199 39.4687 18.3173C39.4687 17.9147 39.7951 17.5883 40.1977 17.5883H42.4796L44.8264 15.5768C45.1321 15.3147 45.5923 15.3502 45.8543 15.6558Z" fill="url(#paint16_linear_289_5932)"/>
<path fill-rule="evenodd" clip-rule="evenodd" d="M48.1936 23.0023C48.4245 23.3322 48.3443 23.7867 48.0144 24.0176L44.1811 26.701H39.9418C39.5391 26.701 39.2127 26.3746 39.2127 25.9719C39.2127 25.5693 39.5391 25.2429 39.9418 25.2429H43.7215L47.1783 22.8232C47.5082 22.5923 47.9627 22.6725 48.1936 23.0023Z" fill="url(#paint17_linear_289_5932)"/>
<path fill-rule="evenodd" clip-rule="evenodd" d="M43.0176 32.0776C43.2691 31.7632 43.7278 31.7123 44.0422 31.9638L45.7262 33.311L49.1974 34.0052C49.5922 34.0842 49.8482 34.4683 49.7693 34.8631C49.6903 35.2579 49.3062 35.5139 48.9114 35.4349L45.0924 34.6711L43.1314 33.1023C42.817 32.8508 42.766 32.392 43.0176 32.0776Z" fill="url(#paint18_linear_289_5932)"/>
<path fill-rule="evenodd" clip-rule="evenodd" d="M49.4107 33.998C49.8095 34.0534 50.0878 34.4216 50.0324 34.8204C48.8658 43.2201 43.1986 50.0317 35.3047 53.0562C34.5848 53.332 33.811 53.6378 32.9631 53.9846C32.5904 54.1371 32.1648 53.9586 32.0123 53.5859C31.8599 53.2133 32.0384 52.7876 32.411 52.6351C33.2689 52.2842 34.0528 51.9745 34.783 51.6947C42.2062 48.8505 47.4984 42.4671 48.5883 34.6198C48.6437 34.221 49.0119 33.9426 49.4107 33.998Z" fill="url(#paint19_linear_289_5932)"/>
<path fill-rule="evenodd" clip-rule="evenodd" d="M31.9591 13.9432C32.3617 13.9438 32.6876 14.2707 32.6871 14.6733L32.652 39.1875L34.0875 40.9167H40.1714L40.72 39.5005C40.8654 39.125 41.2877 38.9386 41.6631 39.084C42.0386 39.2295 42.225 39.6517 42.0796 40.0272L41.1702 42.3747H33.4029L31.1932 39.7129L31.229 14.6712C31.2296 14.2686 31.5565 13.9427 31.9591 13.9432Z" fill="url(#paint20_linear_289_5932)"/>
<path d="M40.1977 17.9528C40.1977 18.9594 39.3817 19.7753 38.3752 19.7753C37.3686 19.7753 36.5527 18.9594 36.5527 17.9528C36.5527 16.9463 37.3686 16.1303 38.3752 16.1303C39.3817 16.1303 40.1977 16.9463 40.1977 17.9528Z" fill="url(#paint21_linear_289_5932)"/>
<path d="M39.9418 25.9719C39.9418 26.9785 39.1258 27.7945 38.1192 27.7945C37.1127 27.7945 36.2967 26.9785 36.2967 25.9719C36.2967 24.9654 37.1127 24.1494 38.1192 24.1494C39.1258 24.1494 39.9418 24.9654 39.9418 25.9719Z" fill="url(#paint22_linear_289_5932)"/>
<path d="M44.3158 31.075C44.3158 32.0816 43.4999 32.8976 42.4933 32.8976C41.4867 32.8976 40.6708 32.0816 40.6708 31.075C40.6708 30.0685 41.4867 29.2525 42.4933 29.2525C43.4999 29.2525 44.3158 30.0685 44.3158 31.075Z" fill="url(#paint23_linear_289_5932)"/>
<path d="M43.5868 38.3651C43.5868 39.3717 42.7708 40.1877 41.7643 40.1877C40.7577 40.1877 39.9418 39.3717 39.9418 38.3651C39.9418 37.3586 40.7577 36.5426 41.7643 36.5426C42.7708 36.5426 43.5868 37.3586 43.5868 38.3651Z" fill="url(#paint24_linear_289_5932)"/>
<path fill-rule="evenodd" clip-rule="evenodd" d="M30.357 50.408C30.7519 50.329 31.1359 50.5851 31.2149 50.9799L31.5129 52.47C31.528 52.5456 31.5652 52.6151 31.6197 52.6696C31.7243 52.7742 31.8791 52.8108 32.0195 52.764L32.4565 52.6183C32.8385 52.491 33.2513 52.6974 33.3787 53.0793C33.506 53.4613 33.2996 53.8742 32.9176 54.0015L32.4805 54.1472C31.8163 54.3686 31.0839 54.1957 30.5887 53.7006C30.3307 53.4425 30.1548 53.1138 30.0832 52.7559L29.7852 51.2658C29.7062 50.871 29.9622 50.487 30.357 50.408Z" fill="url(#paint25_linear_289_5932)"/>
<circle cx="30.5" cy="30.5" r="28.9239" stroke="url(#paint26_linear_289_5932)" stroke-width="1.15217"/>
<path d="M173.744 40.4937V20.5062H178.695C180.335 20.5062 181.554 20.8957 182.354 21.6747C183.174 22.4332 183.584 23.4787 183.584 24.8112V36.1887C183.584 37.5212 183.184 38.577 182.385 39.356C181.585 40.1145 180.355 40.4937 178.695 40.4937H173.744ZM181.431 24.8112C181.431 24.2167 181.196 23.6632 180.724 23.1507C180.273 22.6177 179.597 22.3512 178.695 22.3512H175.896V38.6487H178.695C179.617 38.6487 180.304 38.3925 180.755 37.88C181.206 37.3675 181.431 36.8037 181.431 36.1887V24.8112Z" fill="#9CA7FF"/>
<path d="M156.627 40.4937V20.5062H158.687L165.452 35.8812V20.5062H167.605V40.4937H165.545L158.78 25.1187V40.4937H156.627Z" fill="#9CA7FF"/>
<path d="M151.413 40.4937H146.185V38.6487H147.723V22.3512H146.185V20.5062H151.413V22.3512H149.875V38.6487H151.413V40.4937Z" fill="#9CA7FF"/>
<path d="M127.469 40.4937V20.5062H130.482L134.234 34.0055L137.955 20.5062H140.968V40.4937H138.816V23.9502L135.218 36.8037H133.219L129.621 23.9502V40.4937H127.469Z" fill="#9CA7FF"/>
<path d="M112.544 40.4937V20.5062H117.187C118.827 20.5062 120.047 20.8957 120.847 21.6747C121.667 22.4332 122.077 23.4787 122.077 24.8112V29.1162C122.077 30.1207 121.851 30.9715 121.4 31.6685C120.949 32.345 120.273 32.8267 119.371 33.1137L123.153 40.4937H120.785L117.187 33.4212H114.697V40.4937H112.544ZM119.924 24.8112C119.924 24.0527 119.688 23.4582 119.217 23.0277C118.766 22.5767 118.089 22.3512 117.187 22.3512H114.697V31.5762H117.187C118.11 31.5762 118.797 31.361 119.248 30.9305C119.699 30.4795 119.924 29.8747 119.924 29.1162V24.8112Z" fill="#9CA7FF"/>
<path d="M98.8508 40.4937V20.5062H107.615V22.3512H101.003V29.4237H106.385V31.2687H101.003V38.6487H107.922V40.4937H98.8508Z" fill="#9CA7FF"/>
<path d="M86.8118 40.4937L82.2915 20.5062H84.444L88.4108 38.126L92.4083 20.5062H94.5608L90.0405 40.4937H86.8118Z" fill="#9CA7FF"/>
<path d="M78.455 36.65C78.455 37.9825 78.0245 39.0383 77.1635 39.8173C76.323 40.5758 75.0213 40.955 73.2583 40.955C71.4952 40.955 70.173 40.5758 69.2915 39.8173C68.4305 39.0383 68 37.9825 68 36.65V24.35C68 23.0175 68.4203 21.972 69.2608 21.2135C70.1218 20.4345 71.4338 20.045 73.1968 20.045C74.9598 20.045 76.2718 20.4345 77.1328 21.2135C78.0143 21.972 78.455 23.0175 78.455 24.35V36.65ZM76.3025 24.35C76.3025 23.571 76.0463 22.9662 75.5338 22.5357C75.0212 22.1052 74.2422 21.89 73.1968 21.89C72.1718 21.89 71.403 22.1052 70.8905 22.5357C70.3985 22.9662 70.1525 23.571 70.1525 24.35V36.65C70.1525 37.4085 70.4088 38.0133 70.9213 38.4643C71.4338 38.8948 72.2128 39.11 73.2583 39.11C74.2833 39.11 75.0418 38.8948 75.5338 38.4643C76.0463 38.0338 76.3025 37.429 76.3025 36.65V24.35Z" fill="#9CA7FF"/>
<defs>
<linearGradient id="paint0_linear_289_5932" x1="30.5" y1="10" x2="30.5" y2="54.2421" gradientUnits="userSpaceOnUse">
<stop stop-color="#9CA7FF"/>
<stop offset="1" stop-color="#635BFF"/>
</linearGradient>
<linearGradient id="paint1_linear_289_5932" x1="30.5" y1="10" x2="30.5" y2="54.2421" gradientUnits="userSpaceOnUse">
<stop stop-color="#9CA7FF"/>
<stop offset="1" stop-color="#635BFF"/>
</linearGradient>
<linearGradient id="paint2_linear_289_5932" x1="30.5" y1="10" x2="30.5" y2="54.2421" gradientUnits="userSpaceOnUse">
<stop stop-color="#9CA7FF"/>
<stop offset="1" stop-color="#635BFF"/>
</linearGradient>
<linearGradient id="paint3_linear_289_5932" x1="30.5" y1="10" x2="30.5" y2="54.2421" gradientUnits="userSpaceOnUse">
<stop stop-color="#9CA7FF"/>
<stop offset="1" stop-color="#635BFF"/>
</linearGradient>
<linearGradient id="paint4_linear_289_5932" x1="30.5" y1="10" x2="30.5" y2="54.2421" gradientUnits="userSpaceOnUse">
<stop stop-color="#9CA7FF"/>
<stop offset="1" stop-color="#635BFF"/>
</linearGradient>
<linearGradient id="paint5_linear_289_5932" x1="30.5" y1="10" x2="30.5" y2="54.2421" gradientUnits="userSpaceOnUse">
<stop stop-color="#9CA7FF"/>
<stop offset="1" stop-color="#635BFF"/>
</linearGradient>
<linearGradient id="paint6_linear_289_5932" x1="30.5" y1="10" x2="30.5" y2="54.2421" gradientUnits="userSpaceOnUse">
<stop stop-color="#9CA7FF"/>
<stop offset="1" stop-color="#635BFF"/>
</linearGradient>
<linearGradient id="paint7_linear_289_5932" x1="30.5" y1="10" x2="30.5" y2="54.2421" gradientUnits="userSpaceOnUse">
<stop stop-color="#9CA7FF"/>
<stop offset="1" stop-color="#635BFF"/>
</linearGradient>
<linearGradient id="paint8_linear_289_5932" x1="30.5" y1="10" x2="30.5" y2="54.2421" gradientUnits="userSpaceOnUse">
<stop stop-color="#9CA7FF"/>
<stop offset="1" stop-color="#635BFF"/>
</linearGradient>
<linearGradient id="paint9_linear_289_5932" x1="30.5" y1="10" x2="30.5" y2="54.2421" gradientUnits="userSpaceOnUse">
<stop stop-color="#9CA7FF"/>
<stop offset="1" stop-color="#635BFF"/>
</linearGradient>
<linearGradient id="paint10_linear_289_5932" x1="30.5" y1="10" x2="30.5" y2="54.2421" gradientUnits="userSpaceOnUse">
<stop stop-color="#9CA7FF"/>
<stop offset="1" stop-color="#635BFF"/>
</linearGradient>
<linearGradient id="paint11_linear_289_5932" x1="30.5" y1="10" x2="30.5" y2="54.2421" gradientUnits="userSpaceOnUse">
<stop stop-color="#9CA7FF"/>
<stop offset="1" stop-color="#635BFF"/>
</linearGradient>
<linearGradient id="paint12_linear_289_5932" x1="30.5" y1="10" x2="30.5" y2="54.2421" gradientUnits="userSpaceOnUse">
<stop stop-color="#9CA7FF"/>
<stop offset="1" stop-color="#635BFF"/>
</linearGradient>
<linearGradient id="paint13_linear_289_5932" x1="30.5" y1="10" x2="30.5" y2="54.2421" gradientUnits="userSpaceOnUse">
<stop stop-color="#9CA7FF"/>
<stop offset="1" stop-color="#635BFF"/>
</linearGradient>
<linearGradient id="paint14_linear_289_5932" x1="30.5" y1="10" x2="30.5" y2="54.2421" gradientUnits="userSpaceOnUse">
<stop stop-color="#9CA7FF"/>
<stop offset="1" stop-color="#635BFF"/>
</linearGradient>
<linearGradient id="paint15_linear_289_5932" x1="30.5" y1="10" x2="30.5" y2="54.2421" gradientUnits="userSpaceOnUse">
<stop stop-color="#9CA7FF"/>
<stop offset="1" stop-color="#635BFF"/>
</linearGradient>
<linearGradient id="paint16_linear_289_5932" x1="30.5" y1="10" x2="30.5" y2="54.2421" gradientUnits="userSpaceOnUse">
<stop stop-color="#9CA7FF"/>
<stop offset="1" stop-color="#635BFF"/>
</linearGradient>
<linearGradient id="paint17_linear_289_5932" x1="30.5" y1="10" x2="30.5" y2="54.2421" gradientUnits="userSpaceOnUse">
<stop stop-color="#9CA7FF"/>
<stop offset="1" stop-color="#635BFF"/>
</linearGradient>
<linearGradient id="paint18_linear_289_5932" x1="30.5" y1="10" x2="30.5" y2="54.2421" gradientUnits="userSpaceOnUse">
<stop stop-color="#9CA7FF"/>
<stop offset="1" stop-color="#635BFF"/>
</linearGradient>
<linearGradient id="paint19_linear_289_5932" x1="30.5" y1="10" x2="30.5" y2="54.2421" gradientUnits="userSpaceOnUse">
<stop stop-color="#9CA7FF"/>
<stop offset="1" stop-color="#635BFF"/>
</linearGradient>
<linearGradient id="paint20_linear_289_5932" x1="30.5" y1="10" x2="30.5" y2="54.2421" gradientUnits="userSpaceOnUse">
<stop stop-color="#9CA7FF"/>
<stop offset="1" stop-color="#635BFF"/>
</linearGradient>
<linearGradient id="paint21_linear_289_5932" x1="30.5" y1="10" x2="30.5" y2="54.2421" gradientUnits="userSpaceOnUse">
<stop stop-color="#9CA7FF"/>
<stop offset="1" stop-color="#635BFF"/>
</linearGradient>
<linearGradient id="paint22_linear_289_5932" x1="30.5" y1="10" x2="30.5" y2="54.2421" gradientUnits="userSpaceOnUse">
<stop stop-color="#9CA7FF"/>
<stop offset="1" stop-color="#635BFF"/>
</linearGradient>
<linearGradient id="paint23_linear_289_5932" x1="30.5" y1="10" x2="30.5" y2="54.2421" gradientUnits="userSpaceOnUse">
<stop stop-color="#9CA7FF"/>
<stop offset="1" stop-color="#635BFF"/>
</linearGradient>
<linearGradient id="paint24_linear_289_5932" x1="30.5" y1="10" x2="30.5" y2="54.2421" gradientUnits="userSpaceOnUse">
<stop stop-color="#9CA7FF"/>
<stop offset="1" stop-color="#635BFF"/>
</linearGradient>
<linearGradient id="paint25_linear_289_5932" x1="30.5" y1="10" x2="30.5" y2="54.2421" gradientUnits="userSpaceOnUse">
<stop stop-color="#9CA7FF"/>
<stop offset="1" stop-color="#635BFF"/>
</linearGradient>
<linearGradient id="paint26_linear_289_5932" x1="30.5" y1="1" x2="30.5" y2="60" gradientUnits="userSpaceOnUse">
<stop stop-color="#7578FF"/>
<stop offset="1" stop-color="#1E1650"/>
</linearGradient>
</defs>
</svg>
