<svg width="160" height="164" viewBox="0 0 160 164" fill="none" xmlns="http://www.w3.org/2000/svg">
  <path
    d="M93.2838 160.688C89.1303 165.915 80.7092 163.051 80.6089 156.378L79.1456 58.7744H144.826C156.722 58.7744 163.357 72.504 155.96 81.8139L93.2838 160.688Z"
    fill="url(#paint0_linear_34_165)" />
  <path
    d="M93.2838 160.688C89.1303 165.915 80.7092 163.051 80.6089 156.378L79.1456 58.7744H144.826C156.722 58.7744 163.357 72.504 155.96 81.8139L93.2838 160.688Z"
    fill="url(#paint1_linear_34_165)" fill-opacity="0.2" />
  <path
    d="M66.5719 3.63601C70.7252 -1.59079 79.1465 1.27312 79.2468 7.94642L79.8879 105.55H15.0297C3.13291 105.55 -3.50214 91.8202 3.89564 82.5106L66.5719 3.63601Z"
    fill="#3ECF8E" />
  <defs>
    <linearGradient id="paint0_linear_34_165" x1="79.1456" y1="80.4155" x2="137.506" y2="104.911"
      gradientUnits="userSpaceOnUse">
      <stop stop-color="#249361" />
      <stop offset="1" stop-color="#3ECF8E" />
    </linearGradient>
    <linearGradient id="paint1_linear_34_165" x1="53.2656" y1="45.0089" x2="79.8546" y2="95.1008"
      gradientUnits="userSpaceOnUse">
      <stop />
      <stop offset="1" stop-opacity="0" />
    </linearGradient>
  </defs>
</svg>
  