<svg width="170" height="170" viewBox="0 0 170 170" fill="none" xmlns="http://www.w3.org/2000/svg">
  <path fill-rule="evenodd" clip-rule="evenodd"
    d="M85.0634 0.241089C131.927 0.241089 169.911 38.2255 169.911 85.0889C169.911 131.952 131.927 169.937 85.0634 169.937C38.1999 169.937 0.215576 131.952 0.215576 85.0889C0.215576 38.2255 38.1999 0.241089 85.0634 0.241089Z"
    fill="#F0B90B" />
  <path
    d="M46.8479 85.0889L46.9091 107.525L65.9727 118.742V131.878L35.7524 114.153V78.5281L46.8479 85.0889ZM46.8479 62.6532V75.7271L35.7456 69.1595V56.0856L46.8479 49.5181L58.0046 56.0856L46.8479 62.6532ZM73.9339 56.0856L85.0362 49.5181L96.1929 56.0856L85.0362 62.6532L73.9339 56.0856Z"
    fill="white" />
  <path
    d="M54.8704 102.874V89.7392L65.9726 96.3068V109.381L54.8704 102.874ZM73.9339 123.447L85.0362 130.015L96.1929 123.447V136.521L85.0362 143.089L73.9339 136.521V123.447ZM112.115 56.0856L123.218 49.5181L134.374 56.0856V69.1595L123.218 75.7271V62.6532L112.115 56.0856ZM123.218 107.525L123.279 85.0889L134.381 78.5214V114.147L104.161 131.871V118.736L123.218 107.525Z"
    fill="white" />
  <path d="M115.256 102.874L104.154 109.381V96.3068L115.256 89.7393V102.874Z" fill="white" />
  <path
    d="M115.256 67.3035L115.318 80.4386L96.1997 91.6564V114.147L85.0974 120.653L73.9951 114.147V91.6564L54.8772 80.4386V67.3035L66.027 60.7359L85.0294 72.0082L104.147 60.7359L115.304 67.3035H115.256ZM54.8704 44.8745L85.0362 27.0891L115.256 44.8745L104.154 51.4421L85.0362 40.1698L65.9726 51.4421L54.8704 44.8745Z"
    fill="white" />
</svg>
  