<svg width="132" height="186" viewBox="0 0 132 186" fill="none" xmlns="http://www.w3.org/2000/svg">
	<path
		d="M12.7669 0.358032H21.0926V8.61135H28.7668V0.358032H37.0925V25.3352H28.7668V17.0095H21.1651V25.3352H12.7669M48.0969 8.68375H40.7486V0.358032H63.8072V8.68375H56.4226V25.3352H48.0969M67.4633 0.358032H76.1872L81.5446 9.15433L86.902 0.358032H95.6259V25.3352H87.3002V12.9552L81.4722 21.9325L75.6442 12.9552V25.3352H67.4633M99.7526 0.358032H108.078V17.0819H119.879V25.3352H99.7526"
		fill="black" />
	<path d="M12.4773 170.854L0.531738 36.7739H131.861L119.915 170.782L66.0877 185.696" fill="#E44D26" />
	<path d="M66.1963 174.293V47.7784H119.879L109.635 162.167" fill="#F16529" />
	<path
		d="M24.9297 64.1765H66.1963V80.6107H42.9567L44.477 97.4432H66.1963V113.841H29.4184M30.1423 122.095H46.649L47.8073 135.235L66.1963 140.158V157.316L32.4591 147.904"
		fill="#EBEBEB" />
	<path
		d="M107.318 64.1765H66.1239V80.6107H105.798M104.314 97.4432H66.1239V113.877H86.3952L84.4766 135.235L66.1239 140.158V157.244L99.7887 147.904"
		fill="white" />
</svg>
	