<svg width="184" height="164" viewBox="0 0 184 164" fill="none" xmlns="http://www.w3.org/2000/svg">
	<path
		d="M183.288 82.44C183.288 70.3171 168.107 58.8283 144.831 51.7038C150.202 27.9802 147.815 9.10574 137.296 3.06294C134.871 1.64549 132.036 0.974068 128.94 0.974068V9.29225C130.656 9.29225 132.036 9.62796 133.193 10.2621C138.266 13.1716 140.466 24.2501 138.751 38.4991C138.34 42.0055 137.669 45.6983 136.848 49.4657C129.537 47.6753 121.555 46.2951 113.162 45.3999C108.126 38.4991 102.904 32.2325 97.6445 26.7492C109.805 15.447 121.219 9.25495 128.978 9.25495V0.936768C118.72 0.936768 105.291 8.24782 91.7136 20.9302C78.1359 8.32242 64.7075 1.08597 54.4496 1.08597V9.40415C62.171 9.40415 73.6225 15.5589 85.7827 26.7865C80.5605 32.2698 75.3384 38.4991 70.3773 45.3999C61.9472 46.2951 53.9647 47.6753 46.6537 49.503C45.7958 45.7729 45.1616 42.1547 44.714 38.6856C42.9609 24.4366 45.1243 13.3581 50.16 10.4113C51.279 9.73987 52.7338 9.44146 54.4496 9.44146V1.12327C51.3163 1.12327 48.4814 1.7947 46.0196 3.21214C35.5379 9.25495 33.1879 28.0921 38.5966 51.7411C15.3952 58.9029 0.288208 70.3544 0.288208 82.44C0.288208 94.5629 15.4698 106.052 38.7458 113.176C33.3744 136.9 35.7617 155.774 46.2807 161.817C48.7053 163.235 51.5401 163.906 54.6735 163.906C64.9313 163.906 78.3598 156.595 91.9374 143.913C105.515 156.52 118.944 163.757 129.201 163.757C132.335 163.757 135.17 163.085 137.631 161.668C148.113 155.625 150.463 136.788 145.054 113.139C168.181 106.014 183.288 94.5256 183.288 82.44ZM134.722 57.5601C133.342 62.372 131.626 67.333 129.686 72.2941C128.157 69.31 126.553 66.3259 124.8 63.3418C123.084 60.3577 121.256 57.4482 119.428 54.6133C124.725 55.3966 129.835 56.3665 134.722 57.5601ZM117.638 97.2859C114.728 102.322 111.744 107.096 108.648 111.535C103.09 112.02 97.458 112.281 91.7882 112.281C86.1557 112.281 80.5232 112.02 75.0026 111.572C71.9066 107.133 68.8852 102.396 65.9757 97.3978C63.1408 92.5114 60.5671 87.5503 58.2171 82.5519C60.5298 77.5536 63.1408 72.5552 65.9384 67.6687C68.8479 62.6331 71.832 57.8585 74.928 53.4196C80.4859 52.9347 86.1184 52.6736 91.7882 52.6736C97.4207 52.6736 103.053 52.9347 108.574 53.3824C111.67 57.8212 114.691 62.5585 117.601 67.5568C120.436 72.4433 123.009 77.4044 125.359 82.4027C123.009 87.4011 120.436 92.3995 117.638 97.2859ZM129.686 92.4368C131.701 97.4351 133.416 102.434 134.834 107.283C129.947 108.476 124.8 109.483 119.466 110.267C121.294 107.395 123.121 104.448 124.837 101.426C126.553 98.4423 128.157 95.4209 129.686 92.4368ZM91.8628 132.237C88.3938 128.656 84.9248 124.665 81.4931 120.301C84.8502 120.45 88.2819 120.562 91.7509 120.562C95.2572 120.562 98.7262 120.487 102.121 120.301C98.7636 124.665 95.2945 128.656 91.8628 132.237ZM64.1107 110.267C58.8139 109.483 53.7036 108.514 48.8172 107.32C50.1973 102.508 51.9132 97.5471 53.8528 92.586C55.3822 95.5701 56.9861 98.5542 58.7393 101.538C60.4925 104.522 62.2829 107.432 64.1107 110.267ZM91.6763 32.6428C95.1453 36.2238 98.6143 40.215 102.046 44.5792C98.6889 44.43 95.2572 44.3181 91.7882 44.3181C88.2819 44.3181 84.8129 44.3927 81.4185 44.5792C84.7756 40.215 88.2446 36.2238 91.6763 32.6428ZM64.0734 54.6133C62.2456 57.4855 60.4178 60.4323 58.702 63.4537C56.9861 66.4378 55.3822 69.4219 53.8528 72.406C51.8386 67.4076 50.1227 62.4093 48.7053 57.5601C53.5917 56.4038 58.7393 55.3966 64.0734 54.6133ZM30.3157 101.314C17.1111 95.682 8.56909 88.2963 8.56909 82.44C8.56909 76.5837 17.1111 69.1608 30.3157 63.5656C33.5236 62.1854 37.03 60.9545 40.6482 59.7982C42.7743 67.1092 45.5719 74.7187 49.041 82.5146C45.6092 90.2733 42.849 97.8455 40.7601 105.119C37.0673 103.963 33.5609 102.695 30.3157 101.314ZM50.3838 154.618C45.3108 151.708 43.1101 140.63 44.8259 126.381C45.2362 122.875 45.9077 119.182 46.7283 115.414C54.0393 117.205 62.0218 118.585 70.4146 119.48C75.4503 126.381 80.6724 132.648 85.9319 138.131C73.7717 149.433 62.3575 155.625 54.5988 155.625C52.9203 155.588 51.5028 155.252 50.3838 154.618ZM138.862 126.194C140.616 140.443 138.452 151.522 133.416 154.469C132.297 155.14 130.843 155.439 129.127 155.439C121.405 155.439 109.954 149.284 97.7937 138.056C103.016 132.573 108.238 126.344 113.199 119.443C121.629 118.548 129.612 117.168 136.923 115.34C137.781 119.107 138.452 122.725 138.862 126.194ZM153.223 101.314C150.015 102.695 146.509 103.926 142.891 105.082C140.765 97.7709 137.967 90.1614 134.498 82.3654C137.93 74.6068 140.69 67.0346 142.779 59.7609C146.472 60.9172 149.978 62.1854 153.261 63.5656C166.465 69.1981 175.007 76.5837 175.007 82.44C174.97 88.2963 166.428 95.7193 153.223 101.314Z"
		fill="#61DAFB" />
	<path
		d="M91.5644 99.5614C100.979 99.5614 108.611 91.9293 108.611 82.5147C108.611 73.1001 100.979 65.468 91.5644 65.468C82.1498 65.468 74.5177 73.1001 74.5177 82.5147C74.5177 91.9293 82.1498 99.5614 91.5644 99.5614Z"
		fill="#61DAFB" />
</svg>
	