<svg width="94" height="141" viewBox="0 0 94 141" fill="none" xmlns="http://www.w3.org/2000/svg">
  <path
    d="M23.729 140.504C36.628 140.504 47.0967 130.063 47.0967 117.197V93.8903H23.729C10.83 93.8903 0.361206 104.332 0.361206 117.197C0.361206 130.063 10.83 140.504 23.729 140.504Z"
    fill="#0ACF83" />
  <path
    d="M0.361206 70.5832C0.361206 57.7178 10.83 47.2762 23.729 47.2762H47.0967V93.8902H23.729C10.83 93.8902 0.361206 83.4487 0.361206 70.5832Z"
    fill="#A259FF" />
  <path
    d="M0.361298 23.9693C0.361298 11.1039 10.8301 0.662354 23.7291 0.662354H47.0968V47.2763H23.7291C10.8301 47.2763 0.361298 36.8348 0.361298 23.9693Z"
    fill="#F24E1E" />
  <path
    d="M47.0967 0.662354H70.4645C83.3635 0.662354 93.8323 11.1039 93.8323 23.9693C93.8323 36.8348 83.3635 47.2763 70.4645 47.2763H47.0967V0.662354Z"
    fill="#FF7262" />
  <path
    d="M93.8323 70.5832C93.8323 83.4487 83.3635 93.8902 70.4645 93.8902C57.5655 93.8902 47.0967 83.4487 47.0967 70.5832C47.0967 57.7178 57.5655 47.2762 70.4645 47.2762C83.3635 47.2762 93.8323 57.7178 93.8323 70.5832Z"
    fill="#1ABCFE" />
</svg>
  