<svg width="168" height="169" viewBox="0 0 168 169" fill="none" xmlns="http://www.w3.org/2000/svg">
  <path
    d="M0.00012207 0.241089H167.583V90.9325L159.288 103.926L167.583 115.489V168.241H0.00012207V82.7469L5.18443 76.7701L0.00012207 71.0531V0.241089Z"
    fill="#016FD0" />
  <path
    d="M32.5317 117.308V90.9324H60.3895L63.3783 94.8384L66.466 90.9324H167.583V115.489C167.583 115.489 164.939 117.282 161.88 117.308H105.89L102.52 113.15V117.308H91.4773V110.211C91.4773 110.211 89.9688 111.202 86.7077 111.202H82.9491V117.308H66.2297L63.2451 113.318L60.2147 117.308H32.5317Z"
    fill="white" />
  <path
    d="M0.00012207 71.053L6.28217 56.3708H17.1463L20.7114 64.5952V56.3708H34.2166L36.3389 62.3151L38.3964 56.3708H99.0204V59.3592C99.0204 59.3592 102.207 56.3708 107.445 56.3708L127.115 56.4398L130.619 64.5564V56.3708H141.921L145.031 61.0332V56.3708H156.437V82.7467H145.031L142.05 78.0692V82.7467H125.445L123.776 78.5889H119.312L117.669 82.7467H106.408C101.901 82.7467 99.0204 79.8193 99.0204 79.8193V82.7467H82.0418L78.672 78.5889V82.7467H15.5369L13.8682 78.5889H9.41844L7.76154 82.7467H0.00012207V71.053Z"
    fill="white" />
  <path
    d="M8.50564 59.6224L0.0325317 79.3719H5.54896L7.11236 75.4171H16.2011L17.7564 79.3719H23.3943L14.9293 59.6224H8.50564ZM11.6405 64.2187L14.4109 71.1294H8.86206L11.6405 64.2187Z"
    fill="#016FD0" />
  <path
    d="M23.9775 79.3686V59.6191L31.8167 59.6483L36.3762 72.3815L40.8265 59.6191H48.603V79.3686H43.6779V64.8164L38.4572 79.3686H34.1379L28.9026 64.8164V79.3686H23.9775Z"
    fill="#016FD0" />
  <path
    d="M51.9728 79.3686V59.6191H68.0442V64.0368H56.9498V67.415H67.785V71.5727H56.9498V75.0809H68.0442V79.3686H51.9728Z"
    fill="#016FD0" />
  <path
    d="M70.8956 59.6224V79.3719H75.8207V72.3556H77.8944L83.7996 79.3719H89.8183L83.3379 72.0958C85.9975 71.8708 88.7409 69.5824 88.7409 66.0296C88.7409 61.8737 85.4871 59.6224 81.8555 59.6224H70.8956ZM75.8207 64.0401H81.4505C82.801 64.0401 83.7834 65.0991 83.7834 66.119C83.7834 67.431 82.5106 68.1978 81.5234 68.1978H75.8207V64.0401Z"
    fill="#016FD0" />
  <path d="M95.7802 79.3686H90.7515V59.6191H95.7802V79.3686Z" fill="#016FD0" />
  <path
    d="M107.704 79.3686H106.619C101.367 79.3686 98.178 75.2206 98.178 69.5751C98.178 63.7901 101.331 59.6191 107.963 59.6191H113.407V64.2966H107.764C105.072 64.2966 103.168 66.403 103.168 69.6238C103.168 73.4485 105.345 75.0549 108.482 75.0549H109.778L107.704 79.3686Z"
    fill="#016FD0" />
  <path
    d="M118.421 59.6224L109.948 79.3719H115.464L117.028 75.4171H126.117L127.672 79.3719H133.31L124.845 59.6224H118.421ZM121.556 64.2187L124.326 71.1294H118.778L121.556 64.2187Z"
    fill="#016FD0" />
  <path
    d="M133.885 79.3686V59.6191H140.147L148.142 72.0275V59.6191H153.067V79.3686H147.008L138.81 66.6354V79.3686H133.885Z"
    fill="#016FD0" />
  <path
    d="M35.9015 113.93V94.1805H51.9729V98.5982H40.8784V101.976H51.7136V106.134H40.8784V109.642H51.9729V113.93H35.9015Z"
    fill="#016FD0" />
  <path
    d="M114.651 113.93V94.1805H130.722V98.5982H119.628V101.976H130.411V106.134H119.628V109.642H130.722V113.93H114.651Z"
    fill="#016FD0" />
  <path
    d="M52.5966 113.93L60.4217 104.177L52.4103 94.1805H58.6153L63.3864 100.36L68.1738 94.1805H74.1358L66.2297 104.055L74.0692 113.93H67.8652L63.2325 107.848L58.7125 113.93H52.5966Z"
    fill="#016FD0" />
  <path
    d="M74.6542 94.184V113.933H79.7089V107.697H84.8932C89.2798 107.697 92.6048 105.364 92.6048 100.827C92.6048 97.0682 89.997 94.184 85.5331 94.184H74.6542ZM79.7089 98.6503H85.1686C86.5858 98.6503 87.5987 99.5211 87.5987 100.924C87.5987 102.242 86.5909 103.198 85.1524 103.198H79.7089V98.6503Z"
    fill="#016FD0" />
  <path
    d="M94.7434 94.1805V113.93H99.6685V106.914H101.742L107.647 113.93H113.666L107.186 106.654C109.845 106.429 112.589 104.141 112.589 100.588C112.589 96.4318 109.335 94.1805 105.703 94.1805H94.7434ZM99.6685 98.5982H105.298C106.649 98.5982 107.631 99.6572 107.631 100.677C107.631 101.989 106.358 102.756 105.371 102.756H99.6685V98.5982Z"
    fill="#016FD0" />
  <path
    d="M133.004 113.93V109.642H142.86C144.319 109.642 144.95 108.852 144.95 107.986C144.95 107.155 144.321 106.316 142.86 106.316H138.406C134.534 106.316 132.378 103.951 132.378 100.401C132.378 97.2343 134.353 94.1805 140.106 94.1805H149.697L147.623 98.6242H139.328C137.743 98.6242 137.255 99.4583 137.255 100.255C137.255 101.074 137.858 101.976 139.069 101.976H143.735C148.051 101.976 149.924 104.431 149.924 107.645C149.924 111.1 147.837 113.93 143.5 113.93H133.004Z"
    fill="#016FD0" />
  <path
    d="M151.08 113.93V109.642H160.936C162.395 109.642 163.026 108.852 163.026 107.986C163.026 107.155 162.397 106.316 160.936 106.316H156.482C152.611 106.316 150.454 103.951 150.454 100.401C150.454 97.2343 152.429 94.1805 158.182 94.1805H167.773L165.7 98.6242H157.405C155.819 98.6242 155.331 99.4583 155.331 100.255C155.331 101.074 155.934 101.976 157.145 101.976H161.811C166.127 101.976 168 104.431 168 107.645C168 111.1 165.913 113.93 161.576 113.93H151.08Z"
    fill="#016FD0" />
</svg>
  