<svg width="196" height="122" viewBox="0 0 196 122" fill="none" xmlns="http://www.w3.org/2000/svg">
  <path d="M68.6566 13.8346H126.738V108.607H68.6566V13.8346Z" fill="#F26122" />
  <path
    d="M74.9123 61.2216C74.8164 42.7758 83.2049 25.3073 97.667 13.8354C72.9228 -5.60039 37.3784 -2.77809 16.0193 20.3184C-5.33976 43.4148 -5.33976 79.0288 16.0193 102.125C37.3784 125.222 72.9228 128.044 97.667 108.608C83.2049 97.1364 74.8164 79.6675 74.9123 61.2216Z"
    fill="#EA1D25" />
  <path
    d="M195.288 61.222C195.273 84.2864 182.084 105.321 161.315 115.403C140.545 125.484 115.837 122.847 97.6705 108.608C123.839 88.0284 128.37 50.1667 107.796 24.0059C104.847 20.2177 101.447 16.8024 97.6705 13.8355C115.837 -0.403175 140.545 -3.04097 161.315 7.04101C182.084 17.123 195.273 38.1572 195.288 61.222Z"
    fill="#F69E1E" />
</svg>
  