<svg width="181" height="165" viewBox="0 0 181 165" fill="none" xmlns="http://www.w3.org/2000/svg">
    <path
        d="M39.6695 6.31451L90.5371 0.936768L141.405 6.31451L180.786 59.1805L90.5371 164.274L0.288208 59.1805L39.6695 6.31451Z"
        fill="#FDB300" />
    <path d="M36.8435 59.1805L90.5372 164.274L0.288208 59.1805H36.8435Z" fill="#EA6C00" />
    <path d="M144.231 59.1805L90.5369 164.274L180.786 59.1805H144.231Z" fill="#EA6C00" />
    <path d="M36.8435 59.1805H144.231L90.5372 164.274L36.8435 59.1805Z" fill="#FDAD00" />
    <path d="M90.5372 0.936768L39.6694 6.31444L36.8435 59.1804L90.5372 0.936768Z" fill="#FDD231" />
    <path d="M90.5369 0.936768L141.405 6.31444L144.231 59.1804L90.5369 0.936768Z" fill="#FDD231" />
    <path d="M180.786 59.1805L141.404 6.31445L144.231 59.1805H180.786Z" fill="#FDAD00" />
    <path d="M0.288208 59.1805L39.6694 6.31445L36.8435 59.1805H0.288208Z" fill="#FDAD00" />
    <path d="M90.5372 0.936768L36.8435 59.1804H144.231L90.5372 0.936768Z" fill="#FEEEB7" />
</svg>
    