<svg width="182" height="182" viewBox="0 0 182 182" fill="none" xmlns="http://www.w3.org/2000/svg">
  <path d="M181.861 0.358032H0.86084V181.358H181.861V0.358032Z" fill="#F7DF1E" />
  <path
    d="M122.447 141.765C126.093 147.718 130.836 152.093 139.225 152.093C146.273 152.093 150.775 148.571 150.775 143.704C150.775 137.872 146.149 135.806 138.392 132.413L134.14 130.589C121.867 125.36 113.713 118.81 113.713 104.962C113.713 92.2054 123.432 82.4946 138.622 82.4946C149.436 82.4946 157.21 86.2583 162.813 96.1127L149.568 104.617C146.652 99.388 143.506 97.328 138.622 97.328C133.64 97.328 130.483 100.488 130.483 104.617C130.483 109.719 133.643 111.785 140.94 114.945L145.193 116.767C159.644 122.964 167.803 129.282 167.803 143.486C167.803 158.799 155.774 167.188 139.619 167.188C123.823 167.188 113.618 159.661 108.625 149.795L122.447 141.765ZM62.3635 143.239C65.0354 147.979 67.466 151.987 73.3097 151.987C78.8977 151.987 82.4229 149.801 82.4229 141.3V83.4657H99.4311V141.529C99.4311 159.141 89.1055 167.157 74.0337 167.157C60.4156 167.157 52.5292 160.109 48.5184 151.621L62.3635 143.239Z"
    fill="black" />
</svg>
  