<svg width="235" height="97" viewBox="0 0 235 97" fill="none" xmlns="http://www.w3.org/2000/svg">
  <path
    d="M43.2022 13.0391C40.4522 16.2818 36.0522 18.8393 31.6522 18.474C31.1022 14.0896 33.2564 9.43115 35.7772 6.55389C38.5272 3.21992 43.3397 0.845037 47.2356 0.662354C47.6939 5.22943 45.9064 9.70517 43.2022 13.0391ZM47.1897 19.3417C40.8189 18.9763 35.3647 22.9497 32.3397 22.9497C29.2689 22.9497 24.6397 19.5244 19.5981 19.6157C13.0439 19.7071 6.94805 23.4064 3.60222 29.2979C-3.27278 41.081 1.81472 58.5272 8.46055 68.1181C11.7147 72.8679 15.6106 78.0743 20.7439 77.8917C25.6022 77.709 27.5272 74.7404 33.3939 74.7404C39.3064 74.7404 41.0022 77.8917 46.1356 77.8003C51.4522 77.709 54.7981 73.0506 58.0522 68.3008C61.7647 62.9116 63.2772 57.6595 63.3689 57.3855C63.2772 57.2941 53.1022 53.4121 53.0106 41.7204C52.9189 31.9468 61.0314 27.2884 61.3981 27.0144C56.8147 20.2551 49.6647 19.5244 47.1897 19.3417ZM83.9939 6.09718V77.2979H95.0856V52.9554H110.44C124.465 52.9554 134.319 43.3645 134.319 29.4806C134.319 15.5967 124.648 6.09718 110.806 6.09718H83.9939ZM95.0856 15.414H107.873C117.498 15.414 122.998 20.5291 122.998 29.5263C122.998 38.5234 117.498 43.6842 107.827 43.6842H95.0856V15.414ZM154.577 77.846C161.544 77.846 168.006 74.3293 170.94 68.7575H171.169V77.2979H181.436V41.8574C181.436 31.5815 173.186 24.9592 160.49 24.9592C148.711 24.9592 140.002 31.6728 139.681 40.8983H149.673C150.498 36.5139 154.577 33.6367 160.169 33.6367C166.952 33.6367 170.756 36.7879 170.756 42.5881V46.5158L156.915 47.3379C144.036 48.1143 137.069 53.3664 137.069 62.5006C137.069 71.7261 144.265 77.846 154.577 77.846ZM157.556 69.3969C151.644 69.3969 147.886 66.5653 147.886 62.2266C147.886 57.7508 151.506 55.1476 158.427 54.7366L170.756 53.9602V57.9792C170.756 64.6471 165.073 69.3969 157.556 69.3969ZM195.14 96.6624C205.956 96.6624 211.044 92.552 215.49 80.0839L234.969 25.6443H223.694L210.631 67.7071H210.402L197.34 25.6443H185.744L204.536 77.4806L203.527 80.6319C201.831 85.9754 199.081 88.0306 194.177 88.0306C193.306 88.0306 191.611 87.9392 190.923 87.8479V96.3883C191.565 96.571 194.315 96.6624 195.14 96.6624Z"
    fill="black" />
</svg>
  