<svg width="30" height="31" viewBox="0 0 30 31" fill="none" xmlns="http://www.w3.org/2000/svg">
<g id="Frame 24">
<path id="Vector" fill-rule="evenodd" clip-rule="evenodd" d="M15.0126 0.85376C16.0163 0.861866 19.6675 0.905398 23.406 3.39266C27.8475 6.34777 30.4893 11.4938 29.9244 17.0385C29.1484 24.6548 22.4139 30.5561 14.3857 30.2399C6.07988 29.9126 -0.470529 22.9665 0.0265301 14.6891C0.485406 7.04215 6.93285 0.942157 14.8664 0.85466C14.9393 0.853859 14.939 0.854227 15.0119 0.85376C15.0123 0.85376 15.0123 0.85376 15.0126 0.85376ZM15.0119 1.51742C14.0338 1.52022 10.3908 1.5442 6.71194 4.07977C2.60933 6.90705 0.2004 11.6809 0.64223 16.804C1.29441 24.3632 8.04084 30.1985 15.9863 29.6881C23.7459 29.1898 29.8088 22.6933 29.443 14.9493C29.0905 7.48948 22.8128 1.56148 15.152 1.51755C15.0822 1.51715 15.0822 1.51748 15.0123 1.51742H15.0119ZM21.3162 18.9799L20.8822 19.4239C20.8706 19.4359 20.8062 19.502 20.6981 19.5183C19.4009 19.7155 18.1034 19.9116 16.8058 20.1064C16.7878 20.1094 16.6831 20.1251 16.5836 20.0507C16.556 20.03 16.5573 20.0284 16.2536 19.7185C15.9058 19.3629 15.5571 19.0083 15.2097 18.6524C15.1971 18.6397 15.1261 18.5666 15.1282 18.4465L15.2202 13.8295C15.2294 13.3108 15.2652 11.4517 15.2809 8.66034C15.2901 7.01313 15.2901 4.80967 15.2901 4.47483C15.2901 4.45147 15.2874 4.42792 15.2898 4.40527C15.2901 4.37975 15.2918 4.29356 15.301 4.21337C15.3832 3.50808 15.8427 3.06542 16.348 2.80166C16.8478 2.5406 17.3912 2.45617 17.6448 2.46138C18.0751 2.47022 18.0829 2.41784 18.9461 2.60595C19.7562 2.78241 20.3425 3.27601 20.6327 3.53473C20.7922 3.67667 21.0216 3.84486 21.3902 4.54841C21.396 4.55932 21.5937 4.88963 21.5773 5.37345C21.8535 5.43667 22.2104 5.5767 22.6229 5.91095C23.0825 6.28332 23.8424 7.298 24.2092 8.1126C24.5014 8.76208 24.4284 9.30415 24.3517 9.58669C24.6084 9.81285 24.9991 10.2735 25.2685 11.2916C25.2971 11.3997 25.5777 12.3854 25.5726 14.1043C25.5695 15.0073 25.3581 15.4817 25.2027 15.7122C25.2027 15.7132 25.2023 15.7139 25.2023 15.7149C25.4399 16.1375 25.8559 17.3444 25.0281 20.034C24.0112 23.3388 21.1829 26.0712 20.1492 26.9385C18.9741 27.9249 17.3874 28.6054 16.5839 28.643C15.8884 28.6757 15.3317 28.2541 15.0924 28.0286C15.0665 28.0042 15.044 27.9819 15.0256 27.9629C15.0167 27.9539 15.0092 27.9465 15 27.9465C14.9905 27.9465 14.983 27.9539 14.9741 27.9629C14.9557 27.9819 14.9335 28.0042 14.9073 28.0286C14.6679 28.2541 14.1116 28.6757 13.4158 28.643C12.6122 28.6054 11.0259 27.9249 9.85043 26.9385C8.81677 26.0712 5.98885 23.3388 4.97189 20.034C4.1438 17.3444 4.55972 16.1375 4.79734 15.7149C4.79734 15.7139 4.79734 15.7129 4.79734 15.7122C4.64188 15.4817 4.43017 15.0073 4.42745 14.1043C4.42199 12.3854 4.70256 11.3997 4.7312 11.2916C5.00053 10.2735 5.39122 9.81285 5.64793 9.58669C5.57122 9.30415 5.49827 8.76208 5.79078 8.1126C6.15726 7.298 6.91717 6.28332 7.37707 5.91095C7.78924 5.5767 8.14618 5.43667 8.42232 5.37345C8.40596 4.88963 8.60403 4.55932 8.60949 4.54841C8.97836 3.84486 9.2078 3.67667 9.36701 3.53473C9.65747 3.27601 10.2439 2.78241 11.0535 2.60595C11.9171 2.41784 11.9246 2.47022 12.3552 2.46138C12.6088 2.45617 13.1519 2.5406 13.6517 2.80166C14.1569 3.06542 14.6168 3.50808 14.6986 4.21337C14.7078 4.29342 14.7099 4.37952 14.7099 4.40494C14.7123 4.42809 14.7099 4.45154 14.7099 4.47483C14.7099 4.80967 14.7095 7.01313 14.7187 8.66034C14.7348 11.4517 14.7702 13.3108 14.7794 13.8295L14.8715 18.4465C14.8739 18.5666 14.8026 18.6397 14.7903 18.6524C14.4429 19.0083 14.0942 19.3629 13.7461 19.7185C13.4427 20.0284 13.444 20.03 13.4161 20.0507C13.3169 20.1251 13.2119 20.1094 13.1938 20.1064C11.8963 19.9116 10.5991 19.7155 9.30189 19.5183C9.19382 19.502 9.12905 19.4359 9.1178 19.4239L8.68347 18.9799C8.09538 19.1504 7.434 18.8812 7.15411 18.2871C6.84933 17.6403 7.12308 16.8517 7.78787 16.5361C8.04902 16.4124 8.27573 16.4097 8.33573 16.4077C8.33778 16.4077 8.33948 16.4077 8.34118 16.4077C8.34698 16.408 9.01927 16.4007 9.41712 17.0255C9.74509 17.5405 9.6677 18.2064 9.25485 18.634C9.28962 18.6827 9.32201 18.7358 9.35781 18.7831C9.39565 18.8328 9.43656 18.8762 9.49485 18.8902C10.5006 19.1307 12.3814 19.3929 12.9784 19.4733C13.0772 19.4866 13.1764 19.453 13.2473 19.3826C13.4853 19.1454 14.1504 18.5843 14.3737 18.3618C14.4348 18.3011 14.4685 18.218 14.4678 18.132C14.4617 17.4271 14.266 14.6701 14.2551 13.7067C14.2367 12.0962 14.2033 9.50229 14.0505 4.45805C14.0475 4.43403 14.0502 4.41221 14.0485 4.36418C14.0413 4.15029 13.9728 3.63074 13.1696 3.28925C12.9528 3.19708 12.6091 3.09691 12.346 3.10015C11.9819 3.10462 11.9774 3.06569 11.4306 3.1714C11.1514 3.22544 10.8439 3.27608 10.417 3.52309C10.1617 3.67083 9.96123 3.82875 9.66838 4.08807C9.64418 4.10952 9.4386 4.27368 9.13518 4.85127C9.11473 4.8907 9.01961 5.07237 9.02268 5.33976C9.02336 5.39991 9.04041 5.45875 9.07211 5.50992C9.07314 5.51159 9.07416 5.51329 9.07518 5.51506C9.08098 5.5272 9.08814 5.53858 9.09529 5.54998C9.42155 6.06673 9.59202 6.26221 9.82759 6.53491C9.83577 6.54458 9.84838 6.56496 9.85418 6.5745C9.99055 6.59655 10.1303 6.59038 10.2684 6.59782C10.4187 6.60593 10.5691 6.61293 10.7194 6.6201C10.8401 6.28679 11.1306 6.01893 11.5158 5.95074C11.5987 5.9361 11.6645 5.9353 11.674 5.93487C11.6764 5.93477 11.6784 5.9348 11.6808 5.93493C11.688 5.9354 12.2191 5.93677 12.5232 6.43597C12.8106 6.90805 12.6664 7.52684 12.1977 7.82439C11.657 8.16731 10.9274 7.91712 10.7143 7.30367C10.7102 7.29166 10.7065 7.27999 10.7027 7.26831C10.4965 7.23529 10.2902 7.20193 10.0836 7.16958C9.95202 7.14889 9.82009 7.13088 9.68849 7.1102C9.67179 7.10753 9.58076 7.09352 9.51054 7.00079C9.29269 6.71251 9.16075 6.52093 8.74858 6.08871C8.74824 6.08848 8.74824 6.08825 8.7479 6.08805C8.6596 5.99261 8.52358 5.95752 8.40017 5.99828C8.22459 6.05652 8.00299 6.1647 7.74594 6.36982C7.33241 6.69956 6.59705 7.69563 6.2967 8.38314C6.28579 8.40815 6.09419 8.80645 6.16067 9.2818C6.17363 9.37053 6.22204 9.44992 6.29466 9.50229C7.23252 10.1828 7.62628 10.424 8.303 10.8316C8.32243 10.8436 8.34119 10.8586 8.35994 10.8733C8.37528 10.8856 8.38994 10.8993 8.40903 10.9013C8.45164 10.906 9.5794 10.9283 10.0979 10.9383C10.1968 10.5858 10.4586 10.2809 10.835 10.1448C11.0215 10.0774 11.1752 10.0754 11.2162 10.074C11.2182 10.074 11.2199 10.074 11.2219 10.074C11.2359 10.075 11.8274 10.074 12.1779 10.6285C12.5157 11.1628 12.3627 11.8754 11.8271 12.2236C11.2315 12.6109 10.4194 12.3641 10.1433 11.6982C10.1279 11.6609 10.1143 11.6232 10.1031 11.5855L8.32073 11.4464C8.25493 11.4411 8.20039 11.407 8.19118 11.4014C8.16527 11.385 8.14038 11.3673 8.11481 11.3503C7.49537 10.9427 7.11593 10.6925 6.20397 10.1845L6.20363 10.1841C6.0584 10.1024 5.87499 10.1408 5.77476 10.2739C5.48975 10.6655 5.13792 11.4374 5.00837 12.9768C4.97973 13.3144 4.9395 14.0433 4.97632 14.4863C5.00155 14.7915 5.05644 15.014 5.11473 15.1721C5.16076 15.2939 5.27361 15.3776 5.40349 15.3863C5.57702 15.398 5.80578 15.4123 5.99874 15.4206C6.5708 15.446 6.95228 15.4377 7.05524 15.436C7.2557 15.433 7.75651 15.4196 7.86117 15.4163L7.86731 15.4116C7.98493 15.3226 8.54028 14.8943 8.81881 14.6794C8.80892 14.6591 8.79972 14.6384 8.79086 14.6174C8.53687 14.0046 8.84131 13.2894 9.47713 13.0509C9.67213 12.9778 9.83338 12.9759 9.87668 12.9742C9.87873 12.9742 9.88043 12.9742 9.88248 12.9742C9.89543 12.9752 10.4951 12.9735 10.85 13.5346C11.1923 14.0757 11.0372 14.7969 10.4951 15.1494C10.1051 15.4026 9.62372 15.3876 9.25689 15.1631C8.98109 15.3479 8.70563 15.5324 8.43016 15.7175C8.09709 15.9414 8.10016 15.9487 8.03743 15.9667C8.03095 15.9684 7.9972 15.9781 7.95186 15.9774C7.21616 15.9617 6.73716 15.926 5.43963 16.0074C5.43929 16.0074 5.43929 16.0074 5.43895 16.0074C5.30326 16.0148 5.18565 16.1048 5.14269 16.2339C5.14201 16.2349 5.14167 16.2362 5.14133 16.2372C4.83893 17.1463 4.94837 18.5793 5.38815 19.9567C6.46 23.3128 9.51462 26.0481 10.3652 26.6816C11.0082 27.1603 11.8203 27.5623 12.4973 27.7944C12.9415 27.9465 13.3264 28.0266 13.5641 28.0032C13.5814 28.0016 13.9701 27.9846 14.3986 27.6023C14.4126 27.5896 14.4477 27.5476 14.4607 27.5299C14.5616 27.3925 14.6495 27.2173 14.6639 27.1893C14.6737 27.1696 14.7406 27.0372 14.7798 26.9411C14.7828 26.9305 14.7873 26.9184 14.7931 26.9058C14.7975 26.8958 14.8026 26.8864 14.8125 26.8731C14.8237 26.8574 14.8377 26.8414 14.8558 26.827C14.8749 26.8117 14.9018 26.7947 14.9362 26.785C14.9444 26.7827 14.9574 26.7793 14.9734 26.7773C15.0188 26.7723 15.0194 26.7723 15.0634 26.785C15.0747 26.788 15.1295 26.804 15.1742 26.8564C15.1756 26.8577 15.1769 26.8594 15.1783 26.8611L15.1786 26.8617C15.2039 26.8934 15.2083 26.9061 15.2158 26.9281C15.2165 26.9298 15.2168 26.9315 15.2175 26.9335C15.2196 26.9388 15.2219 26.9451 15.2253 26.9535C15.3672 27.2807 15.4827 27.4505 15.5342 27.5232C15.5506 27.5459 15.583 27.5856 15.6014 27.6023C16.0296 27.9846 16.4182 28.0016 16.4356 28.0032C16.6732 28.0266 17.0581 27.9465 17.5023 27.7944C18.1794 27.5623 18.9915 27.1603 19.6344 26.6816C20.4854 26.0481 23.5397 23.3128 24.6115 19.9567C25.0513 18.5793 25.1607 17.1463 24.8587 16.2372C24.858 16.2362 24.8577 16.2349 24.8573 16.2339C24.814 16.1048 24.6964 16.0148 24.5607 16.0074C24.5604 16.0074 24.5604 16.0074 24.5604 16.0074C23.2628 15.926 22.7835 15.9617 22.0478 15.9774C22.0025 15.9781 21.9687 15.9684 21.9622 15.9667C21.8995 15.9487 21.9026 15.9414 21.5695 15.7175C21.2944 15.5324 21.0186 15.3479 20.7431 15.1631C20.3759 15.3876 19.8946 15.4026 19.5049 15.1494C18.9625 14.7969 18.8077 14.0757 19.1497 13.5346C19.5049 12.9735 20.1042 12.9752 20.1175 12.9742C20.1192 12.9742 20.1213 12.9742 20.123 12.9742C20.1663 12.9759 20.3275 12.9778 20.5225 13.0509C21.1583 13.2894 21.4628 14.0046 21.2088 14.6174C21.1999 14.6384 21.1907 14.6591 21.1812 14.6794C21.4597 14.8943 22.0147 15.3226 22.1324 15.4116L22.1388 15.4163C22.2431 15.4196 22.744 15.433 22.9444 15.436C23.0474 15.4377 23.4289 15.446 24.0013 15.4206C24.1942 15.4123 24.423 15.398 24.5962 15.3863H24.5965C24.7264 15.3776 24.8392 15.2939 24.8853 15.1721C24.9436 15.014 24.9984 14.7915 25.0237 14.4863C25.0602 14.0433 25.0199 13.3144 24.9916 12.9768C24.8621 11.4374 24.5099 10.6655 24.2249 10.2735C24.1247 10.1408 23.9413 10.1024 23.796 10.1841L23.7957 10.1845C22.8837 10.6925 22.5046 10.9427 21.8848 11.3503C21.8593 11.3673 21.8344 11.385 21.8085 11.4014C21.7993 11.407 21.7451 11.4411 21.6789 11.4464L19.8966 11.5855C19.8854 11.6232 19.8721 11.6609 19.8567 11.6982C19.5802 12.3641 18.7682 12.6109 18.1729 12.2236C17.637 11.8754 17.4839 11.1628 17.8218 10.6285C18.1722 10.074 18.7641 10.075 18.7781 10.074C18.7798 10.074 18.7818 10.074 18.7835 10.074C18.8248 10.0754 18.9782 10.0774 19.1647 10.1448C19.5414 10.2809 19.8032 10.5858 19.9017 10.9383C20.4203 10.9283 21.548 10.906 21.591 10.9013C21.6097 10.8993 21.6244 10.8856 21.6401 10.8733C21.6585 10.8586 21.6772 10.8436 21.6967 10.8316C22.3734 10.424 22.7671 10.1828 23.705 9.50229H23.7053C23.778 9.44992 23.8264 9.37053 23.8393 9.2818C23.9058 8.80645 23.7142 8.40815 23.7033 8.38314C23.4026 7.69563 22.6672 6.69956 22.2537 6.36982C21.9967 6.1647 21.7751 6.05652 21.5995 5.99828C21.4761 5.95752 21.3401 5.99261 21.2518 6.08805C21.2518 6.08825 21.2514 6.08848 21.2511 6.08871C20.8389 6.52093 20.7073 6.71251 20.4895 7.00079C20.4192 7.09352 20.3279 7.10753 20.3112 7.1102C20.1799 7.13088 20.048 7.14889 19.9164 7.16958C19.7098 7.20193 19.5035 7.23529 19.2969 7.26831C19.2935 7.27999 19.2894 7.29166 19.2853 7.30367C19.0723 7.91712 18.3427 8.16731 17.802 7.82439C17.3332 7.52684 17.1894 6.90805 17.4768 6.43597C17.7809 5.93677 18.3117 5.9354 18.3188 5.93493C18.3212 5.9348 18.3233 5.93477 18.3257 5.93487C18.3355 5.9353 18.4013 5.9361 18.4842 5.95074C18.8691 6.01893 19.1595 6.28679 19.2806 6.6201C19.4309 6.61293 19.5813 6.60593 19.7313 6.59782C19.8693 6.59038 20.0091 6.59655 20.1458 6.5745C20.1513 6.56496 20.1639 6.54458 20.1724 6.53491C20.408 6.26221 20.5781 6.06673 20.9044 5.54998C20.9115 5.53858 20.9187 5.5272 20.9248 5.51506C20.9255 5.51329 20.9265 5.51159 20.9275 5.50992C20.9593 5.45875 20.9763 5.39991 20.977 5.33976C20.9804 5.07237 20.8853 4.8907 20.8645 4.85127C20.5611 4.27368 20.3555 4.10952 20.3313 4.08807C20.0384 3.82875 19.8383 3.67083 19.583 3.52309C19.1558 3.27608 18.8486 3.22544 18.5691 3.1714C18.0222 3.06569 18.0181 3.10462 17.6537 3.10015C17.3905 3.09691 17.0469 3.19708 16.83 3.28925C16.0268 3.63074 15.9583 4.15029 15.9512 4.36418C15.9498 4.41228 15.9522 4.43406 15.9495 4.45781C15.7964 9.50229 15.7633 12.0962 15.7449 13.7067C15.7337 14.6701 15.538 17.4271 15.5318 18.132C15.5312 18.2177 15.5646 18.3001 15.6252 18.3608L16.7506 19.3806C16.7513 19.3812 16.752 19.3819 16.7527 19.3826C16.8232 19.453 16.9224 19.4866 17.0213 19.4733C17.6182 19.3929 19.4991 19.1307 20.5048 18.8902C20.5631 18.8762 20.604 18.8328 20.6419 18.7831C20.6777 18.7358 20.71 18.6827 20.7452 18.634C20.3323 18.2064 20.2546 17.5405 20.5825 17.0255C20.9807 16.4007 21.653 16.408 21.6585 16.4077C21.6605 16.4077 21.6622 16.4077 21.6639 16.4077C21.7243 16.4097 21.9506 16.4124 22.2118 16.5361C22.8766 16.8517 23.1507 17.6403 22.8459 18.2871C22.566 18.8812 21.9043 19.1504 21.3162 18.9799ZM21.6585 17.0682C21.621 17.0662 21.4999 17.0589 21.3615 17.1146C20.92 17.2924 20.7721 17.8524 21.0799 18.2317C21.1024 18.2594 21.2282 18.4139 21.4553 18.4749C21.8017 18.568 22.1685 18.3982 22.3178 18.0683C22.5275 17.6046 22.1978 17.0582 21.6639 17.0685H21.6626C21.6615 17.0685 21.6602 17.0682 21.6588 17.0682H21.6585ZM8.33778 17.0065L8.33709 17.0672L8.33743 17.0675C8.33812 17.0615 8.34187 17.0338 8.34357 17.0061C8.34153 17.0061 8.33982 17.0065 8.33812 17.0065H8.33778ZM8.34118 17.0682C8.33982 17.0682 8.3388 17.0682 8.33812 17.0682H8.33778H8.33709L8.33607 17.0685C7.8022 17.0582 7.47219 17.6046 7.68219 18.0683C7.83117 18.3982 8.198 18.568 8.54472 18.4749C8.77177 18.4139 8.89723 18.2594 8.91973 18.2317C9.22758 17.8524 9.07996 17.2924 8.63813 17.1146C8.49971 17.0589 8.37868 17.0662 8.34118 17.0682ZM20.0596 13.571C20.0596 13.572 20.0592 13.5726 20.0596 13.5736L20.0599 13.574V13.5716C20.0599 13.5713 20.0599 13.5713 20.0599 13.571C20.0596 13.571 20.0596 13.571 20.0596 13.571ZM20.1158 13.634L20.1165 13.6347C20.1117 13.6343 20.1066 13.634 20.1015 13.6337C19.8676 13.6213 19.7009 13.7541 19.6208 13.8632C19.6017 13.8892 19.4919 14.0383 19.5083 14.2521C19.5294 14.534 19.7337 14.7305 19.9573 14.7868C20.2399 14.8582 20.5212 14.7178 20.6429 14.4806C20.8457 14.0863 20.5638 13.6237 20.1233 13.6347L20.1213 13.635L20.1158 13.634ZM20.1165 13.6347C20.11 13.634 20.1035 13.6327 20.0978 13.63L20.096 13.6297L20.0933 13.628C20.0899 13.6263 20.0868 13.6243 20.0838 13.622L20.08 13.6193L20.0749 13.6137L20.0742 13.6127L20.0735 13.612L20.0695 13.607C20.0756 13.618 20.0885 13.6323 20.1165 13.6347ZM9.94009 13.571C9.94009 13.5713 9.94009 13.5713 9.94009 13.5716V13.574L9.94043 13.5736C9.94043 13.5726 9.94043 13.572 9.94043 13.571C9.94009 13.571 9.94009 13.571 9.94009 13.571ZM9.88316 13.6347L9.88384 13.634L9.87873 13.635L9.87634 13.6347C9.43587 13.6237 9.15428 14.0863 9.35678 14.4806C9.47883 14.7178 9.75975 14.8582 10.0427 14.7868C10.266 14.7305 10.4702 14.534 10.4917 14.2521C10.5077 14.0383 10.3983 13.8892 10.3789 13.8632C10.2991 13.7541 10.132 13.6213 9.89816 13.6337C9.89305 13.634 9.88828 13.6343 9.88316 13.6347ZM9.88316 13.6347C9.91146 13.6323 9.92407 13.618 9.9302 13.607L9.92611 13.612L9.92578 13.6127L9.92475 13.6137L9.91998 13.6193L9.91589 13.622C9.91316 13.6243 9.91009 13.6263 9.90668 13.628L9.90361 13.6297L9.90191 13.63C9.89611 13.6327 9.88998 13.634 9.88316 13.6347ZM11.2673 10.6398C11.2673 10.6401 11.2673 10.6401 11.2673 10.6405V10.6428L11.2676 10.6425C11.2676 10.6415 11.2676 10.6408 11.2676 10.6398C11.2676 10.6398 11.2676 10.6398 11.2673 10.6398ZM11.2104 10.7035L11.2114 10.7028L11.2059 10.7038L11.2039 10.7035V10.7038C10.7634 10.6925 10.4815 11.1552 10.6843 11.5495C10.806 11.7866 11.0873 11.9271 11.3699 11.8557C11.5935 11.7993 11.7978 11.6028 11.8189 11.321C11.8353 11.1071 11.7255 10.958 11.7064 10.932C11.6263 10.8229 11.4596 10.6902 11.2254 10.7025C11.2206 10.7028 11.2155 10.7032 11.2104 10.7035ZM11.2107 10.7035C11.2386 10.7012 11.2516 10.6868 11.2577 10.6758L11.2537 10.6808L11.253 10.6815L11.2523 10.6825L11.2472 10.6882L11.2434 10.6908C11.2404 10.6932 11.2373 10.6952 11.2339 10.6968L11.2311 10.6985L11.2294 10.6988C11.2233 10.7015 11.2172 10.7028 11.2107 10.7035ZM18.732 10.6398C18.732 10.6408 18.732 10.6415 18.732 10.6425L18.7324 10.6428V10.6405C18.7324 10.6401 18.7324 10.6401 18.7324 10.6398H18.732ZM18.7886 10.7028L18.7893 10.7035C18.7842 10.7032 18.7794 10.7028 18.7743 10.7025C18.5404 10.6902 18.3734 10.8229 18.2933 10.932C18.2742 10.958 18.1647 11.1071 18.1808 11.321C18.2022 11.6028 18.4061 11.7993 18.6298 11.8557C18.9127 11.9271 19.1936 11.7866 19.3157 11.5495C19.5182 11.1552 19.2366 10.6925 18.7958 10.7038V10.7035L18.7937 10.7038L18.7886 10.7028ZM18.7893 10.7035C18.7825 10.7028 18.7764 10.7015 18.7706 10.6988L18.7685 10.6985L18.7658 10.6968C18.7624 10.6952 18.7593 10.6932 18.7566 10.6908L18.7525 10.6882L18.7477 10.6825L18.7467 10.6815L18.7464 10.6808L18.7419 10.6758C18.7484 10.6868 18.761 10.7012 18.7893 10.7035ZM18.3853 6.53491L18.3826 6.55256C18.3843 6.54745 18.3853 6.54208 18.3857 6.53654C18.3857 6.53601 18.3857 6.53548 18.3857 6.53494L18.3853 6.53491ZM18.3202 6.59535L18.3161 6.59438L18.3168 6.59519C18.2922 6.59278 18.1982 6.58291 18.0969 6.63542C17.8637 6.75627 17.8221 7.0248 17.9101 7.20093C18.0628 7.50749 18.4811 7.53218 18.6734 7.26031C18.8742 6.9771 18.6748 6.58364 18.328 6.59535C18.3267 6.59545 18.325 6.59549 18.3236 6.59549L18.3233 6.59545V6.59519L18.3219 6.59542V6.59545L18.3212 6.59555L18.3205 6.59539L18.3202 6.59535ZM18.328 6.59535C18.3349 6.59488 18.3413 6.59332 18.3475 6.59078L18.3236 6.59509V6.59549L18.3257 6.59542L18.328 6.59535ZM18.2711 6.56723C18.2769 6.57741 18.2885 6.59102 18.3134 6.59469C18.3079 6.59379 18.3025 6.59215 18.2974 6.58985L18.2967 6.58961L18.2953 6.58868C18.2905 6.58645 18.2868 6.58368 18.283 6.58047L18.281 6.57931L18.2796 6.57751C18.2766 6.57454 18.2738 6.5713 18.2718 6.56777L18.2711 6.56723ZM18.3601 6.58381L18.3478 6.59058C18.3522 6.58878 18.3563 6.58648 18.3601 6.58381ZM18.371 6.57364L18.3608 6.58331C18.3645 6.58051 18.3679 6.57724 18.371 6.57364ZM18.3826 6.55306L18.3713 6.57307C18.3761 6.56723 18.3802 6.56046 18.3826 6.55306ZM11.673 6.53341L11.676 6.59472V6.59489C11.6767 6.59035 11.6798 6.56166 11.6812 6.53314C11.6795 6.53327 11.6781 6.53341 11.6767 6.53354C11.6767 6.53381 11.6757 6.53357 11.676 6.53357L11.6764 6.53351C11.6754 6.53347 11.6743 6.53344 11.673 6.53341ZM11.6764 6.59545L11.674 6.59542C11.3259 6.58191 11.1251 6.97643 11.3263 7.26031C11.5189 7.53218 11.9369 7.50749 12.0896 7.20093C12.1775 7.0248 12.1359 6.75627 11.9028 6.63542C11.8015 6.58291 11.7074 6.59278 11.6829 6.59519L11.6835 6.59438L11.6795 6.59539L11.6788 6.59555L11.6781 6.59545H11.6778L11.6764 6.59515V6.59545ZM11.676 6.59545V6.59512V6.59509V6.59545ZM11.7285 6.56723L11.7282 6.56777C11.7258 6.57127 11.7231 6.57454 11.72 6.57751L11.7187 6.57931L11.717 6.58047C11.7132 6.58368 11.7091 6.58645 11.7047 6.58868L11.7033 6.58961L11.7023 6.58985C11.6972 6.59222 11.6917 6.59389 11.6859 6.59475C11.7112 6.59115 11.7228 6.57744 11.7285 6.56723ZM5.11133 16.2696C5.09973 16.2756 5.08576 16.2776 5.07212 16.2749C5.09871 16.2806 5.10792 16.2719 5.11133 16.2696ZM24.8883 16.2696C24.8917 16.2719 24.9013 16.2806 24.9279 16.2749C24.9139 16.2776 24.9003 16.2756 24.8883 16.2696Z" fill="url(#paint0_linear_1016_32)"/>
</g>
<defs>
<linearGradient id="paint0_linear_1016_32" x1="15.1368" y1="1.36514" x2="15" y2="30.252" gradientUnits="userSpaceOnUse">
<stop stop-color="#9CA7FF"/>
<stop offset="1" stop-color="#635BFF"/>
</linearGradient>
</defs>
</svg>
