<svg width="130" height="133" viewBox="0 0 130 133" fill="none" xmlns="http://www.w3.org/2000/svg">
  <path
    d="M65.9225 54.4469V79.9052H101.301C99.7472 88.0923 95.0852 95.0249 88.0935 99.6863L109.428 116.24C121.858 104.766 129.03 87.9136 129.03 67.8938C129.03 63.2326 128.611 58.75 127.834 54.4477L65.9225 54.4469Z"
    fill="#4285F4" />
  <path
    d="M29.0816 78.9114L24.2699 82.5947L7.23776 95.8615C18.0545 117.315 40.2241 132.136 65.9211 132.136C83.6696 132.136 98.5498 126.28 109.427 116.24L88.0921 99.6863C82.2356 103.631 74.7654 106.021 65.9211 106.021C48.8297 106.021 34.3082 94.4873 29.1086 78.9494L29.0816 78.9114Z"
    fill="#34A853" />
  <path
    d="M7.2378 36.9373C2.75598 45.7816 0.186523 55.7617 0.186523 66.3989C0.186523 77.0362 2.75598 87.0165 7.2378 95.8608C7.2378 95.9202 29.1106 78.8885 29.1106 78.8885C27.7958 74.9443 27.0187 70.7614 27.0187 66.3983C27.0187 62.0352 27.7958 57.8521 29.1106 53.9081L7.2378 36.9373Z"
    fill="#FBBC05" />
  <path
    d="M65.9225 26.8376C75.6039 26.8376 84.2093 30.1842 91.0817 36.6384L109.906 17.814C98.4919 7.1767 83.6717 0.662354 65.9225 0.662354C40.2255 0.662354 18.0545 15.4233 7.23776 36.9373L29.11 53.9093C34.3088 38.3713 48.8309 26.8376 65.9225 26.8376Z"
    fill="#EA4335" />
</svg>
  