<svg width="174" height="176" viewBox="0 0 174 176" fill="none" xmlns="http://www.w3.org/2000/svg">
    <path fill-rule="evenodd" clip-rule="evenodd"
        d="M100.177 47.8836L100.002 0.936768H73.8235L73.998 47.8836L87.0873 65.8595L100.177 47.8836ZM73.998 128.339V175.46H100.177V128.339L87.0873 110.363L73.998 128.339Z"
        fill="white" />
    <path fill-rule="evenodd" clip-rule="evenodd"
        d="M100.176 128.339L127.751 166.385L148.869 151.027L121.294 112.981L100.176 106.175V128.339ZM73.998 47.8837L46.2487 9.83752L25.1313 25.1956L52.7061 63.2417L73.998 70.0482V47.8837Z"
        fill="#00F2E6" />
    <path fill-rule="evenodd" clip-rule="evenodd"
        d="M52.7061 63.2417L8.02808 48.7562L0 73.5386L44.678 88.1985L65.7954 81.2176L52.7061 63.2417ZM108.205 95.005L121.294 112.981L165.972 127.466L174 102.684L129.322 88.1985L108.205 95.005Z"
        fill="#00B9F1" />
    <path fill-rule="evenodd" clip-rule="evenodd"
        d="M129.322 88.1985L174 73.5386L165.972 48.7562L121.294 63.2417L108.205 81.2176L129.322 88.1985ZM44.678 88.1985L0 102.684L8.02808 127.466L52.7061 112.981L65.7954 95.005L44.678 88.1985Z"
        fill="#D63AFF" />
    <path fill-rule="evenodd" clip-rule="evenodd"
        d="M52.7061 112.981L25.1313 151.027L46.2487 166.385L73.998 128.339V106.175L52.7061 112.981ZM121.294 63.2417L148.869 25.1956L127.751 9.83752L100.176 47.8837V70.0482L121.294 63.2417Z"
        fill="#FB015B" />
</svg>
    