<svg width="164" height="164" viewBox="0 0 164 164" fill="none" xmlns="http://www.w3.org/2000/svg">
  <path
    d="M161.161 101.711C150.248 145.482 105.91 172.121 62.1283 161.206C18.3654 150.293 -8.27581 105.957 2.64254 62.1899C13.5513 18.4139 57.8894 -8.22635 101.657 2.68599C145.435 13.5983 172.075 57.939 161.16 101.712L161.161 101.711H161.161Z"
    fill="#F7931A" />
  <path
    d="M117.933 70.3053C119.56 59.4321 111.281 53.5874 99.9597 49.6883L103.632 34.9596L94.6655 32.7256L91.0903 47.0665C88.733 46.4786 86.3121 45.9247 83.9061 45.3756L87.5072 30.94L78.546 28.7059L74.8714 43.4298C72.9206 42.9857 71.0046 42.5468 69.1458 42.0844L69.1562 42.038L56.7907 38.9505L54.4054 48.5266C54.4054 48.5266 61.0581 50.0514 60.9179 50.1452C64.5489 51.0514 65.2056 53.4548 65.0965 55.3598L60.9131 72.1392C61.1631 72.2027 61.4874 72.2946 61.8453 72.4384C61.5461 72.3641 61.2278 72.283 60.8975 72.2039L55.0337 95.7095C54.59 96.8126 53.4636 98.468 50.9249 97.8394C51.0148 97.9696 44.4077 96.2131 44.4077 96.2131L39.9559 106.476L51.6247 109.385C53.7955 109.929 55.9228 110.499 58.0177 111.034L54.3072 125.932L63.2636 128.166L66.9382 113.426C69.385 114.09 71.7595 114.703 74.0841 115.281L70.4219 129.951L79.3891 132.185L83.0993 117.315C98.3896 120.208 109.887 119.042 114.726 105.213C118.625 94.0797 114.532 87.6579 106.488 83.4701C112.347 82.119 116.76 78.2659 117.936 70.3065L117.934 70.3045L117.933 70.3053ZM97.4462 99.0303C94.6751 110.164 75.9274 104.145 69.8491 102.636L74.7731 82.8994C80.851 84.4166 100.342 87.419 97.4466 99.0303H97.4462ZM100.219 70.144C97.6914 80.2712 82.0875 75.1261 77.0258 73.8645L81.49 55.9644C86.5518 57.226 102.853 59.5807 100.22 70.144H100.219Z"
    fill="white" />
</svg>
  