<svg width="245" height="97" viewBox="0 0 245 97" fill="none" xmlns="http://www.w3.org/2000/svg">
  <path
    d="M115.929 47.4632V75.534H106.812V6.11169H130.518C136.292 6.11169 141.763 8.22455 146.018 12.1484C150.273 15.7704 152.401 21.2035 152.401 26.9384C152.401 32.6733 150.273 37.8045 146.018 41.7283C141.763 45.6522 136.596 47.7651 130.518 47.7651L115.929 47.4632ZM115.929 14.5631V38.71H131.126C134.469 38.71 137.812 37.5026 139.94 35.0879C144.802 30.5604 144.802 23.0145 140.244 18.487L139.94 18.1851C137.508 15.7704 134.469 14.2613 131.126 14.5631H115.929Z"
    fill="#5F6368" />
  <path
    d="M173.372 26.6365C180.058 26.6365 185.225 28.4475 189.176 32.0695C193.127 35.6916 194.951 40.5209 194.951 46.5576V75.5339H186.441V68.8935H186.137C182.489 74.3265 177.323 77.0431 171.244 77.0431C166.077 77.0431 161.519 75.5339 157.871 72.5155C154.528 69.4972 152.401 65.2715 152.401 60.7439C152.401 55.9146 154.224 51.9907 157.871 48.9723C161.519 45.954 166.685 44.7466 172.764 44.7466C178.235 44.7466 182.489 45.6521 185.833 47.765V45.6521C185.833 42.6338 184.617 39.6154 182.186 37.8044C179.754 35.6916 176.715 34.4842 173.372 34.4842C168.205 34.4842 164.254 36.5971 161.519 40.8228L153.616 35.9934C158.479 29.6548 164.862 26.6365 173.372 26.6365ZM161.822 61.0458C161.822 63.4605 163.038 65.5733 164.862 66.7807C166.989 68.2898 169.421 69.1953 171.852 69.1953C175.499 69.1953 179.146 67.6862 181.882 64.9696C184.921 62.2531 186.441 58.9329 186.441 55.3109C183.705 53.198 179.754 51.9907 174.587 51.9907C170.94 51.9907 167.901 52.8962 165.47 54.7072C163.038 56.2164 161.822 58.3292 161.822 61.0458Z"
    fill="#5F6368" />
  <path
    d="M244.187 28.1456L214.098 96.6624H204.98L216.225 72.8173L196.47 28.4475H206.196L220.48 62.5549H220.784L234.765 28.4475H244.187V28.1456Z"
    fill="#5F6368" />
  <path
    d="M79.7621 41.4264C79.7621 38.7099 79.4582 35.9934 79.1542 33.2769H41.1633V48.6705H62.7422C61.8304 53.4999 59.095 58.0274 54.8401 60.7439V70.7045H67.9089C75.5071 63.7623 79.7621 53.4999 79.7621 41.4264Z"
    fill="#4285F4" />
  <path
    d="M41.1632 80.3632C52.1046 80.3632 61.2224 76.7412 67.9088 70.7045L54.8399 60.7439C51.1928 63.1586 46.6339 64.6677 41.1632 64.6677C30.8297 64.6677 21.7119 57.7255 18.6726 48.0668H5.2998V58.3292C12.2901 71.9118 25.9669 80.3632 41.1632 80.3632Z"
    fill="#34A853" />
  <path
    d="M18.6726 48.0668C16.8491 43.2374 16.8491 37.8044 18.6726 32.6732V22.4108H5.29983C-0.474782 33.5787 -0.474782 46.8595 5.29983 58.3292L18.6726 48.0668Z"
    fill="#FBBC04" />
  <path
    d="M41.1633 16.3741C46.9379 16.3741 52.4086 18.4869 56.6636 22.4108L68.2128 10.941C60.9186 4.30062 51.1929 0.376757 41.4672 0.678593C26.2709 0.678593 12.2902 9.13 5.60382 22.7126L18.9766 32.975C21.712 23.3163 30.8298 16.3741 41.1633 16.3741Z"
    fill="#EA4335" />
</svg>
  