<svg width="182" height="182" viewBox="0 0 182 182" fill="none" xmlns="http://www.w3.org/2000/svg">
  <path
    d="M163.393 0.936768H17.7449C7.98281 0.936768 0.0690918 8.85048 0.0690918 18.6125V164.261C0.0690918 174.023 7.98281 181.937 17.7449 181.937H163.393C173.155 181.937 181.069 174.023 181.069 164.261V18.6125C181.069 8.85048 173.155 0.936768 163.393 0.936768Z"
    fill="#3178C6" />
  <path
    d="M163.393 0.936768H17.7449C7.98281 0.936768 0.0690918 8.85048 0.0690918 18.6125V164.261C0.0690918 174.023 7.98281 181.937 17.7449 181.937H163.393C173.155 181.937 181.069 174.023 181.069 164.261V18.6125C181.069 8.85048 173.155 0.936768 163.393 0.936768Z"
    fill="#3178C6" />
  <path fill-rule="evenodd" clip-rule="evenodd"
    d="M112.112 144.968V162.665C114.989 164.14 118.391 165.246 122.32 165.983C126.248 166.72 130.388 167.089 134.741 167.089C138.982 167.089 143.012 166.684 146.829 165.872C150.647 165.061 153.994 163.725 156.871 161.863C159.748 160.001 162.026 157.568 163.704 154.563C165.382 151.558 166.221 147.843 166.221 143.419C166.221 140.211 165.742 137.4 164.783 134.985C163.824 132.57 162.441 130.423 160.633 128.542C158.826 126.662 156.659 124.975 154.133 123.482C151.606 121.989 148.757 120.578 145.585 119.251C143.261 118.293 141.177 117.362 139.333 116.459C137.488 115.555 135.921 114.633 134.63 113.693C133.339 112.753 132.343 111.758 131.642 110.707C130.942 109.656 130.591 108.467 130.591 107.14C130.591 105.923 130.905 104.826 131.532 103.849C132.159 102.872 133.044 102.033 134.187 101.333C135.331 100.632 136.732 100.088 138.392 99.7013C140.052 99.3142 141.896 99.1208 143.925 99.1208C145.4 99.1208 146.958 99.2314 148.6 99.4524C150.241 99.6737 151.892 100.015 153.552 100.475C155.212 100.936 156.825 101.517 158.393 102.218C159.96 102.918 161.408 103.729 162.736 104.651V88.1151C160.043 87.0829 157.102 86.3179 153.911 85.8201C150.721 85.3224 147.06 85.0735 142.929 85.0735C138.724 85.0735 134.741 85.5253 130.978 86.4285C127.216 87.3317 123.906 88.7419 121.047 90.659C118.189 92.5765 115.93 95.0189 114.27 97.9871C112.61 100.955 111.78 104.503 111.78 108.633C111.78 113.905 113.302 118.403 116.345 122.127C119.387 125.851 124.007 129.003 130.204 131.584C132.638 132.58 134.907 133.556 137.009 134.515C139.111 135.474 140.928 136.469 142.458 137.502C143.989 138.534 145.197 139.658 146.083 140.875C146.968 142.092 147.411 143.474 147.411 145.023C147.411 146.166 147.134 147.226 146.58 148.203C146.027 149.18 145.188 150.028 144.063 150.747C142.938 151.466 141.536 152.028 139.858 152.433C138.18 152.839 136.216 153.042 133.966 153.042C130.13 153.042 126.331 152.369 122.569 151.023C118.807 149.678 115.321 147.659 112.112 144.968ZM82.3605 101.364H105.063V86.8411H41.7839V101.364H64.3757V166.029H82.3605V101.364Z"
    fill="white" />
</svg>
  