<svg width="113" height="127" viewBox="0 0 113 127" fill="none" xmlns="http://www.w3.org/2000/svg">
  <path
    d="M89.3645 102.216L76.7564 63.427L109.761 39.461H68.9633L56.3539 0.673319L56.3499 0.662792H97.1541L109.767 39.4566L109.767 39.4557L109.778 39.45C117.102 61.9554 109.559 87.553 89.3645 102.215V102.216ZM23.3398 102.216L23.3297 102.223L56.3434 126.196L89.3645 102.216L56.3539 78.2434L23.3398 102.216ZM2.93551 39.4509C-4.77506 63.1748 4.17526 88.3127 23.3336 102.22L23.3367 102.208L35.947 63.4217L2.94911 39.4601H43.7374L56.3473 0.67288L56.3499 0.662354H15.5436L2.93551 39.4509Z"
    fill="#EB5424" />
</svg>
  