<svg width="163" height="126" viewBox="0 0 163 126" fill="none" xmlns="http://www.w3.org/2000/svg">
  <path
    d="M137.835 10.7436C127.349 5.83723 116.136 2.27147 104.414 0.241089C102.974 2.84396 101.292 6.34488 100.132 9.12985C87.6708 7.25581 75.324 7.25581 63.0918 9.12985C61.9324 6.34488 60.2122 2.84396 58.7596 0.241089C47.0244 2.27147 35.7988 5.85033 25.3123 10.7696C4.1608 42.7322 -1.57302 73.901 1.29389 104.627C15.3227 115.103 28.9182 121.468 42.2843 125.632C45.5845 121.09 48.5278 116.262 51.0634 111.173C46.2343 109.338 41.609 107.074 37.2387 104.445C38.3981 103.586 39.5322 102.688 40.6279 101.764C67.2838 114.232 96.246 114.232 122.583 101.764C123.692 102.688 124.826 103.586 125.973 104.445C121.589 107.087 116.952 109.351 112.122 111.186C114.658 116.262 117.589 121.103 120.901 125.645C134.28 121.48 147.889 115.117 161.917 104.627C165.281 69.0077 156.171 38.1252 137.835 10.7436ZM54.6949 85.7308C46.6931 85.7308 40.1309 78.2606 40.1309 69.1638C40.1309 60.067 46.553 52.5839 54.6949 52.5839C62.8371 52.5839 69.399 60.0539 69.2589 69.1638C69.2715 78.2606 62.8371 85.7308 54.6949 85.7308ZM108.516 85.7308C100.515 85.7308 93.9525 78.2606 93.9525 69.1638C93.9525 60.067 100.374 52.5839 108.516 52.5839C116.658 52.5839 123.221 60.0539 123.08 69.1638C123.08 78.2606 116.658 85.7308 108.516 85.7308Z"
    fill="#5865F2" />
</svg>
  