<svg width="261" height="86" viewBox="0 0 261 86" fill="none" xmlns="http://www.w3.org/2000/svg">
  <path d="M113.1 84.7106H91.9569L105.181 2.42834H126.323L113.1 84.7106Z" fill="#00579F" />
  <path
    d="M189.744 4.43997C185.574 2.77511 178.96 0.93689 170.781 0.93689C149.902 0.93689 135.199 12.1407 135.109 28.1588C134.935 39.9769 145.635 46.5409 153.638 50.4815C161.818 54.5081 164.599 57.1363 164.599 60.7254C164.516 66.2378 157.989 68.7787 151.902 68.7787C143.461 68.7787 138.938 67.4687 132.064 64.4019L129.28 63.0872L126.322 81.5578C131.28 83.8311 140.416 85.8485 149.902 85.9369C172.086 85.9369 186.529 74.9065 186.7 57.8367C186.785 48.4699 181.134 41.2927 168.953 35.4279C161.558 31.663 157.029 29.1244 157.029 25.2723C157.116 21.7704 160.86 18.1835 169.207 18.1835C176.081 18.0079 181.131 19.6704 184.957 21.3341L186.869 22.2078L189.744 4.43997Z"
    fill="#00579F" />
  <path
    d="M217.845 55.5609C219.586 50.8339 226.286 32.539 226.286 32.539C226.198 32.7147 228.024 27.7248 229.068 24.6614L230.545 31.7514C230.545 31.7514 234.549 51.447 235.419 55.5609C232.114 55.5609 222.021 55.5609 217.845 55.5609ZM243.943 2.42834H227.589C222.546 2.42834 218.714 3.91521 216.539 9.25534L185.134 84.7094H207.318C207.318 84.7094 210.97 74.5539 211.755 72.3666C214.189 72.3666 235.77 72.3666 238.901 72.3666C239.508 75.2554 241.424 84.7094 241.424 84.7094H261L243.943 2.42834Z"
    fill="#00579F" />
  <path
    d="M74.2976 2.42834L53.5918 58.537L51.3291 47.1575C47.5011 34.027 35.4954 19.7611 22.0978 12.6677L41.0635 84.6233H63.4215L96.6544 2.42834H74.2976Z"
    fill="#00579F" />
  <path
    d="M34.3648 2.42834H0.348005L0 4.09088C26.5352 10.919 44.1089 27.378 51.3292 47.161L43.9344 9.34492C42.7169 4.08972 38.9755 2.6017 34.3648 2.42834Z"
    fill="#FAA61A" />
</svg>
  