<svg width="24" height="24" viewBox="0 0 24 24" fill="none" xmlns="http://www.w3.org/2000/svg">
<g id="freepik--coin--inject-81">
<path id="Vector" d="M0.000111403 11.9502C-0.0021367 12.4767 0.0296421 13.0029 0.095249 13.5254C0.39219 15.8486 1.36266 18.034 2.88696 19.8122C4.41126 21.5904 6.42272 22.8835 8.67323 23.532C9.73835 23.8374 10.8404 23.9948 11.9485 23.9999C12.7909 24.0038 13.6314 23.9196 14.4563 23.7488C16.0286 23.4177 17.5187 22.7752 18.8387 21.8591C20.1588 20.9431 21.282 19.7719 22.1422 18.4148C22.2529 18.2401 22.359 18.0608 22.4619 17.8814C22.9381 17.036 23.3094 16.1357 23.5677 15.2004C23.6551 14.8885 23.7237 14.561 23.7923 14.2335C23.8609 13.9059 23.903 13.5737 23.9373 13.2353C23.9779 12.8454 23.9987 12.4508 23.9997 12.0515C24.0024 11.5705 23.9759 11.0898 23.9202 10.612C23.8828 10.2813 23.8308 9.95538 23.7642 9.6341C23.2968 7.31633 22.1557 5.1881 20.4838 3.5162C18.8119 1.8443 16.6837 0.703135 14.3659 0.235757C14.0446 0.170253 13.7171 0.118785 13.3864 0.0797943C12.9422 0.0279719 12.4955 0.00141567 12.0483 0.000253345C11.6196 -0.00257316 11.1911 0.0182532 10.7647 0.0626383C10.4278 0.0953905 10.094 0.145299 9.76653 0.207684C9.439 0.270069 9.11616 0.343372 8.79799 0.430712C7.86242 0.68885 6.96203 1.06074 6.11699 1.53805C5.93607 1.63943 5.75671 1.74548 5.58203 1.84998C3.65819 3.07157 2.11933 4.81266 1.14332 6.87199C0.740754 7.72187 0.440754 8.61663 0.249652 9.5374C0.0858328 10.3313 0.00223237 11.1396 0.000111403 11.9502Z" fill="url(#paint0_linear_514_1773)"/>
<path id="Vector_2" opacity="0.1" d="M0.000111403 11.9502C-0.0021367 12.4767 0.0296421 13.0029 0.095249 13.5254C0.39219 15.8486 1.36266 18.034 2.88696 19.8122C4.41126 21.5904 6.42272 22.8835 8.67323 23.532C9.73835 23.8374 10.8404 23.9948 11.9485 23.9999C12.7909 24.0038 13.6314 23.9196 14.4563 23.7488C16.0286 23.4177 17.5187 22.7752 18.8387 21.8591C20.1588 20.9431 21.282 19.7719 22.1422 18.4148C22.2529 18.2401 22.359 18.0608 22.4619 17.8814C22.9381 17.036 23.3094 16.1357 23.5677 15.2004C23.6551 14.8885 23.7237 14.561 23.7923 14.2335C23.8609 13.9059 23.903 13.5737 23.9373 13.2353C23.9779 12.8454 23.9987 12.4508 23.9997 12.0515C24.0024 11.5705 23.9759 11.0898 23.9202 10.612C23.8828 10.2813 23.8308 9.95538 23.7642 9.6341C23.2968 7.31633 22.1557 5.1881 20.4838 3.5162C18.8119 1.8443 16.6837 0.703135 14.3659 0.235757C14.0446 0.170253 13.7171 0.118785 13.3864 0.0797943C12.9422 0.0279719 12.4955 0.00141567 12.0483 0.000253345C11.6196 -0.00257316 11.1911 0.0182532 10.7647 0.0626383C10.4278 0.0953905 10.094 0.145299 9.76653 0.207684C9.439 0.270069 9.11616 0.343372 8.79799 0.430712C7.86242 0.68885 6.96203 1.06074 6.11699 1.53805C5.93607 1.63943 5.75671 1.74548 5.58203 1.84998C3.65819 3.07157 2.11933 4.81266 1.14332 6.87199C0.740754 7.72187 0.440754 8.61663 0.249652 9.5374C0.0858328 10.3313 0.00223237 11.1396 0.000111403 11.9502Z" fill="#9CA7FF"/>
<path id="Vector_3" opacity="0.05" d="M23.5306 8.6748C23.621 8.98673 23.7006 9.31113 23.7661 9.63866C23.8316 9.96618 23.8831 10.2859 23.9221 10.6165C23.9778 11.0943 24.0043 11.5751 24.0016 12.0561C24.0016 12.4554 23.9808 12.8499 23.9392 13.2398C23.9049 13.5788 23.8566 13.9115 23.7942 14.238C23.7318 14.5655 23.6569 14.8868 23.5696 15.205C23.3101 16.1371 22.9383 17.0342 22.4622 17.8766C22.3593 18.056 22.2533 18.2353 22.1425 18.41C21.0576 20.1301 19.5524 21.5455 17.7689 22.5227C15.9854 23.4999 13.9824 24.0066 11.9488 23.9951C11.511 23.9923 11.0736 23.9657 10.6387 23.9155L23.5306 8.6748Z" fill="#3725AE"/>
<path id="Vector_4" opacity="0.05" d="M23.3444 15.918C23.1102 16.5964 22.8147 17.252 22.4617 17.8769C22.3587 18.0562 22.2527 18.2356 22.1419 18.4103C21.0518 20.1298 19.5434 21.5449 17.7578 22.523L23.3444 15.918Z" fill="#3725AE"/>
<path id="Vector_5" opacity="0.15" d="M21.8891 5.20166C22.2755 5.76206 22.6126 6.35486 22.8967 6.9734L8.85997 23.5819L8.6697 23.5305C8.08191 23.3583 7.50833 23.1408 6.9541 22.8801L21.8891 5.20166Z" fill="#9CA7FF"/>
<path id="Vector_6" opacity="0.15" d="M17.2993 1.23071C17.9286 1.54204 18.5298 1.90732 19.096 2.32246L3.64161 20.6045C3.13805 20.1147 2.67828 19.5819 2.26758 19.0121L17.2993 1.23071Z" fill="#9CA7FF"/>
<path id="Vector_7" opacity="0.15" d="M15.5464 0.533691C15.9176 0.649104 16.2815 0.781153 16.6382 0.929837L1.86066 18.4102C1.65479 18.0842 1.45984 17.7505 1.28516 17.4042L15.5464 0.533691Z" fill="#9CA7FF"/>
<path id="Vector_8" opacity="0.15" d="M0.0341797 11.1328C0.049776 10.9114 0.0731702 10.6915 0.0996839 10.4747C0.109042 10.4014 0.11684 10.3281 0.127757 10.2563C0.138675 10.1846 0.149592 10.1004 0.162069 10.0333C0.190143 9.87735 0.218216 9.70579 0.250968 9.54359C0.725045 7.27323 1.84823 5.1894 3.48409 3.54524C4.1185 2.90551 4.82266 2.33894 5.58335 1.85616C5.75803 1.74543 5.93739 1.63937 6.1183 1.54423C6.96335 1.06692 7.86374 0.695033 8.79931 0.436894C8.91784 0.404142 9.03638 0.376069 9.15647 0.346436L0.0341797 11.1328Z" fill="#9CA7FF"/>
<path id="Vector_9" d="M3.05859 12.0001C3.05827 14.2679 3.91983 16.451 5.46879 18.1074C7.01775 19.7638 9.13833 20.7696 11.4011 20.9212C11.5976 20.9336 11.8003 20.9414 12.0015 20.9414C14.3527 20.9104 16.597 19.9546 18.2486 18.281C19.9003 16.6074 20.8264 14.3506 20.8264 11.9993C20.8264 9.64792 19.9003 7.39117 18.2486 5.71756C16.597 4.04396 14.3527 3.08818 12.0015 3.05713C11.8003 3.05713 11.5976 3.05713 11.4011 3.0774C9.13833 3.22967 7.01795 4.23593 5.4691 5.89249C3.92025 7.54906 3.05862 9.73221 3.05859 12.0001Z" fill="url(#paint1_linear_514_1773)"/>
<path id="Vector_10" opacity="0.4" d="M3.05859 12.0001C3.05827 14.2679 3.91983 16.451 5.46879 18.1074C7.01775 19.7638 9.13833 20.7696 11.4011 20.9212C11.5976 20.9336 11.8003 20.9414 12.0015 20.9414C14.3527 20.9104 16.597 19.9546 18.2486 18.281C19.9003 16.6074 20.8264 14.3506 20.8264 11.9993C20.8264 9.64792 19.9003 7.39117 18.2486 5.71756C16.597 4.04396 14.3527 3.08818 12.0015 3.05713C11.8003 3.05713 11.5976 3.05713 11.4011 3.0774C9.13833 3.22967 7.01795 4.23593 5.4691 5.89249C3.92025 7.54906 3.05862 9.73221 3.05859 12.0001Z" fill="#3725AE"/>
<path id="Vector_11" d="M3.45605 12C3.45605 12.1559 3.45605 12.3119 3.46853 12.4554C3.57964 14.5398 4.45012 16.5114 5.91558 17.9978C7.38104 19.4842 9.34004 20.3826 11.4227 20.5233L11.5396 20.5311C11.6956 20.5311 11.8422 20.5436 11.995 20.5436C14.1366 20.5478 16.2014 19.7466 17.7797 18.2991C19.358 16.8517 20.3345 14.8638 20.5153 12.7299C20.5371 12.4881 20.5465 12.2448 20.5465 11.9968C20.5465 11.7489 20.5387 11.5461 20.5215 11.3246C20.4867 10.8655 20.4137 10.4101 20.3032 9.96308C19.9294 8.44623 19.1475 7.06064 18.0423 5.95653C16.9371 4.85241 15.5507 4.0719 14.0335 3.6996C13.5865 3.58914 13.131 3.5161 12.6719 3.48125C12.4505 3.4641 12.2259 3.4563 11.9997 3.4563C11.8079 3.4563 11.616 3.4563 11.4273 3.47501C11.3743 3.47501 11.3213 3.47501 11.2714 3.48749C10.0266 3.59157 8.82025 3.96971 7.7388 4.59483C6.43709 5.34345 5.35604 6.42238 4.60486 7.72262C3.85369 9.02286 3.45902 10.4983 3.46073 12H3.45605Z" fill="url(#paint2_linear_514_1773)"/>
<path id="Vector_12" opacity="0.5" d="M3.45605 12C3.45605 12.1559 3.45605 12.3119 3.46853 12.4554C3.57964 14.5398 4.45012 16.5114 5.91558 17.9978C7.38104 19.4842 9.34004 20.3826 11.4227 20.5233L11.5396 20.5311C11.6956 20.5311 11.8422 20.5436 11.995 20.5436C14.1366 20.5478 16.2014 19.7466 17.7797 18.2991C19.358 16.8517 20.3345 14.8638 20.5153 12.7299C20.5371 12.4881 20.5465 12.2448 20.5465 11.9968C20.5465 11.7489 20.5387 11.5461 20.5215 11.3246C20.4867 10.8655 20.4137 10.4101 20.3032 9.96308C19.9294 8.44623 19.1475 7.06064 18.0423 5.95653C16.9371 4.85241 15.5507 4.0719 14.0335 3.6996C13.5865 3.58914 13.131 3.5161 12.6719 3.48125C12.4505 3.4641 12.2259 3.4563 11.9997 3.4563C11.8079 3.4563 11.616 3.4563 11.4273 3.47501C11.3743 3.47501 11.3213 3.47501 11.2714 3.48749C10.0266 3.59157 8.82025 3.96971 7.7388 4.59483C6.43709 5.34345 5.35604 6.42238 4.60486 7.72262C3.85369 9.02286 3.45902 10.4983 3.46073 12H3.45605Z" fill="#3725AE"/>
<path id="Vector_13" d="M18.0204 18.0623C19.4619 16.6395 20.347 14.7482 20.5158 12.7299C20.5377 12.4881 20.5486 12.2448 20.5486 11.9968C20.5486 11.7489 20.5392 11.5461 20.5221 11.3246C20.4872 10.8655 20.4142 10.4101 20.3037 9.96308C19.9299 8.44623 19.148 7.06064 18.0428 5.95653C16.9376 4.85241 15.5512 4.0719 14.034 3.6996C13.587 3.58914 13.1316 3.5161 12.6724 3.48125C12.451 3.4641 12.2264 3.4563 12.0002 3.4563C11.8084 3.4563 11.6166 3.4563 11.4279 3.47501C11.3748 3.47501 11.3218 3.47501 11.2719 3.48749C10.0271 3.59157 8.82077 3.96971 7.73932 4.59483C7.36447 4.81437 7.00681 5.06202 6.66941 5.33565C5.87089 6.12721 5.23746 7.06944 4.80589 8.10769C4.37431 9.14594 4.15317 10.2595 4.15529 11.3839C4.15529 11.5399 4.15529 11.688 4.16932 11.8393C4.27977 13.9239 5.15003 15.8959 6.61562 17.3825C8.08122 18.869 10.0406 19.7672 12.1234 19.9073H12.2389C12.3948 19.9151 12.543 19.9198 12.6958 19.9198C14.6318 19.9217 16.5101 19.2613 18.0189 18.0482L18.0204 18.0623Z" fill="url(#paint3_linear_514_1773)"/>
<path id="Vector_14" opacity="0.25" d="M18.0204 18.0623C19.4619 16.6395 20.347 14.7482 20.5158 12.7299C20.5377 12.4881 20.5486 12.2448 20.5486 11.9968C20.5486 11.7489 20.5392 11.5461 20.5221 11.3246C20.4872 10.8655 20.4142 10.4101 20.3037 9.96308C19.9299 8.44623 19.148 7.06064 18.0428 5.95653C16.9376 4.85241 15.5512 4.0719 14.034 3.6996C13.587 3.58914 13.1316 3.5161 12.6724 3.48125C12.451 3.4641 12.2264 3.4563 12.0002 3.4563C11.8084 3.4563 11.6166 3.4563 11.4279 3.47501C11.3748 3.47501 11.3218 3.47501 11.2719 3.48749C10.0271 3.59157 8.82077 3.96971 7.73932 4.59483C7.36447 4.81437 7.00681 5.06202 6.66941 5.33565C5.87089 6.12721 5.23746 7.06944 4.80589 8.10769C4.37431 9.14594 4.15317 10.2595 4.15529 11.3839C4.15529 11.5399 4.15529 11.688 4.16932 11.8393C4.27977 13.9239 5.15003 15.8959 6.61562 17.3825C8.08122 18.869 10.0406 19.7672 12.1234 19.9073H12.2389C12.3948 19.9151 12.543 19.9198 12.6958 19.9198C14.6318 19.9217 16.5101 19.2613 18.0189 18.0482L18.0204 18.0623Z" fill="#3725AE"/>
<path id="Vector_15" d="M10.7145 5.6851L10.7051 6.83611C10.7051 6.83611 9.52136 6.62712 8.17228 7.69235C8.11613 7.73758 8.06622 7.78125 8.01631 7.82492C7.73674 8.067 7.51447 8.36819 7.36558 8.7067C7.21669 9.04522 7.1449 9.41259 7.1554 9.78226C7.14432 10.1552 7.21703 10.526 7.36818 10.8671C7.51933 11.2083 7.74508 11.5112 8.02879 11.7536C8.07402 11.7926 8.12705 11.8285 8.17228 11.8675L8.18631 11.8815L8.34228 11.9938C8.38939 12.0272 8.43834 12.0579 8.48888 12.0858C8.50852 12.0988 8.52882 12.1108 8.54971 12.1217C8.58675 12.1473 8.62588 12.1697 8.66668 12.1888C9.00671 12.3702 9.3615 12.5226 9.72723 12.6442C9.90659 12.7066 10.0922 12.7627 10.2778 12.8142C10.546 12.8906 10.8143 12.9608 11.0701 13.0263L11.382 13.1027C12.1119 13.279 12.6437 13.4224 12.9806 13.6127C13.1696 13.6985 13.3217 13.8489 13.4095 14.0369C13.4491 14.1361 13.4692 14.242 13.4688 14.3489C13.4688 14.7965 13.096 15.1583 12.0823 15.1287C11.003 15.0881 10.3963 14.6608 10.2513 14.0026L7.28797 14.5578C7.73558 15.9147 8.94118 16.8006 10.833 17.125V18.6082L13.2723 18.6987V17.2155C14.297 17.1297 15.1438 16.8505 15.7209 16.3811L15.7365 16.3686C16.0361 16.1228 16.2747 15.811 16.4338 15.4577C16.5929 15.1043 16.6681 14.7189 16.6536 14.3317C16.6629 12.3775 15.1111 11.6803 13.4501 11.2249C11.8982 10.8085 10.518 10.7056 10.5211 9.75574C10.5211 9.16308 11.0638 8.91666 11.8624 8.94473C13.1366 8.98996 13.6325 9.7417 13.7339 10.2876L16.8532 9.72143C16.7836 9.44158 16.6788 9.17169 16.5413 8.91822C16.3054 8.49487 15.9777 8.1298 15.5821 7.84987C14.8896 7.35079 14.01 7.07006 13.1272 6.93281V5.44492L10.7129 5.31079L10.7145 5.6851Z" fill="url(#paint4_linear_514_1773)"/>
<path id="Vector_16" opacity="0.1" d="M10.7145 5.6851L10.7051 6.83611C10.7051 6.83611 9.52136 6.62712 8.17228 7.69235C8.11613 7.73758 8.06622 7.78125 8.01631 7.82492C7.73674 8.067 7.51447 8.36819 7.36558 8.7067C7.21669 9.04522 7.1449 9.41259 7.1554 9.78226C7.14432 10.1552 7.21703 10.526 7.36818 10.8671C7.51933 11.2083 7.74508 11.5112 8.02879 11.7536C8.07402 11.7926 8.12705 11.8285 8.17228 11.8675L8.18631 11.8815L8.34228 11.9938C8.38939 12.0272 8.43834 12.0579 8.48888 12.0858C8.50852 12.0988 8.52882 12.1108 8.54971 12.1217C8.58675 12.1473 8.62588 12.1697 8.66668 12.1888C9.00671 12.3702 9.3615 12.5226 9.72723 12.6442C9.90659 12.7066 10.0922 12.7627 10.2778 12.8142C10.546 12.8906 10.8143 12.9608 11.0701 13.0263L11.382 13.1027C12.1119 13.279 12.6437 13.4224 12.9806 13.6127C13.1696 13.6985 13.3217 13.8489 13.4095 14.0369C13.4491 14.1361 13.4692 14.242 13.4688 14.3489C13.4688 14.7965 13.096 15.1583 12.0823 15.1287C11.003 15.0881 10.3963 14.6608 10.2513 14.0026L7.28797 14.5578C7.73558 15.9147 8.94118 16.8006 10.833 17.125V18.6082L13.2723 18.6987V17.2155C14.297 17.1297 15.1438 16.8505 15.7209 16.3811L15.7365 16.3686C16.0361 16.1228 16.2747 15.811 16.4338 15.4577C16.5929 15.1043 16.6681 14.7189 16.6536 14.3317C16.6629 12.3775 15.1111 11.6803 13.4501 11.2249C11.8982 10.8085 10.518 10.7056 10.5211 9.75574C10.5211 9.16308 11.0638 8.91666 11.8624 8.94473C13.1366 8.98996 13.6325 9.7417 13.7339 10.2876L16.8532 9.72143C16.7836 9.44158 16.6788 9.17169 16.5413 8.91822C16.3054 8.49487 15.9777 8.1298 15.5821 7.84987C14.8896 7.35079 14.01 7.07006 13.1272 6.93281V5.44492L10.7129 5.31079L10.7145 5.6851Z" fill="#9CA7FF"/>
<path id="Vector_17" opacity="0.15" d="M7.28809 14.5532C7.36921 14.7915 7.47754 15.0197 7.61093 15.2332L8.46249 14.3333L7.28809 14.5532Z" fill="#9CA7FF"/>
<path id="Vector_18" opacity="0.15" d="M16.6504 14.2631C16.6589 13.9034 16.5902 13.5461 16.4489 13.2152C16.3077 12.8843 16.0972 12.5875 15.8316 12.3447L10.833 17.6381V18.6035L12.4971 18.6659L13.277 17.8409V17.217C13.5055 17.1978 13.733 17.1671 13.9585 17.125L16.6504 14.2631Z" fill="#9CA7FF"/>
<path id="Vector_19" opacity="0.15" d="M7.16699 10.0785C7.19997 10.4931 7.3379 10.8924 7.56782 11.2389L13.0452 5.43394L11.6229 5.35596L10.7105 6.32293V6.83605C10.5524 6.81801 10.3928 6.81801 10.2348 6.83605L7.16699 10.0785Z" fill="#9CA7FF"/>
<path id="Vector_20" opacity="0.15" d="M8.18313 11.8847L8.33909 11.997C8.38621 12.0304 8.43515 12.0611 8.4857 12.089C8.50534 12.102 8.52564 12.114 8.54653 12.1249C8.58357 12.1504 8.6227 12.1729 8.6635 12.1919C9.00353 12.3734 9.35831 12.5257 9.72405 12.6473C9.80671 12.6754 9.89249 12.6988 9.97671 12.7253L11.7874 10.8085C11.0326 10.5949 10.5163 10.3313 10.5179 9.7511C10.5195 9.17092 11.0607 8.91202 11.8592 8.94009C12.3244 8.93828 12.7778 9.0865 13.1521 9.36275L14.9363 7.47248C14.3616 7.20293 13.7505 7.01903 13.1225 6.92661V6.3667L8.03809 11.7615C8.08176 11.7989 8.13166 11.8348 8.17377 11.8706L8.18313 11.8847Z" fill="#9CA7FF"/>
</g>
<defs>
<linearGradient id="paint0_linear_514_1773" x1="12" y1="0" x2="12" y2="24" gradientUnits="userSpaceOnUse">
<stop stop-color="#7578FF"/>
<stop offset="1" stop-color="#635BFF"/>
</linearGradient>
<linearGradient id="paint1_linear_514_1773" x1="11.9425" y1="3.05713" x2="11.9425" y2="20.9414" gradientUnits="userSpaceOnUse">
<stop stop-color="#7578FF"/>
<stop offset="1" stop-color="#635BFF"/>
</linearGradient>
<linearGradient id="paint2_linear_514_1773" x1="12.0013" y1="3.4563" x2="12.0013" y2="20.5436" gradientUnits="userSpaceOnUse">
<stop stop-color="#7578FF"/>
<stop offset="1" stop-color="#635BFF"/>
</linearGradient>
<linearGradient id="paint3_linear_514_1773" x1="12.3519" y1="3.4563" x2="12.3519" y2="19.9198" gradientUnits="userSpaceOnUse">
<stop stop-color="#7578FF"/>
<stop offset="1" stop-color="#635BFF"/>
</linearGradient>
<linearGradient id="paint4_linear_514_1773" x1="12.0037" y1="5.31079" x2="12.0037" y2="18.6987" gradientUnits="userSpaceOnUse">
<stop stop-color="#7578FF"/>
<stop offset="1" stop-color="#635BFF"/>
</linearGradient>
</defs>
</svg>
