<svg width="64" height="84" viewBox="0 0 64 84" fill="none" xmlns="http://www.w3.org/2000/svg">
  <g filter="url(#filter0_ddd_14337_183747)">
    <path
      d="M6 6C6 4.34315 7.34315 3 9 3L36.3712 3C37.296 3 38.1691 3.42653 38.7376 4.156L57.3664 28.0619C57.777 28.5888 58 29.2378 58 29.9059V72C58 73.6569 56.6569 75 55 75H9C7.34314 75 6 73.6569 6 72V6Z"
      fill="url(#paint0_linear_14337_183747)" />
    <path
      d="M55 74.5H9C7.61929 74.5 6.5 73.3807 6.5 72V6C6.5 4.61929 7.61929 3.5 9 3.5H36.3712C37.1419 3.5 37.8695 3.85544 38.3432 4.46333L56.972 28.3692C57.3142 28.8083 57.5 29.3491 57.5 29.9059V72C57.5 73.3807 56.3807 74.5 55 74.5Z"
      stroke="url(#paint1_linear_14337_183747)" />
  </g>
  <g filter="url(#filter1_ddd_14337_183747)">
    <path
      d="M47.3878 15.1765L36.7755 3V25.875C36.7755 27.5319 38.1187 28.875 39.7755 28.875H58L47.3878 15.1765Z"
      fill="url(#paint2_linear_14337_183747)" />
    <path
      d="M47.1945 15.3353L57.4901 28.625H39.7755C38.2567 28.625 37.0255 27.3938 37.0255 25.875V3.66735L47.1945 15.3353Z"
      stroke="url(#paint3_linear_14337_183747)" stroke-width="0.5" />
  </g>
  <rect x="16.6123" y="49.125" width="29.7143" height="4.5" rx="2" fill="#B3B9C6" />
  <rect x="22.9796" y="40.125" width="16.9796" height="4.5" rx="2" fill="#FF6C47" />
  <defs>
    <filter id="filter0_ddd_14337_183747" x="0" y="0" width="64" height="84"
      filterUnits="userSpaceOnUse" color-interpolation-filters="sRGB">
      <feFlood flood-opacity="0" result="BackgroundImageFix" />
      <feColorMatrix in="SourceAlpha" type="matrix"
        values="0 0 0 0 0 0 0 0 0 0 0 0 0 0 0 0 0 0 127 0" result="hardAlpha" />
      <feOffset />
      <feComposite in2="hardAlpha" operator="out" />
      <feColorMatrix type="matrix" values="0 0 0 0 0 0 0 0 0 0 0 0 0 0 0 0 0 0 0.04 0" />
      <feBlend mode="normal" in2="BackgroundImageFix" result="effect1_dropShadow_14337_183747" />
      <feColorMatrix in="SourceAlpha" type="matrix"
        values="0 0 0 0 0 0 0 0 0 0 0 0 0 0 0 0 0 0 127 0" result="hardAlpha" />
      <feOffset dy="1" />
      <feGaussianBlur stdDeviation="1.5" />
      <feComposite in2="hardAlpha" operator="out" />
      <feColorMatrix type="matrix" values="0 0 0 0 0 0 0 0 0 0 0 0 0 0 0 0 0 0 0.07 0" />
      <feBlend mode="normal" in2="effect1_dropShadow_14337_183747"
        result="effect2_dropShadow_14337_183747" />
      <feColorMatrix in="SourceAlpha" type="matrix"
        values="0 0 0 0 0 0 0 0 0 0 0 0 0 0 0 0 0 0 127 0" result="hardAlpha" />
      <feOffset dy="3" />
      <feGaussianBlur stdDeviation="3" />
      <feComposite in2="hardAlpha" operator="out" />
      <feColorMatrix type="matrix" values="0 0 0 0 0 0 0 0 0 0 0 0 0 0 0 0 0 0 0.05 0" />
      <feBlend mode="normal" in2="effect2_dropShadow_14337_183747"
        result="effect3_dropShadow_14337_183747" />
      <feBlend mode="normal" in="SourceGraphic" in2="effect3_dropShadow_14337_183747" result="shape" />
    </filter>
    <filter id="filter1_ddd_14337_183747" x="34.7755" y="2.25" width="25.2245" height="30.625"
      filterUnits="userSpaceOnUse" color-interpolation-filters="sRGB">
      <feFlood flood-opacity="0" result="BackgroundImageFix" />
      <feColorMatrix in="SourceAlpha" type="matrix"
        values="0 0 0 0 0 0 0 0 0 0 0 0 0 0 0 0 0 0 127 0" result="hardAlpha" />
      <feOffset />
      <feComposite in2="hardAlpha" operator="out" />
      <feColorMatrix type="matrix" values="0 0 0 0 0 0 0 0 0 0 0 0 0 0 0 0 0 0 0.04 0" />
      <feBlend mode="normal" in2="BackgroundImageFix" result="effect1_dropShadow_14337_183747" />
      <feColorMatrix in="SourceAlpha" type="matrix"
        values="0 0 0 0 0 0 0 0 0 0 0 0 0 0 0 0 0 0 127 0" result="hardAlpha" />
      <feOffset dy="2" />
      <feGaussianBlur stdDeviation="1" />
      <feComposite in2="hardAlpha" operator="out" />
      <feColorMatrix type="matrix" values="0 0 0 0 0 0 0 0 0 0 0 0 0 0 0 0 0 0 0.13 0" />
      <feBlend mode="normal" in2="effect1_dropShadow_14337_183747"
        result="effect2_dropShadow_14337_183747" />
      <feColorMatrix in="SourceAlpha" type="matrix"
        values="0 0 0 0 0 0 0 0 0 0 0 0 0 0 0 0 0 0 127 0" result="hardAlpha" />
      <feOffset dy="0.25" />
      <feGaussianBlur stdDeviation="0.5" />
      <feComposite in2="hardAlpha" operator="out" />
      <feColorMatrix type="matrix" values="0 0 0 0 0 0 0 0 0 0 0 0 0 0 0 0 0 0 0.13 0" />
      <feBlend mode="normal" in2="effect2_dropShadow_14337_183747"
        result="effect3_dropShadow_14337_183747" />
      <feBlend mode="normal" in="SourceGraphic" in2="effect3_dropShadow_14337_183747" result="shape" />
    </filter>
    <linearGradient id="paint0_linear_14337_183747" x1="32" y1="3" x2="32" y2="75"
      gradientUnits="userSpaceOnUse">
      <stop stop-color="white" />
      <stop offset="1" stop-color="#EFEFEF" />
    </linearGradient>
    <linearGradient id="paint1_linear_14337_183747" x1="31.4694" y1="75" x2="31.4694" y2="6.375"
      gradientUnits="userSpaceOnUse">
      <stop stop-color="white" />
      <stop offset="1" stop-color="white" stop-opacity="0" />
    </linearGradient>
    <linearGradient id="paint2_linear_14337_183747" x1="35.3605" y1="28.875" x2="45.998"
      y2="30.1935" gradientUnits="userSpaceOnUse">
      <stop stop-color="#FAFAFA" />
      <stop offset="1" stop-color="#EDEDED" />
    </linearGradient>
    <linearGradient id="paint3_linear_14337_183747" x1="49.5102" y1="44.0956" x2="47.8737"
      y2="16.7118" gradientUnits="userSpaceOnUse">
      <stop stop-color="white" />
      <stop offset="1" stop-color="white" stop-opacity="0" />
    </linearGradient>
  </defs>
</svg>