<svg width="24" height="24" viewBox="0 0 24 24" fill="none" xmlns="http://www.w3.org/2000/svg">
<g id="Instance #1">
<path id="Vector" d="M7.31588 0.230359L13.3403 4.48106L20.2717 1.86774C20.4224 1.81256 20.5856 1.80175 20.7422 1.83657C20.8988 1.87139 21.0422 1.9504 21.1556 2.06431C21.269 2.17821 21.3477 2.32227 21.3824 2.47955C21.417 2.63682 21.4063 2.80076 21.3513 2.9521L19.192 10.0764L23.8129 15.8886C23.9119 16.0116 23.9745 16.1599 23.9937 16.3169C24.0129 16.4738 23.9879 16.633 23.9216 16.7764C23.8553 16.9198 23.7502 17.0417 23.6184 17.1282C23.4866 17.2147 23.3333 17.2623 23.1759 17.2657L15.7695 17.4067L11.6885 23.62C11.6016 23.7522 11.4795 23.8573 11.3362 23.9232C11.1928 23.9892 11.0338 24.0133 10.8774 23.993C10.7211 23.9727 10.5735 23.9086 10.4516 23.8082C10.3296 23.7077 10.2382 23.5749 10.1878 23.4249L7.76934 16.3982L0.622061 14.4247C0.469302 14.3831 0.331287 14.2992 0.22384 14.1825C0.116393 14.0658 0.0438617 13.9211 0.0145605 13.7649C-0.0147407 13.6087 0.000373029 13.4473 0.0581717 13.2993C0.11597 13.1514 0.214114 13.0228 0.34135 12.9282L6.24703 8.43897L5.91234 1.0111C5.87744 0.835212 5.89912 0.652725 5.97423 0.490016C6.04935 0.327308 6.17401 0.192793 6.33022 0.1059C6.48643 0.0190058 6.6661 -0.0157637 6.84327 0.00660662C7.02044 0.0289769 7.18595 0.107336 7.31588 0.230359Z" fill="url(#paint0_linear_514_1802)"/>
</g>
<defs>
<linearGradient id="paint0_linear_514_1802" x1="12" y1="0" x2="12" y2="24" gradientUnits="userSpaceOnUse">
<stop stop-color="#7578FF"/>
<stop offset="1" stop-color="#635BFF"/>
</linearGradient>
</defs>
</svg>
