<svg width="13" height="24" viewBox="0 0 13 24" fill="none" xmlns="http://www.w3.org/2000/svg">
<g id="Group">
<path id="Vector" d="M0.81211 19.8324C0.81211 18.968 1.38283 18.1048 2.52427 17.4461C4.80597 16.1287 8.50614 16.1287 10.7878 17.4461C11.9293 18.1048 12.5 18.968 12.5 19.8324V20.6255C12.5 21.4899 11.9293 22.3531 10.7878 23.0118C8.50614 24.3292 4.80597 24.3292 2.52308 23.0118C1.38164 22.3531 0.81211 21.4899 0.81211 20.6255V19.8324Z" fill="url(#paint0_linear_514_1751)"/>
<path id="Vector_2" d="M8.92348 16.7227C9.57593 16.8745 10.2036 17.1179 10.7878 17.4456C11.9293 18.1043 12.5 18.9675 12.5 19.8319V20.625C12.5 21.4894 11.9293 22.3526 10.7878 23.0113C10.2036 23.339 9.57593 23.5824 8.92348 23.7342V16.7227Z" fill="url(#paint1_linear_514_1751)"/>
<path id="Vector_3" d="M10.789 17.4461C11.9293 18.1048 12.5 18.968 12.5 19.8324C12.5 20.6968 11.9293 21.5588 10.7878 22.2175C8.50614 23.5349 4.80597 23.5349 2.52308 22.2175C1.38283 21.5588 0.81211 20.6956 0.81211 19.8324C0.81211 18.9692 1.38283 18.1048 2.52308 17.4461C4.80121 16.1287 8.50614 16.1287 10.789 17.4461Z" fill="url(#paint2_linear_514_1751)"/>
<path id="Vector_4" d="M2.63407 14.9973C3.06328 14.524 3.5349 14.091 4.04304 13.7037C4.52815 13.3327 4.91814 13.0901 5.17259 12.8428C5.63987 12.3874 5.74331 12.0414 5.74331 11.7727C5.74331 11.504 5.63987 11.1568 5.17259 10.7026C4.70531 10.2484 3.7767 9.80729 2.63407 8.54814C1.49144 7.28899 1.38562 5.7528 1.38562 3.91103C1.38562 3.13224 1.90046 2.35344 2.93132 1.75894C4.98948 0.569937 8.32582 0.569937 10.384 1.75894C11.4137 2.35344 11.9297 3.13224 11.9297 3.91103C11.9297 5.75042 11.8262 7.2878 10.6836 8.54814C9.54098 9.80848 8.60643 10.2448 8.14153 10.7014C7.67663 11.158 7.56843 11.5028 7.56843 11.7715C7.56843 12.0402 7.67306 12.3862 8.14153 12.8416C8.60999 13.297 9.53623 13.7369 10.68 14.9961C11.8239 16.2553 11.9261 17.7903 11.9261 19.6332C11.9261 20.412 11.4125 21.1908 10.3804 21.7841C8.32226 22.9731 4.98592 22.9731 2.92775 21.7841C1.89808 21.1896 1.38205 20.412 1.38205 19.6332C1.38562 17.7914 1.49025 16.2564 2.63407 14.9973Z" fill="#1E1650"/>
<path id="Vector_5" opacity="0.8" d="M2.63407 14.9973C3.06328 14.524 3.5349 14.091 4.04304 13.7037C4.52815 13.3327 4.91814 13.0901 5.17259 12.8428C5.63987 12.3874 5.74331 12.0414 5.74331 11.7727C5.74331 11.504 5.63987 11.1568 5.17259 10.7026C4.70531 10.2484 3.7767 9.80729 2.63407 8.54814C1.49144 7.28899 1.38562 5.7528 1.38562 3.91103C1.38562 3.13224 1.90046 2.35344 2.93132 1.75894C4.98948 0.569937 8.32582 0.569937 10.384 1.75894C11.4137 2.35344 11.9297 3.13224 11.9297 3.91103C11.9297 5.75042 11.8262 7.2878 10.6836 8.54814C9.54098 9.80848 8.60643 10.2448 8.14153 10.7014C7.67663 11.158 7.56843 11.5028 7.56843 11.7715C7.56843 12.0402 7.67306 12.3862 8.14153 12.8416C8.60999 13.297 9.53623 13.7369 10.68 14.9961C11.8239 16.2553 11.9261 17.7903 11.9261 19.6332C11.9261 20.412 11.4125 21.1908 10.3804 21.7841C8.32226 22.9731 4.98592 22.9731 2.92775 21.7841C1.89808 21.1896 1.38205 20.412 1.38205 19.6332C1.38562 17.7914 1.49025 16.2564 2.63407 14.9973Z" fill="#9CA7FF"/>
<path id="Vector_6" opacity="0.8" d="M6.57648 22.18C7.91529 22.18 9.1685 21.8982 10.1042 21.3774C10.9805 20.8899 11.4502 20.255 11.4502 19.5939C11.4502 17.833 11.3658 16.3931 10.3064 15.2255C9.75555 14.6232 9.13761 14.0858 8.46461 13.6239C8.22606 13.4613 7.9992 13.2821 7.78569 13.0877C7.3196 12.6347 7.0925 12.1924 7.0925 11.7346C7.0925 11.2769 7.3196 10.8322 7.78569 10.378C7.99975 10.1841 8.227 10.0053 8.4658 9.84292C9.13841 9.3792 9.75593 8.84027 10.3064 8.23658C11.3658 7.07017 11.4502 5.63029 11.4502 3.86819C11.4502 3.20353 10.9746 2.56028 10.1054 2.0609C9.1685 1.51991 7.91648 1.22266 6.57648 1.22266C5.23647 1.22266 3.98445 1.51991 3.04871 2.0609C2.18074 2.56147 1.70276 3.20353 1.70276 3.86819C1.70276 5.63029 1.78718 7.07017 2.84777 8.23658C3.39901 8.84011 4.01778 9.3783 4.69191 9.84055C4.92996 10.0021 5.15642 10.1801 5.36964 10.3732C5.83454 10.8274 6.06045 11.2709 6.06045 11.7299C6.06045 12.1888 5.83454 12.6299 5.36964 13.083C5.1578 13.2759 4.93251 13.4535 4.69548 13.6144C4.54804 13.7203 4.38039 13.8403 4.20442 13.9711C3.71473 14.3433 3.26057 14.7601 2.84777 15.216C1.78718 16.3836 1.70276 17.8235 1.70276 19.5844C1.70276 20.2503 2.17003 20.8923 3.04871 21.3679C3.99515 21.8982 5.23766 22.18 6.57648 22.18Z" fill="#9CA7FF"/>
<path id="Vector_7" d="M0.81211 3.37439C0.81211 2.50998 1.38283 1.64677 2.52427 0.988061C4.80597 -0.329354 8.50614 -0.329354 10.7878 0.988061C11.9293 1.64677 12.5 2.50998 12.5 3.37439V4.17221C12.5 5.03542 11.9293 5.89983 10.7878 6.55854C8.50614 7.87595 4.80597 7.87595 2.52308 6.55854C1.38164 5.89983 0.81211 5.03542 0.81211 4.17221V3.37439Z" fill="url(#paint3_linear_514_1751)"/>
<path id="Vector_8" d="M8.92348 0.265625C9.57609 0.416896 10.2038 0.660309 10.7878 0.988539C11.9293 1.64725 12.5 2.51046 12.5 3.37487V4.17269C12.5 5.0359 11.9293 5.90031 10.7878 6.55901C10.2036 6.88673 9.57593 7.13012 8.92348 7.28193V0.265625Z" fill="url(#paint4_linear_514_1751)"/>
<path id="Vector_9" d="M10.789 0.988061C11.9293 1.64677 12.5 2.50998 12.5 3.37439C12.5 4.23879 11.9293 5.10082 10.7878 5.75953C8.50614 7.07694 4.80597 7.07694 2.52308 5.75953C1.38283 5.10082 0.81211 4.2376 0.81211 3.37439C0.81211 2.51117 1.38283 1.64677 2.52308 0.988061C4.80121 -0.329354 8.50614 -0.329354 10.789 0.988061Z" fill="url(#paint5_linear_514_1751)"/>
<path id="Vector_10" d="M2.31491 16.6567C2.43382 16.1989 2.84402 15.7566 3.53364 15.4047C5.2137 14.5474 7.93295 14.5474 9.61658 15.4047C10.3062 15.7614 10.7128 16.1989 10.8353 16.6567C10.9673 17.1394 11.1504 18.0989 11.1504 19.5353C11.1504 20.1298 10.7045 20.7314 9.81038 21.1868C8.02688 22.0999 5.12453 22.0999 3.33746 21.1868C2.44333 20.7314 1.99745 20.1333 1.99745 19.5353C1.99983 18.0989 2.18531 17.1394 2.31491 16.6567Z" fill="url(#paint6_linear_514_1751)"/>
<path id="Vector_11" opacity="0.2" d="M9.61759 15.4047C10.4582 15.8339 10.8779 16.3951 10.8779 16.9575C10.8779 17.5199 10.457 18.0811 9.61759 18.5092C7.93753 19.3664 5.21828 19.3664 3.53465 18.5092C2.69522 18.0811 2.27431 17.5187 2.2755 16.9575C2.27669 16.3963 2.69522 15.8339 3.53465 15.4047C5.21471 14.5474 7.93753 14.5474 9.61759 15.4047Z" fill="#9CA7FF"/>
<path id="Vector_12" d="M5.4822 9.44902C6.38941 9.73081 6.61889 9.58219 7.53918 8.93299C7.77741 8.76729 8.03444 8.63039 8.30489 8.52517C8.60096 8.43124 9.02781 8.55251 8.80903 8.86284C8.50821 9.29088 8.14438 9.51323 7.87923 9.73676C7.68855 9.88863 7.50968 10.0548 7.34418 10.2338C6.95419 10.6796 6.76276 11.1267 6.76157 11.5975C6.76038 12.0684 6.6938 12.1742 6.56301 12.1742C6.43222 12.1742 6.36563 12.0684 6.36801 11.5964C6.37039 11.1243 6.18134 10.6773 5.79253 10.229C5.62813 10.0491 5.45047 9.88177 5.26105 9.72844C4.89365 9.41811 5.1695 9.35628 5.4822 9.44902ZM6.56182 12.5666C6.61878 12.5576 6.67714 12.5663 6.729 12.5915C6.78087 12.6167 6.82375 12.6572 6.85186 12.7076C6.87997 12.7579 6.89195 12.8157 6.88619 12.8731C6.88043 12.9305 6.85719 12.9847 6.81963 13.0285C6.78207 13.0722 6.73198 13.1034 6.67614 13.1178C6.62029 13.1322 6.56137 13.1291 6.50734 13.1089C6.4533 13.0888 6.40675 13.0526 6.37397 13.0051C6.34119 12.9577 6.32375 12.9013 6.32402 12.8436C6.32007 12.776 6.34274 12.7095 6.38718 12.6584C6.43163 12.6073 6.49431 12.5756 6.56182 12.5702V12.5666Z" fill="url(#paint7_linear_514_1751)"/>
</g>
<defs>
<linearGradient id="paint0_linear_514_1751" x1="6.65605" y1="16.458" x2="6.65605" y2="23.9998" gradientUnits="userSpaceOnUse">
<stop stop-color="#7578FF"/>
<stop offset="1" stop-color="#635BFF"/>
</linearGradient>
<linearGradient id="paint1_linear_514_1751" x1="10.7117" y1="16.7227" x2="10.7117" y2="23.7342" gradientUnits="userSpaceOnUse">
<stop stop-color="#7578FF"/>
<stop offset="1" stop-color="#635BFF"/>
</linearGradient>
<linearGradient id="paint2_linear_514_1751" x1="6.65605" y1="16.458" x2="6.65605" y2="23.2056" gradientUnits="userSpaceOnUse">
<stop stop-color="#7578FF"/>
<stop offset="1" stop-color="#635BFF"/>
</linearGradient>
<linearGradient id="paint3_linear_514_1751" x1="6.65605" y1="0" x2="6.65605" y2="7.5466" gradientUnits="userSpaceOnUse">
<stop stop-color="#7578FF"/>
<stop offset="1" stop-color="#635BFF"/>
</linearGradient>
<linearGradient id="paint4_linear_514_1751" x1="10.7117" y1="0.265625" x2="10.7117" y2="7.28193" gradientUnits="userSpaceOnUse">
<stop stop-color="#7578FF"/>
<stop offset="1" stop-color="#635BFF"/>
</linearGradient>
<linearGradient id="paint5_linear_514_1751" x1="6.65605" y1="0" x2="6.65605" y2="6.74759" gradientUnits="userSpaceOnUse">
<stop stop-color="#7578FF"/>
<stop offset="1" stop-color="#635BFF"/>
</linearGradient>
<linearGradient id="paint6_linear_514_1751" x1="6.57392" y1="14.7617" x2="6.57392" y2="21.8717" gradientUnits="userSpaceOnUse">
<stop stop-color="#7578FF"/>
<stop offset="1" stop-color="#635BFF"/>
</linearGradient>
<linearGradient id="paint7_linear_514_1751" x1="6.97734" y1="8.49414" x2="6.97734" y2="13.1267" gradientUnits="userSpaceOnUse">
<stop stop-color="#7578FF"/>
<stop offset="1" stop-color="#635BFF"/>
</linearGradient>
</defs>
</svg>
